<?xml version="1.0" standalone="no"?>
<!DOCTYPE svg PUBLIC "-//W3C//DTD SVG 1.1//EN" "http://www.w3.org/Graphics/SVG/1.1/DTD/svg11.dtd" >
<!--
2013-9-30: Created.
-->
<svg>
<metadata>
Created by iconfont
</metadata>
<defs>

<font id="iconfont" horiz-adv-x="1024" >
  <font-face
    font-family="iconfont"
    font-weight="500"
    font-stretch="normal"
    units-per-em="1024"
    ascent="896"
    descent="-128"
  />
    <missing-glyph />
    
    <glyph glyph-name="x" unicode="x" horiz-adv-x="1001"
d="M281 543q-27 -1 -53 -1h-83q-18 0 -36.5 -6t-32.5 -18.5t-23 -32t-9 -45.5v-76h912v41q0 16 -0.5 30t-0.5 18q0 13 -5 29t-17 29.5t-31.5 22.5t-49.5 9h-133v-97h-438v97zM955 310v-52q0 -23 0.5 -52t0.5 -58t-10.5 -47.5t-26 -30t-33 -16t-31.5 -4.5q-14 -1 -29.5 -0.5
t-29.5 0.5h-32l-45 128h-439l-44 -128h-29h-34q-20 0 -45 1q-25 0 -41 9.5t-25.5 23t-13.5 29.5t-4 30v167h911zM163 247q-12 0 -21 -8.5t-9 -21.5t9 -21.5t21 -8.5q13 0 22 8.5t9 21.5t-9 21.5t-22 8.5zM316 123q-8 -26 -14 -48q-5 -19 -10.5 -37t-7.5 -25t-3 -15t1 -14.5
t9.5 -10.5t21.5 -4h37h67h81h80h64h36q23 0 34 12t2 38q-5 13 -9.5 30.5t-9.5 34.5q-5 19 -11 39h-368zM336 498v228q0 11 2.5 23t10 21.5t20.5 15.5t34 6h188q31 0 51.5 -14.5t20.5 -52.5v-227h-327z" />
    

    
    <glyph glyph-name="icon" unicode="&#58880;" d="M757.206016 166.064896c0-98.934784-68.960256-183.469056-196.706304-204.588032l0-114.562048L450.320384-153.085184 450.320384-47.38176c-74.556416 3.308544-146.753536 24.431616-189.021184 47.838208l33.287168 130.084864c46.696448-25.550848 112.323584-48.960512 184.639488-48.960512 64.533504 0 107.844608 25.550848 107.844608 68.911104 0 42.246144-35.674112 69.011456-119.062528 96.847872-118.890496 40.050688-200.040448 95.58016-200.040448 203.47392 0 98.93888 68.839424 175.731712 187.777024 197.972992L455.744512 754.439936l109.083648 0 0-97.820672c73.389056-2.286592 123.4176-18.878464 162.35008-36.788224l-33.383424-125.657088c-27.83744 13.431808-80.106496 39.027712-160.15872 39.027712-72.19712 0-95.629312-32.264192-95.629312-63.4112 0-35.523584 38.982656-60.101632 134.608896-94.457856C704.891904 328.563456 757.157888 267.389696 757.206016 166.064896z"  horiz-adv-x="1024" />

    
    <glyph glyph-name="loading" unicode="&#58881;" d="M864.64 57.76c0-3.217 2.607-5.824 5.824-5.824s5.824 2.607 5.824 5.824c0 0 0 0 0 0 0 3.217-2.607 5.824-5.824 5.824-3.217 0-5.824-2.607-5.824-5.824 0 0 0 0 0 0zM736.064-74.912c0 0 0 0 0 0 0-6.398 5.186-11.584 11.584-11.584 6.398 0 11.584 5.186 11.584 11.584 0 0 0 0 0 0 0 0 0 0 0 0 0 6.398-5.186 11.584-11.584 11.584-6.398 0-11.584-5.186-11.584-11.584s0 0 0 0zM562.752-143.2c0-9.614 7.794-17.408 17.408-17.408s17.408 7.794 17.408 17.408c0 9.614-7.794 17.408-17.408 17.408-9.614 0-17.408-7.794-17.408-17.408zM376.192-134.048c0 0 0 0 0 0 0-12.795 10.373-23.168 23.168-23.168 12.795 0 23.168 10.373 23.168 23.168 0 0 0 0 0 0 0 0 0 0 0 0 0 12.795-10.373 23.168-23.168 23.168-12.795 0-23.168-10.373-23.168-23.168s0 0 0 0zM210.688-49.12c0-16.012 12.98-28.992 28.992-28.992s28.992 12.98 28.992 28.992c0 0 0 0 0 0 0 16.012-12.98 28.992-28.992 28.992-16.012 0-28.992-12.98-28.992-28.992 0 0 0 0 0 0zM96.064 95.264c0-19.228 15.588-34.816 34.816-34.816s34.816 15.588 34.816 34.816c0 19.228-15.588 34.816-34.816 34.816-19.228 0-34.816-15.588-34.816-34.816zM53.056 272.544c0-22.41 18.166-40.576 40.576-40.576s40.576 18.166 40.576 40.576c0 22.41-18.166 40.576-40.576 40.576-22.41 0-40.576-18.166-40.576-40.576zM88.448 448.672c0-25.626 20.774-46.4 46.4-46.4s46.4 20.774 46.4 46.4c0 25.626-20.774 46.4-46.4 46.4-25.626 0-46.4-20.774-46.4-46.4zM194.624 590.688c0-28.843 23.381-52.224 52.224-52.224s52.224 23.381 52.224 52.224c0 0 0 0 0 0 0 28.843-23.381 52.224-52.224 52.224-28.843 0-52.224-23.381-52.224-52.224 0 0 0 0 0 0zM350.528 672.032c0-32.024 25.96-57.984 57.984-57.984s57.984 25.96 57.984 57.984c0 32.024-25.96 57.984-57.984 57.984-32.024 0-57.984-25.96-57.984-57.984zM525.632 677.088c0-35.24 28.568-63.808 63.808-63.808s63.808 28.568 63.808 63.808c0 0 0 0 0 0 0 35.24-28.568 63.808-63.808 63.808-35.24 0-63.808-28.568-63.808-63.808 0 0 0 0 0 0zM685.952 604.96c0-38.421 31.147-69.568 69.568-69.568s69.568 31.147 69.568 69.568c0 38.421-31.147 69.568-69.568 69.568-38.421 0-69.568-31.147-69.568-69.568zM799.872 469.472c0-41.638 33.754-75.392 75.392-75.392s75.392 33.754 75.392 75.392c0 41.638-33.754 75.392-75.392 75.392-41.638 0-75.392-33.754-75.392-75.392zM845.184 293.984c0-44.854 36.362-81.216 81.216-81.216s81.216 36.362 81.216 81.216c0 44.854-36.362 81.216-81.216 81.216-44.854 0-81.216-36.362-81.216-81.216z"  horiz-adv-x="1024" />

    
    <glyph glyph-name="screening" unicode="&#58882;" d="M434.56-162v405l-372.56 495h904.464l-372.56-495v-286.555l-159.345-118.445zM151.23 695.498l326.214-437.58v-334.908l73.583 54.693v280.215l326.21 437.58h-726.008z"  horiz-adv-x="1030" />

    
    <glyph glyph-name="close" unicode="&#58883;" d="M948.578-89.925l-378.875 378.244 378.366 377.146-56.083 58.997-379.868-378.653-375.433 374.806-58.97-56.083 376.783-376.16-379.075-377.863 56.086-58.973 380.574 379.348 377.522-376.898z"  horiz-adv-x="1024" />

    
    <glyph glyph-name="right" unicode="&#58884;" d="M931.114 537.885c-19.811 19.732-47.878 23.822-62.607 9.107l-465.955-419.481-250.245 250.134c-8.854 8.843-32.166-0.067-51.91-19.866-19.812-19.734-28.726-43.029-19.878-51.809l296.851-296.653c6.387-5.745 17.069-7.821 26.559-6.929 10.804 1.012 16.403 4.059 24.688 12.342l511.614 460.59c14.726 14.714 10.634 42.765-9.115 62.562z"  horiz-adv-x="1024" />

    
    <glyph glyph-name="arrow" unicode="&#58885;" d="M680.987-78.885l29.132 29.132-337.955 337.955 337.55 337.552-29.13 29.131-366.704-366.683z"  horiz-adv-x="1024" />

    
    <glyph glyph-name="sina" unicode="&#58886;" d="M731.718 309.913c-35.017 6.81-18.003 25.688-18.003 25.688s34.277 56.592-6.796 97.764c-50.885 50.963-174.551-6.49-174.551-6.49-47.256-14.68-34.732 6.696-28.043 43.115 0 42.866-14.666 115.411-140.502 72.56-125.694-43.086-233.633-194.091-233.633-194.091-75.065-100.319-65.11-177.881-65.11-177.881 18.729-171.171 200.317-218.171 341.566-229.293 148.592-11.677 349.109 51.298 409.934 180.713 60.819 129.593-49.69 180.877-84.863 187.914zM417.62-10.448c-147.489-6.909-266.736 67.187-266.736 165.798 0 98.725 119.254 177.881 266.736 184.705 147.646 6.796 267.092-54.13 267.092-152.641 0.007-98.597-119.446-191.159-267.092-197.862zM388.203 275.024c-148.372-17.391-131.215-156.605-131.215-156.605s-1.53-44.082 39.784-66.533c86.806-47.107 176.187-18.572 221.337 39.82 45.185 58.456 18.693 200.58-129.906 183.317zM350.788 79.653c-27.716-3.252-50.024 12.73-50.024 35.963 0 23.098 19.81 47.299 47.519 50.223 31.872 3.024 52.55-15.349 52.55-38.561-0.007-23.126-22.457-44.502-50.045-47.626zM438.227 154.276c-9.357-7.038-20.92-6.063-25.873 2.384-5.173 8.197-3.238 21.369 6.241 28.278 11.022 8.219 22.443 5.863 27.41-2.377 4.953-8.418 1.388-21.041-7.778-28.285zM803.979 370.191c11.94 0 22.102 8.852 23.809 20.394 0.199 0.868 0.334 1.615 0.334 2.604 18.11 163.173-133.493 135.108-133.493 135.108-13.463 0-24.265-10.916-24.265-24.514 0-13.399 10.809-24.3 24.265-24.3 108.9 24.066 84.863-85.020 84.863-85.020 0-13.492 10.98-24.272 24.485-24.272zM786.289 655.030c-52.408 12.296-106.31 1.686-121.417-1.21-1.181-0.114-2.249-1.21-3.33-1.43-0.534-0.1-0.882-0.655-0.882-0.655-14.879-4.213-25.745-18.010-25.745-34.341 0-19.426 15.705-35.422 35.351-35.422 0 0 19.099 2.54 32.050 7.628 12.794 5.173 121.381 3.843 175.291-86.87 29.445-66.22 12.944-110.516 10.88-117.624 0 0-6.995-17.206-6.995-34.142 0-19.554 15.769-31.836 35.237-31.836 16.302 0 29.993 2.234 34.014 29.844h0.192c57.901 193.294-70.852 284.134-164.646 306.058z"  horiz-adv-x="1024" />

    
    <glyph glyph-name="weixin" unicode="&#58887;" d="M673.397 423.759c10.261 0 20.401-0.747 30.463-1.864-27.36 126.825-163.607 221.053-319.123 221.053-173.853 0-316.283-117.937-316.283-267.711 0-86.443 47.37-157.444 126.569-212.506l-31.651-94.697 110.587 55.183c39.557-7.792 71.307-15.826 110.779-15.826 9.919 0 19.761 0.512 29.516 1.267-6.184 21.056-9.756 43.1-9.756 65.971 0.007 137.52 118.656 249.131 268.899 249.131zM503.337 509.092c23.817 0 39.599-15.584 39.599-39.286 0-23.589-15.79-39.393-39.599-39.393-23.696 0-47.498 15.804-47.498 39.393 0.007 23.703 23.802 39.286 47.498 39.286zM281.992 430.419c-23.696 0-47.619 15.804-47.619 39.393 0 23.696 23.923 39.286 47.619 39.286 23.71 0 39.478-15.584 39.478-39.286 0-23.596-15.769-39.393-39.478-39.393zM962.064 178.406c0 125.857-126.533 228.446-268.65 228.446-150.471 0-269.013-102.589-269.013-228.446 0-126.064 118.535-228.432 269.013-228.432 31.509 0 63.274 7.884 94.903 15.783l86.756-47.27-23.788 78.651c63.48 47.413 110.779 110.252 110.779 181.268zM606.203 217.792c-15.747 0-31.644 15.584-31.644 31.495 0 15.705 15.897 31.487 31.644 31.487 23.916 0 39.592-15.783 39.592-31.487 0.007-15.911-15.669-31.495-39.592-31.495zM780.191 217.792c-15.669 0-31.431 15.584-31.431 31.495 0 15.705 15.762 31.487 31.431 31.487 23.696 0 39.585-15.783 39.585-31.487 0-15.911-15.89-31.495-39.585-31.495z"  horiz-adv-x="1024" />

    
    <glyph glyph-name="qq" unicode="&#58888;" d="M917.139 136.895c-18.766 109.63-97.568 181.456-97.568 181.456 11.259 99.536-30.018 117.19-30.018 117.19-8.687 307.977-272.017 302.58-277.549 302.437-5.532 0.144-268.908 5.539-277.556-302.429 0 0-41.278-17.654-30.018-117.19 0 0-78.802-71.826-97.568-181.456 0 0-10.019-185.239 90.063-22.686 0 0 22.511-61.732 63.789-117.19 0 0-73.808-25.213-67.543-90.729 0 0-2.512-73.074 157.605-68.049 0 0 112.574 8.807 146.345 56.707h29.761c33.771-47.899 146.345-56.707 146.345-56.707 160.080-5.031 157.605 68.049 157.605 68.049 6.228 65.514-67.543 90.729-67.543 90.729 41.278 55.458 63.789 117.19 63.789 117.19 100.043-162.561 90.063 22.678 90.063 22.678z"  horiz-adv-x="1024" />

    
    <glyph glyph-name="people" unicode="&#58889;" d="M510.943 735.985c-247.033 0-447.304-200.248-447.304-447.304 0-247.035 200.27-447.304 447.304-447.304s447.304 200.269 447.304 447.304c0 247.057-200.271 447.304-447.304 447.304v0 0zM510.943 694.051c223.858 0 405.347-181.487 405.347-405.369 0-99.827-36.143-191.146-95.965-261.796-50.695 120.909-172.474 191.601-311.752 191.601-139.344 0-256.16-70.829-306.83-191.785-59.947 70.65-96.169 162.060-96.169 261.98 0 223.882 181.487 405.369 405.369 405.369v0 0zM233.931-7.093c39.772 114.952 148.703 179.696 277.013 179.696 128.333 0 237.331-64.722 277.081-179.653-72.488-67.979-169.876-109.64-277.081-109.64-107.182 0.001-204.546 41.662-277.013 109.597v0 0zM510.943 241.802c91.021 0 164.796 73.8 164.796 164.82 0 91.018-73.776 164.795-164.796 164.795s-164.795-73.777-164.795-164.795c-0-91.020 73.8-164.82 164.795-164.82v0 0zM510.943 524.334c64.879 0 117.712-52.81 117.712-117.712 0-64.903-52.832-117.711-117.712-117.711-64.902 0-117.712 52.807-117.712 117.711-0 64.902 52.81 117.712 117.712 117.712v0 0zM510.943 524.334z"  horiz-adv-x="1024" />

    
    <glyph glyph-name="money" unicode="&#58890;" d="M511.998 735.303c-247.045 0-447.302-200.271-447.302-447.303 0-247.033 200.257-447.304 447.302-447.304 247.033 0 447.304 200.271 447.304 447.304 0.001 247.031-200.27 447.303-447.304 447.303v0zM511.998-112.22c-221.043 0-400.219 179.167-400.219 400.22s179.177 400.22 400.219 400.22 400.22-179.166 400.22-400.22-179.177-400.22-400.22-400.22v0zM623.066 290.069c-18.254 14.163-39.866 23.014-85.696 34.533v160.519c20.495-4.024 32.726-9.632 45.279-22.302 15.37-14.391 22.187-29.404 26.761-58.188l46.131 8.99c-7.404 36.577-15.38 53.982-35.325 74.35-21.324 21.911-42.429 31.681-82.847 37.291l-1.828 45.245h-47.085l-1.828-45.106c-31.474-4.598-48.579-10.737-66.914-23.611-30.761-20.968-47.855-55.155-47.855-95.343 0-37.198 15.967-70.19 43.314-88.193 19.566-12.989 36.074-19.679 71.454-28.37v-176.911c-24.691 3.541-41.141 11.54-54.948 26.6-15.38 16.782-21.634 34.186-24.484 68.948l-47.304-7.795c6.851-44.968 16.541-68.372 37.039-89.939 21.518-21.564 44.795-31.84 89.696-37.567l1.828-67.73h47.085l1.814 66.625c36.958 4.092 55.925 9.703 76.595 23.657 33.050 22.186 50.153 56.994 50.153 103.757 0.002 40.19-12.55 68.995-41.036 90.539v0zM486.629 334.855c-13.276 3.355-21.463 6.137-30.463 10.436-27.348 13.773-40.417 34.141-40.417 62.95 0 23.358 10.255 45.544 26.737 58.763 12.002 9.587 24.141 14.415 44.142 17.886v-150.035zM588.914 131.755c-14.277-11.265-27.784-16.185-51.544-19.701l0 166.864c32.554-8.62 43.853-12.852 54.36-20.599 17.68-13.794 26.796-33.015 26.796-59.408-0.001-28.761-10.829-52.762-29.612-67.156v0zM588.914 131.755z"  horiz-adv-x="1024" />

    
    <glyph glyph-name="help" unicode="&#58891;" d="M547.273 186.427c-13.058-12.461-22.209-20.231-28.301-25.151 2.988 16.116 10.759 48.094 29.485 111.065 18.656 62.395 20.277 73.293 20.277 78.649 0 9.335-3.92 17.588-10.702 23.312-15.243 12.575-42.107 10.093-74.581-8.253-18.104-10.161-37.324-26.691-58.786-50.21l-11.196-12.462 37.141-28.623 9.507 9.403c10.333 10.023 41.324 37.75 45.992 42.095-28.37-93.202-34.509-150.239-34.509-176.196 0-11.747 3.426-21.518 10.322-28.922 6.967-7.587 16.736-11.564 27.933-11.564 10.956 0 23.52 4.23 38.761 12.875 13.748 7.771 2.759 2.758 31.623 29.864l11.703 11.219-33.783 32.831-10.885-9.932zM924.277 462.309c-22.518 53.267-54.924 101.156-95.926 142.102-41.049 41.060-88.948 73.362-142.080 95.938-110.41 46.601-237.936 46.601-348.416 0-53.199-22.576-100.973-54.877-142.090-95.938-41.050-40.991-73.465-88.971-95.916-142.102-23.277-55.315-35.152-113.802-35.152-174.265 0-60.418 11.817-118.904 35.083-174.149 22.462-53.2 54.866-101.043 95.927-142.218 40.992-41.014 88.834-73.362 142.079-95.892 55.303-23.382 113.847-35.083 174.185-35.083 60.407 0 118.94 11.703 174.244 35.153 53.244 22.53 101.086 54.809 142.080 95.824 41.058 41.106 73.406 89.017 95.925 142.218 23.323 55.244 35.083 113.731 35.083 174.149 0.070 60.462-11.691 118.949-35.027 174.264v0zM911.944 288.042c0-220.544-179.508-399.914-400.283-399.914-220.728 0-400.236 179.369-400.236 399.914 0 220.613 179.508 399.961 400.236 399.961 220.775 0 400.283-179.347 400.283-399.961v0zM535.64 495.828c-8.461-9.288-12.818-20.531-12.818-33.543 0-10.689 3.495-20.024 10.334-27.244 6.967-7.357 15.989-11.15 26.244-11.15 8.334 0 20.725 2.552 32.037 15.128 8.84 9.518 13.323 20.967 13.323 33.726 0 10.438-3.609 19.587-10.519 26.691-15.059 15.496-42.428 13.795-58.602-3.608v0zM535.64 495.828z"  horiz-adv-x="1024" />

    
    <glyph glyph-name="more" unicode="&#58898;" d="M512.023 735.303c-247.045 0-447.326-200.249-447.326-447.304 0-247.034 200.259-447.303 447.326-447.303 247.021 0 447.28 200.269 447.28 447.303 0 247.055-200.259 447.304-447.28 447.304v0zM511.999-112.197c-221.054 0-400.265 179.211-400.265 400.265 0 221.053 179.212 400.265 400.265 400.265 221.054 0 400.288-179.213 400.288-400.265 0.001-221.054-179.234-400.265-400.288-400.265v0zM323.662 358.625c-39.003 0-70.628-31.612-70.628-70.627 0-39.016 31.623-70.628 70.628-70.628 39.003 0 70.627 31.612 70.627 70.628 0 39.015-31.624 70.627-70.627 70.627zM323.662 264.455c-13.001 0-23.542 10.553-23.542 23.543 0 13.013 10.541 23.542 23.542 23.542 13.002 0 23.542-10.529 23.542-23.542-0.001-12.989-10.541-23.543-23.542-23.543zM511.999 358.625c-39.003 0-70.628-31.612-70.628-70.627 0-39.016 31.623-70.628 70.628-70.628s70.627 31.612 70.627 70.628c0.001 39.015-31.622 70.627-70.627 70.627zM511.999 264.455c-13.001 0-23.542 10.553-23.542 23.543 0 13.013 10.542 23.542 23.542 23.542s23.542-10.529 23.542-23.542c0.001-12.989-10.541-23.543-23.542-23.543zM700.338 358.625c-39.002 0-70.628-31.612-70.628-70.627 0-39.016 31.624-70.628 70.628-70.628 39.003 0 70.628 31.612 70.628 70.628-0.001 39.015-31.624 70.627-70.628 70.627zM700.338 264.455c-13.001 0-23.542 10.553-23.542 23.543 0 13.013 10.541 23.542 23.542 23.542 13.002 0 23.542-10.529 23.542-23.542 0-12.989-10.54-23.543-23.542-23.543z"  horiz-adv-x="1024" />

    
    <glyph glyph-name="clock" unicode="&#58899;" d="M511.999 735.303c-247.034 0-447.303-200.27-447.303-447.303s200.269-447.304 447.303-447.304c247.033 0 447.303 200.27 447.303 447.303s-200.269 447.304-447.303 447.304zM511.999-112.219c-221.030 0-400.22 179.187-400.22 400.22s179.189 400.219 400.22 400.219c221.031 0 400.22-179.187 400.22-400.22s-179.187-400.219-400.22-400.219zM690.774 96.031l-178.774 133.4v269.416c0 13.013-10.541 23.543-23.542 23.543s-23.542-10.53-23.542-23.543v-276.469c0.294-15.457 5.545-21.459 15.563-28.162l182.131-135.937c10.426-7.77 25.175-5.632 32.945 4.805 7.783 10.417 5.633 25.152-4.782 32.946z"  horiz-adv-x="1024" />

    
    <glyph glyph-name="lock-open" unicode="&#58900;" d="M817.823 307.738h-480.58l-0 135.618c0 96.707 78.389 175.44 174.756 175.44 55.689 0 161.97-52.695 172.424-146.883 3.549-31.974 35.439-53.303 66.842-48.127 31.798 5.121 49.925 34.675 48.181 66.787-6.945 127.931-152.926 245.217-287.448 244.728-160.588-0.585-291.261-130.955-291.261-291.944v-135.618h-14.622c-56.26 0-101.883-45.225-101.883-100.973v-265.096c0-55.807 45.622-100.973 101.883-100.973h611.706c56.26 0 101.942 45.166 101.942 100.973v265.096c0 55.748-45.681 100.973-101.942 100.973z"  horiz-adv-x="1024" />

    
    <glyph glyph-name="warning" unicode="&#58901;" d="M496.048 13.142h29.513v-38.201h-29.513v38.201zM522.246 50.263l13.293 371.232h-48.042l11.148-371.232zM513.151 696.201l-448.485-793.814 894.608-1.393-446.123 795.207zM513.035 618.821l381.359-679.765-764.736 1.19 383.377 678.574z"  horiz-adv-x="1024" />

    
    <glyph glyph-name="message" unicode="&#58902;" d="M511.999-88.083c-16.261 0-31.352 8.102-40.386 21.663l-78.945 118.755h-266.976c-33.635 0-60.996 27.441-60.996 61.175v489.398c0 33.734 27.361 61.175 60.996 61.175h772.616c33.635 0 60.995-27.441 60.995-61.175l0-489.398c0-33.734-27.36-61.175-60.995-61.175h-266.977l-78.966-118.755c-9.014-13.562-24.104-21.663-40.367-21.663zM125.693 623.298c-11.22 0-20.332-9.151-20.332-20.391v-489.397c0-11.257 9.113-20.391 20.332-20.391h288.738l91.017-136.924c2.045-3.059 4.984-3.495 6.551-3.495 1.57 0 4.508 0.436 6.552 3.495l90.998 136.924h288.759c11.219 0 20.332 9.134 20.332 20.391l0 489.398c0 11.239-9.114 20.391-20.332 20.391h-772.615zM288.349 420.178c33.694 0 60.994-27.321 60.994-60.996 0-33.674-27.301-60.995-60.994-60.995-33.695 0-60.996 27.321-60.996 60.995-0.001 33.675 27.301 60.996 60.996 60.996zM511.999 420.178c33.695 0 60.995-27.321 60.995-60.996 0-33.674-27.301-60.995-60.995-60.995-33.694 0-60.995 27.321-60.995 60.995 0 33.675 27.302 60.996 60.995 60.996zM735.652 420.178c33.694 0 60.995-27.321 60.995-60.996 0-33.674-27.302-60.995-60.995-60.995-33.695 0-60.996 27.321-60.996 60.995 0 33.675 27.301 60.996 60.996 60.996z"  horiz-adv-x="1024" />

    
    <glyph glyph-name="hert" unicode="&#58903;" d="M729.175 687.020c-91.067 0-171.504-58.551-205.944-139.742-42.103 74.431-131.712 139.288-231.687 139.288-16.799 0-33.458-1.96-49.504-5.83-109.273-26.335-183.679-133.434-176.92-254.654 2.664-47.846 13.733-120.468 80.299-200.453l318.708-316.648c13.005-12.892 30.23-20.003 48.524-20.003 18.307 0 35.532 7.137 48.448 20.078l315.252 315.415c61.164 55.435 82.951 154.391 82.951 228.521-0 129.038-103.241 234.026-230.13 234.026zM841.074 261.489l-316.17-316.296c-3.267-3.266-7.64-5.1-12.289-5.1-4.711 0-9.172 1.858-12.502 5.15l-317.113 314.839c-54.668 65.787-64.619 124.789-67.082 168.841-5.39 96.57 52.331 181.555 137.593 202.135 12.112 2.915 24.211 4.398 36.989 4.398 106.057 0 230.581-124.438 230.581-200.93v0.176h-0.314v-0.176c0 84.81 100.125 201.382 203.367 201.382 97.023 0 184.031-83.779 184.031-182.912 0.002-60.284-17.337-146.374-67.091-191.506z"  horiz-adv-x="1024" />

    
    <glyph glyph-name="medal" unicode="&#58904;" d="M511.999 565.323c-93.626 0-169.527-75.19-169.527-168.819 0-93.626 75.9-170.232 169.527-170.232 93.63 0 169.525 76.606 169.525 170.232 0 93.63-75.895 168.819-169.525 168.819zM511.999 268.977c-70.034 0-126.821 57.491-126.821 127.527 0 70.036 56.786 126.112 126.821 126.112 70.037 0 126.818-56.075 126.818-126.112 0.001-70.034-56.78-127.527-126.818-127.527zM850.185 396.504c0 186.782-151.402 338.8-338.186 338.8-186.78 0-338.186-152.016-338.186-338.8 0-126.265 69.199-235.733 171.734-293.821v-261.987h42.273l129.461 79.769 124.177-79.769h42.274l-0 265.050c99.621 58.84 166.452 166.676 166.452 290.758zM641.46-103.41l-129.46 71.841-124.178-74.91-0 188.938c38.443-15.183 80.337-23.527 124.178-23.527 45.863 0 89.582 9.147 129.46 25.686l0-188.029zM511.999 101.393c-44.318 0-86.435 9.759-124.178 27.222l-3.543 1.654c-99.526 47.658-168.274 148.511-168.274 266.235 0 163.439 132.578 296.713 295.994 296.713s295.831-133.275 295.831-296.713c0-163.435-132.413-295.111-295.83-295.111z"  horiz-adv-x="1024" />

    
    <glyph glyph-name="tel" unicode="&#58905;" d="M788.562-157.479c-30.911-4.507-74.421 4.438-82.529 6.53-324.677 75.417-547.021 292.821-624.347 611.668l-0.444 1.75-0.591 6.582c-7.073 30.857-8.38 77.881-8.602 91.807-1.479 89.539 62.423 157.844 158.698 172.178 24.765 3.687 64.88-0.32 64.88-0.32l129.489-212.893c11.868-19.469 12.362-43.599 1.27-62.972-17.29-30.241-42.577-55.157-73.101-71.991-5.532-3.056-9.279-9.981-5.903-16.265 54.789-102.256 138.5-185.5 239.080-245.747 4.992-2.99 13.508-0.607 16.403 4.609 12.747 22.963 33.567 41.405 55.823 55.922 19.335 12.618 45.644 13.383 66.323 2.070l224.109-122.171c0 0 2.734-25.411 2.833-31.82 1.579-94.491-68.75-175.136-163.389-188.935zM760.477-108.731l4.521-0.050c5.484 0.1 11.092 0.569 16.588 1.331 69.119 9.638 120.359 68.911 119.213 137.921-0.012 0.444-0.025 0.887-0.037 1.355l-200.619 109.379c-4.338 2.366-9.71 2.441-13.359 0.025-16.29-10.597-30.414-24.745-40.838-40.864-10.216-15.798-26.742-26.372-45.287-28.961v0c-14.010-1.944-27.874 0.74-40.099 7.789-109.799 63.216-199.166 155.074-258.415 265.636-16.156 30.092-4.596 67.036 26.298 84.14 22.303 12.274 40.763 30.464 53.421 52.645 1.983 3.45 1.737 8.181-0.617 12.027l-116.206 191.083c-1.763 0.025-3.537 0.050-5.311 0-7.492-0.148-14.836-0.714-22.009-1.724-70.624-9.833-115.566-57.401-114.517-121.136 0.444-26.568 2.674-62.23 7.628-82.738l0.444-1.772 0.591-6.459c73.014-298.438 281.681-501.942 587.749-573.122 6.789-1.922 32.631-5.792 40.863-6.506z"  horiz-adv-x="1024" />

    
    <glyph glyph-name="add" unicode="&#58906;" d="M959.303 325.276h-410.028v410.028h-74.551v-410.028h-410.028v-74.551h410.028v-410.028h74.551v410.028h410.028z"  horiz-adv-x="1024" />

    
    <glyph glyph-name="del" unicode="&#58907;" d="M64.697 325.276h894.606v-74.552h-894.606v74.552z"  horiz-adv-x="1024" />

    
    <glyph glyph-name="arrow-2" unicode="&#58908;" d="M941.91 441.286l-429.911-276.678-429.91 276.678c0 0-12.943-2.939-17.392-3.845-0.035-0.008 1.665-17.388 1.665-17.388l445.637-285.34 445.638 285.34c0 0 1.7 17.38 1.665 17.388-4.448 0.906-17.392 3.845-17.392 3.845z"  horiz-adv-x="1024" />

    
    <glyph glyph-name="card" unicode="&#58909;" d="M952.85 473.006c-6.823 12.741-18.141 22.050-31.878 26.204l-561.715 169.905c-5.042 1.523-10.251 2.293-15.491 2.293-23.618 0-44.867-15.783-51.676-38.386l-50.253-166.82h-123.25c-29.715 0-53.891-24.227-53.891-54.001v-453.612c0-29.774 24.177-54.001 53.891-54.001h712.454c29.716 0 53.89 24.227 53.89 54.001l0 234.106 72.063 239.209c4.144 13.763 2.674 28.361-4.145 41.101zM118.587 444.603h712.454c17.829 0 32.338-14.534 32.338-32.401v-86.445h-777.126v86.445c0 17.867 14.504 32.401 32.334 32.401zM831.041-73.809h-712.454c-17.831 0-32.335 14.533-32.335 32.4l0 323.966h777.126v-323.966c0.001-17.867-14.507-32.4-32.337-32.4zM936.359 438.148l-51.427-170.71v144.764c0 29.775-24.175 54.001-53.89 54.001h-566.687l48.372 160.574c4.087 13.56 16.85 23.031 31.040 23.031 3.127 0 6.246-0.465 9.261-1.376l561.716-169.904c8.221-2.485 15.010-8.075 19.107-15.731 4.102-7.657 4.989-16.41 2.509-24.648zM565.58 195.828h-409.578c-5.927 0-10.778-4.863-10.778-10.801 0-5.944 4.851-10.801 10.778-10.801h409.578c5.93 0 10.78 4.857 10.78 10.801 0 5.938-4.849 10.801-10.78 10.801zM457.796 88.531h-301.794c-5.927 0-10.778-4.861-10.778-10.799 0-5.939 4.851-10.801 10.778-10.801h301.794c5.931 0 10.78 4.862 10.78 10.801 0 5.938-4.848 10.799-10.78 10.799zM769.668 195.828h-97.002c-17.786 0-32.335-14.581-32.335-32.402 0-17.823 14.549-32.399 32.335-32.399h97.002c17.787 0 32.338 14.576 32.338 32.399-0.001 17.821-14.55 32.402-32.338 32.402z"  horiz-adv-x="1024" />

    
    <glyph glyph-name="clock-2" unicode="&#58910;" d="M512.001 735.302c-247.043 0-447.304-200.262-447.304-447.303 0-247.042 200.261-447.302 447.304-447.302 247.041 0 447.302 200.26 447.302 447.302 0.001 247.040-200.261 447.303-447.302 447.303zM186.688 247.336h-81.328v81.326h81.328v-81.326zM471.337 694.638h81.327v-81.328h-81.327l-0 81.328zM552.665-118.64h-81.327v81.329h81.327v-81.329zM691.971 36.948l-220.632 210.388-0 243.982h81.327v-223.652l180.446-180.446-41.141-50.272zM837.312 247.336v81.326h81.328v-81.326h-81.328z"  horiz-adv-x="1024" />

    
    <glyph glyph-name="more-2" unicode="&#58911;" d="M161.739 385.042c53.591 0 97.042-43.452 97.042-97.042s-43.452-97.042-97.042-97.042-97.042 43.452-97.042 97.042 43.452 97.042 97.042 97.042zM513.516 385.042c53.592 0 97.042-43.452 97.042-97.042s-43.451-97.042-97.042-97.042c-53.591 0-97.041 43.452-97.041 97.042s43.451 97.042 97.041 97.042zM862.261 385.042c53.591 0 97.042-43.452 97.042-97.042s-43.452-97.042-97.042-97.042-97.042 43.452-97.042 97.042 43.452 97.042 97.042 97.042z"  horiz-adv-x="1024" />

    
    <glyph glyph-name="record" unicode="&#58912;" d="M539.64 594.209l405.415-152.086c18.652-7 19.042-18.329 0.876-25.33l-394.87-152.061c-18.168-7-48.033-7-66.683 0l-405.416 152.061c-18.674 7-19.064 18.329-0.874 25.33l394.845 152.086c18.189 6.999 48.031 6.999 66.706-0zM945.054 159.181l-27.257 10.225-352.53-139.907c-22.036-8.751-58.231-8.751-80.867 0l-370.846 143.343-35.467-13.662c-18.189-6.999-17.799-18.329 0.874-25.329l405.417-152.061c18.65-6.999 48.515-6.999 66.683 0l394.87 152.062c18.166 6.998 17.775 18.329-0.877 25.329zM945.054 300.653l-27.257 10.224-352.53-139.906c-22.036-8.751-58.231-8.751-80.867 0l-370.846 143.343-35.467-13.662c-18.189-7-17.799-18.329 0.874-25.33l405.416-152.061c18.65-7 48.515-7 66.683 0l394.87 152.061c18.167 7 17.776 18.331-0.876 25.331z"  horiz-adv-x="1024" />

    
    <glyph glyph-name="rise" unicode="&#58913;" d="M512.001 735.303c-247.044 0-447.303-200.26-447.303-447.303s200.259-447.304 447.303-447.304c247.043 0 447.302 200.26 447.302 447.303s-200.259 447.304-447.302 447.304zM824.326 407.208l-22.408-231.077c-4.935-23.064-34.442-25.903-53.183-5.133l-74.762 80.309-154.482-135.458c-18.259-16.293-46.586-14.742-62.967 3.451l-84.197 93.546-98.787-70.131c-18.259-16.294-46.609-14.765-62.967 3.429-16.38 18.193-14.808 46.412 3.452 62.705l131.591 99.419c13.847 12.341 33.46 14.393 49.273 6.771 5.526-2.447 10.637-6.007 14.896-10.746l83.388-92.65 121.174 105.711-69.956 75.024c-18.74 20.771-12.756 49.689 10.79 52.133l235.554-0.131c20.967 2.186 37.981-16.641 33.591-37.172z"  horiz-adv-x="1024" />

    
    <glyph glyph-name="calendar" unicode="&#58914;" d="M294.393 173.151c30.046 0 54.403 24.356 54.403 54.401 0 30.047-24.357 54.402-54.403 54.402-30.045 0-54.401-24.355-54.401-54.402-0.001-30.045 24.355-54.401 54.401-54.401zM294.393 257.775c16.691 0 30.222-13.529 30.222-30.223 0-16.693-13.531-30.221-30.222-30.221-16.691 0-30.223 13.529-30.223 30.221 0 16.694 13.532 30.223 30.223 30.223zM511.999 173.151c30.047 0 54.402 24.356 54.402 54.401 0 30.047-24.355 54.402-54.402 54.402s-54.402-24.355-54.402-54.402c0-30.045 24.356-54.401 54.402-54.401zM511.999 257.775c16.693 0 30.223-13.529 30.223-30.223 0-16.693-13.531-30.221-30.223-30.221s-30.223 13.529-30.223 30.221c0 16.694 13.531 30.223 30.223 30.223zM729.607 173.151c30.046 0 54.401 24.356 54.401 54.401 0 30.047-24.355 54.402-54.401 54.402-30.045 0-54.402-24.355-54.402-54.402-0-30.045 24.357-54.401 54.402-54.401zM729.607 257.775c16.693 0 30.222-13.529 30.222-30.223 0-16.693-13.529-30.221-30.222-30.221s-30.222 13.529-30.222 30.221c0 16.694 13.528 30.223 30.222 30.223zM294.393-8.189c30.046 0 54.403 24.358 54.403 54.401 0 30.047-24.357 54.403-54.403 54.403-30.045 0-54.401-24.356-54.401-54.403-0.001-30.043 24.355-54.401 54.401-54.401zM294.393 76.436c16.691 0 30.222-13.529 30.222-30.223 0-16.693-13.531-30.223-30.222-30.223-16.691 0-30.223 13.531-30.223 30.223 0 16.694 13.532 30.223 30.223 30.223zM511.999-8.189c30.047 0 54.402 24.358 54.402 54.401 0 30.047-24.355 54.403-54.402 54.403s-54.402-24.356-54.402-54.403c0-30.043 24.356-54.401 54.402-54.401zM511.999 76.436c16.693 0 30.223-13.529 30.223-30.223 0-16.693-13.531-30.223-30.223-30.223s-30.223 13.531-30.223 30.223c0 16.694 13.531 30.223 30.223 30.223zM729.607-8.189c30.046 0 54.401 24.358 54.401 54.401 0 30.047-24.355 54.403-54.401 54.403-30.045 0-54.402-24.356-54.402-54.403-0-30.043 24.357-54.401 54.402-54.401zM729.607 76.436c16.693 0 30.222-13.529 30.222-30.223 0-16.693-13.529-30.223-30.222-30.223s-30.222 13.531-30.222 30.223c0 16.694 13.528 30.223 30.222 30.223zM910.945 631.941h-120.892v36.87c0 26.664-21.693 48.356-48.357 48.356s-48.356-21.693-48.356-48.356v-36.87h-362.677v36.87c0 26.664-21.693 48.356-48.357 48.356s-48.356-21.693-48.356-48.356v-36.87h-120.894c-26.663 0-48.357-21.676-48.357-48.323v-676.472c0-26.64 21.694-48.315 48.357-48.315h797.891c26.663 0 48.357 21.676 48.357 48.315l0 676.472c0.001 26.647-21.694 48.323-48.357 48.323zM717.516 668.811c0 13.335 10.844 24.179 24.179 24.179 13.33 0 24.179-10.844 24.179-24.179v-96.715c0-13.335-10.849-24.178-24.179-24.178-13.335 0-24.179 10.843-24.179 24.178v96.715zM258.125 668.811c0 13.335 10.848 24.179 24.179 24.179 13.332 0 24.179-10.844 24.179-24.179v-96.715c0-13.335-10.847-24.178-24.179-24.178-13.331 0-24.179 10.843-24.179 24.178v96.715zM935.125-92.853c0-13.323-10.851-24.161-24.179-24.161h-797.891c-13.332 0-24.179 10.839-24.179 24.161l0 483.835h846.249v-483.835zM935.125 415.142h-846.249l-0 168.476c0 13.331 10.847 24.162 24.179 24.162h120.894v-35.685c0-26.663 21.692-48.356 48.356-48.356s48.357 21.693 48.357 48.356v35.685h362.677v-35.685c0-26.663 21.693-48.356 48.356-48.356 26.664 0 48.357 21.693 48.357 48.356v35.685h120.892c13.329 0 24.179-10.832 24.179-24.162l-0-168.476z"  horiz-adv-x="1024" />

    
    <glyph glyph-name="email" unicode="&#58915;" d="M847.476 623.476h-670.954c-61.756 0-111.826-50.071-111.826-111.826v-447.303c0-61.755 50.070-111.826 111.826-111.826h670.954c61.756 0 111.826 50.072 111.826 111.826l-0 447.303c0.001 61.756-50.070 111.826-111.826 111.826zM847.476 567.564c9.679 0 18.792-2.475 26.743-6.823l-362.165-323.303-362.208 323.343c7.934 4.324 17.024 6.785 26.676 6.785l670.954 0zM903.39 64.349c0-30.837-25.090-55.915-55.914-55.915h-670.954c-30.823 0-55.912 25.077-55.912 55.915l-0 447.302c0 0.166 0.011 0.326 0.012 0.49l391.432-349.407 391.326 349.313c0-0.134 0.009-0.263 0.009-0.396v-447.302z"  horiz-adv-x="1024" />

    
    <glyph glyph-name="mail-open" unicode="&#58916;" d="M959.303 426.578l-447.387 281.044-447.22-281.044v-446.429c0-61.727 50.071-111.772 111.826-111.772h670.954c61.756 0 111.826 50.044 111.826 111.772v444.328h-1.584l1.585 2.101zM511.917 155.019l-352.376 265.395 352.376 221.375 352.362-221.262-352.362-265.508zM903.39-19.851c0-30.822-25.091-55.887-55.914-55.887h-670.954c-30.822 0-55.914 25.065-55.914 55.887l0 399.576 391.308-294.68 391.473 294.926-0-399.823z"  horiz-adv-x="1024" />

    
    <glyph glyph-name="info" unicode="&#58917;" d="M957.249 378.293c-21.224 181.426-200.365 312.582-422.585 312.582-21.015 0-42.324-1.177-63.857-3.594-249.372-27.92-427.303-211.508-404.070-410.090 12.297-104.99 74.513-193.108 172.33-248.754 17.155-36.22 15.568-64.224-45.835-116.009-14.542-10.979 7.932-27.305 49.835-27.305 47.603 0 105.356 13.35 180.964 83.637 22.069-2.724 44.656 5.475 67.622 5.475 20.832 0 41.959 1.137 63.324 3.554 249.387 27.935 425.49 201.922 402.272 400.504zM848.173 178.868c-66.848-84.2-175.992-142.247-299.501-156.075-18.936-2.105-38.126-3.187-57.022-3.187-20.314 0-40.752-0.576-60.742 1.883l-27.866 3.41-19.597-16.522c-32.146-32.975-78.838-62.159-104.387-73.18 13.055 30.337 36.667 78.668 16.902 120.404l-13.35 13.321-15.54 8.872c-86.574 49.247-134.246 122.397-144.030 206.008-7.818 66.864 7.511 133.528 54.553 192.783 66.863 84.242 176.022 140.478 299.502 154.291 19.161 2.148 38.521 3.245 57.569 3.245 195.394 0 348.76-112.84 366.281-262.428 7.818-66.876-5.702-133.545-52.771-192.826zM304.202 354.145c-23.472 0-42.52-19.063-42.52-42.549 0-23.513 19.049-42.577 42.52-42.577s42.521 19.065 42.521 42.577c-0 23.486-19.050 42.549-42.521 42.549zM521.398 354.145c-23.472 0-42.506-19.063-42.506-42.549 0-23.513 19.036-42.577 42.506-42.577 23.431 0 42.48 19.065 42.48 42.577 0 23.486-19.048 42.549-42.48 42.549zM738.368 354.145c-23.472 0-42.52-19.063-42.52-42.549 0-23.513 19.049-42.577 42.52-42.577s42.523 19.065 42.523 42.577c0 23.486-19.051 42.549-42.523 42.549z"  horiz-adv-x="1024" />

    
    <glyph glyph-name="horn" unicode="&#58918;" d="M547.84 648.615c-5.256 2.458-30.34 4.371-41.416-5.35l-223.75-185.432h-178.539c-10.266 0-20.163-4.014-27.438-11.277-7.317-7.288-11.48-17.172-11.48-27.493l-0.519-260.238c0-10.348 3.755-20.256 11.111-27.575 7.277-7.343 17.201-11.441 27.534-11.441h180.463l222.617-185.457c7.111-5.897 15.998-8.955 24.898-8.955 5.611 0 11.248 1.2 16.477 3.657 13.638 6.39 22.413 20.122 22.413 35.193l0 649.177c0.030 15.015-8.693 28.747-22.372 35.192zM514.273 0.583l-194.662 164.957-15.561 10.157h-183.385l0.45 225.92h181.678l211.48 175.469 0-576.503zM819.49 588.388v-78.411c52.038-59.11 83.885-136.373 83.885-221.090 0-84.745-31.846-162.008-83.885-221.087v-78.411c85.413 71.747 139.812 179.207 139.812 299.497 0 120.239-54.399 227.75-139.812 299.501zM675.133 482.319v-68.797c34.237-30.717 55.927-75.161 55.927-124.634 0-49.47-21.69-93.918-55.927-124.659v-68.745c66.793 38.659 111.856 110.68 111.856 193.404 0 82.723-45.062 154.748-111.856 193.431z"  horiz-adv-x="1024" />

    
    <glyph glyph-name="arrow-3" unicode="&#58919;" d="M854.624 426.624l-319.616 319.616c0 0-7.008 9.76-22.752 9.76s-22.88-9.376-22.88-9.376l-320-320c-12.512-12.48-12.512-32.736 0-45.248 12.48-12.512 32.736-12.512 45.248 0l265.888 265.888v-819.488c0-17.536 14.208-31.744 31.744-31.744s31.744 14.208 31.744 31.744v819.008l265.376-265.376c12.48-12.512 32.736-12.512 45.248 0 12.512 12.48 12.512 32.768 0 45.216z"  horiz-adv-x="1024" />

    
    <glyph glyph-name="safe" unicode="&#58920;" d="M862.524 608.214c-3.040 0.715-65.78 12.997-95.585 21.967-4.629 1.41-235.271 101.011-235.271 101.011-26.775 8.931-52.065 1.574-67.381-5.64l-174.766-78.040c-13.116-6.252-44.135-14.469-52.689-17.984l-79.759-21.252c-48.072-20.025-63.422-40.746-63.218-85.091v-334.354c0-122.326 360.604-333.152 364.257-335.055 16.362-8.542 34.967-13.078 53.767-13.078 18.924 0 37.586 4.577 53.996 13.2 3.652 1.902 364.269 213.67 364.269 334.932v334.354c0 43.998-12.163 74.345-67.621 85.032zM883.672 188.83c0-64.127-198.070-223.273-341.056-298.374-18.641-9.789-42.625-9.831-61.355-0.060-142.942 74.711-340.944 233.654-340.944 298.434v334.436c-0.114 24.441 1.407 32.144 36.387 46.735l79.646 21.192c9.825 4.046 42.169 14.079 59.097 21.293l169.899 75.404c8.44 3.963 14.263 5.679 19.458 5.679 2.927 0 17.437-2.758 27.477-8.418l167.347-73.993c6.603-3.722 46.267-17.84 51.247-20.089 15.339-6.867 89.153-20.518 90.866-20.641 38.064-1.451 41.934-18.882 41.934-47.246l-0-334.353zM682.291 402.208l-242.911-180.987-96.31 98.656c-8.655 8.542-23.43 9.095-32.822 1.246-9.405-7.866-10.018-21.293-1.362-29.833l110.806-113.506c0.011-0.011 0.019-0.021 0.029-0.032 8.645-8.542 23.416-9.113 32.822-1.245l261.207 194.621c9.405 7.868 10.018 21.294 1.362 29.836-8.646 8.563-23.418 9.095-32.822 1.245z"  horiz-adv-x="1024" />

    
    <glyph glyph-name="note" unicode="&#58921;" d="M842.497 714.347h-660.984c-64.405 0-116.816-49.525-116.817-110.367l-0-631.922c0-60.882 52.412-110.407 116.817-110.407h660.984c64.405 0 116.806 49.523 116.806 110.407l0 631.922c0 60.842-52.402 110.367-116.806 110.367zM912.583-27.942c0-36.539-31.438-66.25-70.085-66.25l-660.984 0c-38.647 0-70.085 29.711-70.085 66.25l-0 631.922c0 36.518 31.438 66.211 70.085 66.211h660.984c38.647 0 70.085-29.694 70.085-66.211l0-631.922zM227.199 516.827h567.165v-44.476h-567.165v44.476zM227.199 385.604h567.165v-44.496h-567.165v44.496zM227.199 254.572h331.004v-44.474h-331.004v44.474zM629.496 254.572h164.193v-44.474h-164.193v44.474z"  horiz-adv-x="1024" />

    
    <glyph glyph-name="right-2" unicode="&#58922;" d="M942.412 735.302c-309.591-163.371-505.936-653.456-505.936-653.456l-120.822 241.152-249.166-155.589c105.722-38.889 256.743-163.344 385.089-326.712 90.622 171.153 370.015 521.217 505.936 552.325-52.874 124.479-22.65 225.583-15.101 342.281z"  horiz-adv-x="1024" />

    
    <glyph glyph-name="question" unicode="&#58923;" d="M423.046 387.789c0 72.099 30.371 96.489 91.126 96.489 26.939 0 47.492-7.646 61.652-22.909 14.149-15.314 21.248-32.858 21.248-52.711 0-19.85-3.096-34.801-9.259-44.823-6.164-10.047-19.984-26.136-41.449-48.245-21.476-22.156-36.306-38.927-44.531-50.306-8.214-11.431-13.677-22.571-14.683-51.837-0.546-15.822 0-24.148 0-49.7l50.308 0.243c-0.462 21.89 1.249 39.338 5.144 52.344 3.87 13.008 9.586 24.196 17.12 33.538 7.535 9.345 22.836 25.093 45.901 47.225 23.066 22.132 38.139 40.601 45.223 55.428 7.075 14.827 10.618 31.378 10.618 49.627 0 40.601-13.821 73.118-41.449 97.533-27.643 24.388-62.282 34.656-103.794 36.62-89.512 4.232-155.803-66.018-153.457-148.52h60.283zM487.515 113.83h49.626v-74.065h-49.626v74.065zM511.999 735.303c-247.033 0-447.303-200.256-447.303-447.303s200.27-447.304 447.303-447.304c247.034 0 447.303 200.256 447.303 447.303s-200.268 447.304-447.303 447.304zM511.999-109.603c-219.586 0-397.603 178.003-397.603 397.603s178.017 397.603 397.603 397.603 397.603-178.003 397.603-397.603-178.017-397.603-397.603-397.603z"  horiz-adv-x="1024" />

    
    <glyph glyph-name="list" unicode="&#58924;" d="M300.234 452.794h423.785v-47.498h-423.785v47.498zM300.234 311.747h306.074v-47.497h-306.074v47.497zM300.234 170.725h211.904v-47.522h-211.904v47.522zM512.023 735.303c-247.056 0-447.327-200.249-447.327-447.304 0-247.031 200.271-447.303 447.327-447.303 247.009 0 447.28 200.271 447.28 447.303 0 247.055-200.271 447.304-447.28 447.304zM512.001-112.196c-221.054 0-400.265 179.21-400.265 400.263 0 221.055 179.212 400.264 400.265 400.264 221.053 0 400.287-179.21 400.287-400.264-0-221.053-179.234-400.263-400.287-400.263z"  horiz-adv-x="1024" />

    
    <glyph glyph-name="chard" unicode="&#58925;" d="M894.627 735.299c-0.971 0-123.361 0.005-123.361 0.005-2.356 0-4.258-7.144-4.258-15.99 0-8.814 1.902-15.961 4.258-15.961l69.298 0-218.894-229.949-196.232 166.782c-5.744 5.075-16.015 6.543-23.566-1.028l-267.84-236.415c-6.248-6.24-6.248-16.349 0-22.59 6.232-6.24 16.326-6.24 22.558 0l257.859 227.604 193.725-164.646c9.619-7.915 19.215-8.48 28.832 0.116l225.711 237.111v-68.561c0-2.37 7.146-4.275 15.961-4.275s15.961 1.904 15.961 4.26c-0.001 0.001 0.042 122.755-0.011 123.538zM177.45 96.298c-8.822 0-15.953-6.179-15.953-13.836v-227.927c0-7.66 7.131-13.838 15.953-13.838 8.814 0 15.951 6.178 15.951 13.838v227.927c0 7.657-7.138 13.836-15.951 13.836zM512.093 192.134c-8.823 0-15.961-6.207-15.961-13.883v-323.669c0-7.676 7.138-13.885 15.961-13.885 8.814 0 15.958 6.209 15.958 13.885l-0 323.668c0 7.676-7.144 13.884-15.958 13.884zM846.727 335.911c-8.814 0-15.961-8.080-15.961-18.064v-459.083c0-10 7.146-18.066 15.961-18.066s15.961 8.067 15.961 18.066l-0 459.082c0 9.984-7.147 18.065-15.961 18.065z"  horiz-adv-x="1024" />

    
    <glyph glyph-name="pan" unicode="&#58926;" d="M959.303 431.836l-207.463 247.358-551.937-462.891-135.207-319.497 342.601 72.081 552.006 462.949zM118.402-58.524l108.229 232.902 143.392-170.98-251.621-61.921zM407.762 21.945l-155.592 185.525 370.774 310.962 155.589-185.524-370.771-310.963zM653.906 544.391l92.909 77.922 155.591-185.532-92.909-77.914-155.591 185.524zM389.031 137.906l278.54 233.613-25.932 30.916-278.541-233.603z"  horiz-adv-x="1024" />

    
    <glyph glyph-name="USD" unicode="&#58927;" d="M736.474 470.962c-122.888 0-222.866-100.316-222.866-223.62 0-123.306 99.977-223.621 222.866-223.621 122.87 0 222.828 100.315 222.828 223.621 0.001 123.304-99.959 223.62-222.828 223.62zM736.474 64.379c-100.554 0-182.346 82.069-182.346 182.962 0 100.891 81.793 182.963 182.346 182.963 100.535 0 182.328-82.072 182.328-182.963 0-100.893-81.793-182.962-182.328-182.962zM712.969-15.867v-21.399c0-33.631-27.257-60.988-60.769-60.988h-486.214c-33.51 0-60.788 27.356-60.788 60.988l0 650.534c0 33.631 27.278 60.988 60.788 60.988h486.214c33.512 0 60.769-27.356 60.769-60.988v-102.72c7.027 0.558 14.056 1.073 21.203 1.073 6.51 0 12.905-0.516 19.336-0.992v102.638c0 56.044-45.462 101.646-101.309 101.646h-486.214c-55.865 0-101.289-45.602-101.289-101.646v-650.534c0-56.046 45.424-101.646 101.289-101.646h486.214c55.847 0 101.309 45.602 101.309 101.646v21.322c-6.433-0.478-12.826-0.994-19.336-0.994-7.147 0-14.176 0.516-21.203 1.071zM186.911 531.95h365.946v-41.015h-365.946v41.015zM186.911 410.154h284.63v-41.016h-284.63v41.016zM186.911 288.357h203.313v-41.015h-203.313v41.015zM761.847 266.558c-50.824 13.101-60.432 15.088-60.432 30.771 0 17.075 16.439 23.069 30.634 23.069 21.301 0 38.613-6.274 40.003-30.771h43.16c0 39.616-27.629 58.997-61.663 64.106v32.1h-40.539v-32.905c-29.144-6.226-54.754-25.698-54.754-59.311 0-38.156 30.376-49.83 60.471-57.811 29.779-7.961 60.155-11.674 60.155-33.612 0-20.766-23.844-25.331-39.448-25.331-23.842 0-44.848 10.541-44.848 37.6h-43.139c-0.452-40.706 27.153-63.006 61.563-69.951v-32.27h40.539v30.721c44.802 4.883 68.452 30.825 68.452 64.373-0 46.117-45.383 55.529-60.153 59.221z"  horiz-adv-x="1024" />

    
    <glyph glyph-name="arrow-4" unicode="&#58928;" d="M950.817 399.276l-877.634 336.026 323.382-894.605 195.829 343.172 240.66-227.3 36.358 30.794-241.54 228.141 322.945 183.771zM405.453-53.439l-243.436 695.566 675.855-242.618-268.046-160.033-164.373-292.916z"  horiz-adv-x="1024" />

    
    <glyph glyph-name="card-2" unicode="&#58929;" d="M904.531 564.249h-785.062c-30.202 0-54.771-23.234-54.771-51.797v-448.906c0-28.563 24.571-51.797 54.771-51.797h785.062c30.203 0 54.771 23.234 54.771 51.797l-0 448.906c0 28.563-24.57 51.797-54.771 51.797zM101.211 425.957h821.576v-34.532h-821.576l-0 34.532zM119.469 529.718h785.062c10.055 0 18.257-7.739 18.257-17.265v-51.966h-821.576v51.966c-0.001 9.526 8.183 17.265 18.257 17.265zM904.531 46.281h-785.062c-10.073 0-18.258 7.756-18.258 17.265l-0 293.347h821.576v-293.346c0.001-9.51-8.201-17.266-18.256-17.266zM721.834 287.999c-19.845 0-39.035-6.272-54.777-17.585-15.738 11.313-34.937 17.585-54.766 17.585-50.333 0-91.286-38.729-91.286-86.327 0-47.6 40.954-86.328 91.286-86.328 19.841 0 39.028 6.269 54.768 17.586 15.736-11.317 34.935-17.586 54.775-17.586 50.332 0 91.286 38.729 91.286 86.328-0 47.599-40.955 86.327-91.286 86.327zM612.291 149.876c-30.204 0-54.771 23.234-54.771 51.797 0 28.562 24.569 51.796 54.771 51.796 11.071 0 21.572-3.135 30.523-9.020-23.125-28.055-8.175-77.682 0-85.569-8.951-5.868-19.452-9.003-30.523-9.003zM721.834 149.876c-15.779 0-30.345 6.373-41.026 17.906-6.276 6.795-13.745 18.176-13.745 33.891 0 15.713 7.469 27.096 13.745 33.89l0.312 0.337c10.666 11.315 25.093 17.569 40.714 17.569 30.203 0 54.771-23.234 54.771-51.796-0-28.563-24.57-51.797-54.771-51.797z"  horiz-adv-x="1024" />

    
    <glyph glyph-name="stars" unicode="&#58930;" d="M511.972 705.529c15.404 0 29.441-8.33 35.781-21.258l115.505-234.968 265.399-38.701c14.413-2.081 26.688-11.779 31.246-24.693 3.56-10.149 3.145-17.022-8.817-28.713l-194.208-190.081 2.731-15.39 42.383-239.147c2.33-13.571-3.705-27.067-15.565-35.075-6.894-4.601-14.917-7.032-23.222-7.032-6.734 0-13.512 1.674-19.417 4.746l-231.802 122.304-231.563-122.217c-6.071-3.16-12.869-4.834-19.647-4.834-8.285 0-16.316 2.431-23.034 6.917-12.048 8.138-18.084 21.62-15.769 35.016l45.143 254.712-11.203 10.979-183.026 179.146c-11.939 11.633-12.346 18.505-8.809 28.653 4.558 12.931 16.817 22.627 31.283 24.723l265.383 38.687 115.438 234.91c6.399 12.958 20.444 21.317 35.789 21.317M511.972 735.303c-26.827 0-51.266-14.792-62.717-37.971l-108.531-220.846-249.718-36.413c-25.647-3.714-46.985-20.924-55.226-44.364-8.249-23.529-2.038-42.063 16.103-59.725l182.976-179.101-42.42-239.308c-4.317-25.072 6.734-50.13 28.42-64.806 11.933-7.95 25.902-12.070 39.916-12.070 11.494 0 23.078 2.781 33.545 8.211l217.666 114.892 217.729-114.892c10.468-5.431 22.008-8.211 33.49-8.211 14.029 0 27.998 4.12 39.93 12.070 21.686 14.676 32.716 39.734 28.42 64.806l-42.42 239.308 183.005 179.101c18.097 17.691 24.336 36.196 16.080 59.725-8.261 23.441-29.607 40.665-55.262 44.364l-249.704 36.413-108.558 220.845c-11.351 23.179-35.84 37.972-62.725 37.972v0z"  horiz-adv-x="1024" />

    
    <glyph glyph-name="honor" unicode="&#58931;" d="M845.79 735.304h-667.581c-62.861 0-113.986-51.955-113.986-115.827v-662.954c0-63.872 51.125-115.827 113.986-115.827h667.581c62.839 0 113.986 51.955 113.986 115.827v662.953c0 63.872-51.146 115.828-113.986 115.828zM914.174-43.476c0-38.333-30.679-69.506-68.383-69.506l-667.582-0c-37.725 0-68.381 31.173-68.381 69.506v662.953c0 38.333 30.656 69.506 68.381 69.506h667.581c37.704 0 68.383-31.173 68.383-69.506l-0-662.953zM419.952 299.357v-182.335l91.925 50.23 91.926-50.23v182.335c41.674 29.070 68.943 77.357 68.943 132.025 0 88.85-72.018 160.868-160.869 160.868-88.85 0-160.868-72.018-160.868-160.868 0-54.668 27.269-102.955 68.943-132.025zM559.779 188.055l-47.824 37.51-46.040-36.049v87.669c14.565-4.334 29.989-6.673 45.962-6.673 16.122 0 31.685 2.381 46.368 6.795l1.534-89.252zM511.854 552.056c66.633 0 120.651-54.019 120.651-120.651 0-66.634-54.018-120.652-120.651-120.652s-120.652 54.018-120.652 120.652c-0 66.632 54.019 120.651 120.652 120.651zM305.046 45.62h413.662v-45.963h-413.662v45.963z"  horiz-adv-x="1024" />

    
    <glyph glyph-name="money-1" unicode="&#58932;" d="M511.999 287.869c74.126 0 134.227 60.101 134.227 134.227s-60.101 134.227-134.227 134.227c-74.126 0-134.227-60.101-134.227-134.227s60.102-134.227 134.227-134.227zM511.999 511.581c49.418 0 89.485-40.068 89.485-89.485s-40.068-89.485-89.485-89.485-89.485 40.068-89.485 89.485 40.068 89.485 89.485 89.485zM959.304 567.815c0 67.814-49.886 122.998-111.080 122.998h-672.688c-61.171 0-110.841-55.185-110.841-122.998v-569.898c0-62.154 49.887-112.73 111.080-112.73h672.689c61.17 0 110.84 50.576 110.84 112.73v569.898zM195.991 200.044h-20.455c-34.777 0-63.414 29.719-66.327 67.441v52.563c44.13-25.211 76.49-68.59 86.782-120.004zM109.209 178.098c18.516-15.354 41.482-24.456 66.327-24.456h672.688c25.078 0 48.226 9.278 66.829 24.885v-46.382c0-37.292-29.887-67.639-66.589-67.639h-672.689c-36.724 0-66.566 30.345-66.566 67.639l-0 45.954zM823.037 200.044c15.486 45.616 48.826 82.927 91.756 103.604v-29.826c0-40.68-29.844-73.777-66.567-73.777l-25.189 0zM848.224 644.41c36.724 0 66.567-33.099 66.567-73.8v-29.747c-42.677 20.788-75.791 58.050-91.154 103.546l24.587-0zM108.946 570.611c0 40.701 29.887 73.8 66.59 73.8h19.809c-10.197-51.367-42.413-94.731-86.399-120.012l0 46.213zM108.946 474.144c68.955 29.976 119.861 93.66 131.882 170.266h536.165c18.587-70.273 70.462-126.89 137.799-152.031v-140.298c-67.598-24.979-119.725-81.646-138.427-152.037h-534.882c-12.141 76.738-63.317 140.47-132.537 170.277l0 103.823zM848.465-69.721h-672.689c-36.724 0-66.566 30.344-66.566 67.638v44.096c18.555-14.18 41.609-22.599 66.566-22.599h672.689c24.963 0 48.026 8.429 66.589 22.623v-44.121c0-37.293-29.887-67.638-66.589-67.638z"  horiz-adv-x="1024" />

    
    <glyph glyph-name="star-1" unicode="&#58933;" d="M236.284-159.205l276.126 211.995 276.57-212.095-106.728 341.96 276.907 206.225-342.106-0.677-105.468 347.102-104.686-347.006-342.059 0.729 277.393-206.32-105.949-341.913z"  horiz-adv-x="1024" />

    
    <glyph glyph-name="wifi" unicode="&#58934;" d="M1162.593103 245.268966c-114.758621 123.586207-269.241379 191.558621-434.317241 191.558621-165.075862 0-318.675862-67.972414-434.317241-191.558621-9.710345-10.593103-19.42069-22.068966-28.248276-32.662069L256 200.248276l143.889655-150.068966 12.358621 16.772414c7.944828 10.593103 16.772414 21.186207 25.6 30.896552 76.8 82.97931 180.082759 128.882759 290.427586 128.882759 110.344828 0 213.627586-45.903448 290.427586-128.882759 8.827586-9.710345 17.655172-20.303448 25.6-30.896552l12.358621-16.772414 143.889655 150.068966-9.710345 12.358621C1182.013793 223.2 1172.303448 234.675862 1162.593103 245.268966zM1059.310345 104.027586c-5.296552 6.17931-10.593103 12.358621-15.889655 17.655172-83.862069 90.924138-195.972414 140.358621-316.027586 140.358621s-232.165517-49.434483-316.027586-140.358621c-5.296552-5.296552-10.593103-11.475862-15.889655-17.655172L302.786207 202.013793c5.296552 6.17931 11.475862 12.358621 16.772414 18.537931C428.137931 337.075862 573.793103 401.517241 728.275862 401.517241c154.482759 0 300.137931-63.558621 407.834483-180.082759 6.17931-6.17931 11.475862-12.358621 16.772414-18.537931L1059.310345 104.027586zM1445.958621 479.2c-8.827586 10.593103-18.537931 21.186207-29.131034 31.77931C1234.096552 705.186207 989.572414 812 728.275862 812c-261.296552 0-505.82069-106.813793-688.551724-301.02069-9.710345-10.593103-19.42069-21.186207-29.131034-31.77931L0 466.841379l147.42069-153.6 12.358621 15.006897c9.710345 11.475862 18.537931 21.186207 27.365517 30.896552 143.889655 152.717241 335.448276 237.462069 540.248276 237.462069 204.8 0 396.358621-83.862069 540.248276-237.462069 8.827586-9.710345 18.537931-20.303448 27.365517-30.896552l12.358621-15.006897L1456.551724 466.841379 1445.958621 479.2zM1310.013793 365.324138c-5.296552 6.17931-10.593103 11.475862-15.889655 17.655172-150.951724 159.77931-351.337931 248.055172-565.848276 248.055172-214.510345 0-415.77931-88.275862-565.848276-248.055172-5.296552-5.296552-10.593103-11.475862-15.889655-17.655172L47.668966 467.724138c5.296552 6.17931 11.475862 12.358621 16.772414 18.537931C241.875862 673.406897 477.572414 776.689655 728.275862 776.689655c250.703448 0 486.4-103.282759 662.951724-290.427586 6.17931-6.17931 11.475862-12.358621 16.772414-18.537931L1310.013793 365.324138zM732.689655 70.482759c-77.682759 0-141.241379-63.558621-141.241379-141.241379s63.558621-141.241379 141.241379-141.241379c77.682759 0 141.241379 63.558621 141.241379 141.241379S810.372414 70.482759 732.689655 70.482759zM732.689655-176.689655c-58.262069 0-105.931034 47.668966-105.931034 105.931034 0 58.262069 47.668966 105.931034 105.931034 105.931034 58.262069 0 105.931034-47.668966 105.931034-105.931034C838.62069-129.02069 790.951724-176.689655 732.689655-176.689655z"  horiz-adv-x="1457" />

    
    <glyph glyph-name="weibiaoti2" unicode="&#58935;" d="M275.361345 433.378151l266.756303 0c9.465546 0 17.210084 7.744538 17.210084 17.210084 0 9.465546-7.744538 17.210084-17.210084 17.210084L275.361345 467.798319c-9.465546 0-17.210084-7.744538-17.210084-17.210084C258.151261 441.122689 265.895798 433.378151 275.361345 433.378151zM34.420168 261.277311 34.420168 725.94958c0 28.396639 23.233613 51.630252 51.630252 51.630252l808.87395 0c28.396639 0 51.630252-23.233613 51.630252-51.630252l0-3.442017 34.420168 0L980.97479 725.94958c0 47.327731-38.722689 86.05042-86.05042 86.05042L86.05042 812C38.722689 812 0 773.277311 0 725.94958l0-464.672269c0-47.327731 38.722689-86.05042 86.05042-86.05042l2.581513 0 0 34.420168L86.05042 209.647059C57.653782 209.647059 34.420168 232.880672 34.420168 261.277311zM998.184874 312.907563 275.361345 312.907563c-9.465546 0-17.210084-7.744538-17.210084-17.210084s7.744538-17.210084 17.210084-17.210084l722.823529 0c9.465546 0 17.210084 7.744538 17.210084 17.210084S1007.65042 312.907563 998.184874 312.907563zM1067.02521 682.92437 206.521008 682.92437c-47.327731 0-86.05042-38.722689-86.05042-86.05042l0-516.302521c0-47.327731 38.722689-86.05042 86.05042-86.05042l180.705882 0c0.860504-6.023529 2.581513-11.186555 3.442017-17.210084 2.581513-17.210084 4.302521-35.280672 4.302521-53.351261 0-31.838655-4.302521-62.816807-13.768067-92.07395-3.442017-12.047059-0.860504-26.67563 8.605042-34.420168 2.581513-1.721008 4.302521-3.442017 6.884034-5.163025 1.721008-0.860504 3.442017-1.721008 6.023529-2.581513 3.442017-0.860504 6.884034-1.721008 10.32605-1.721008 10.32605 0 19.791597 4.302521 26.67563 12.047059l197.915966 194.47395L1067.02521-5.478992c47.327731 0 86.05042 38.722689 86.05042 86.05042L1153.07563 596.87395C1153.07563 644.201681 1114.352941 682.92437 1067.02521 682.92437zM1118.655462 80.571429c0-28.396639-23.233613-51.630252-51.630252-51.630252L631.610084 28.941176l0-0.860504-2.581513 1.721008c0 0-0.860504 0-0.860504 0L415.623529-177.579832c0 0-0.860504-0.860504-0.860504-0.860504 9.465546 31.838655 14.628571 66.258824 14.628571 101.539496 0 29.257143-3.442017 58.514286-10.32605 85.189916 0.860504 4.302521-0.860504 8.605042-3.442017 12.047059-0.860504 2.581513-1.721008 5.163025-2.581513 6.884034L326.991597 27.220168l0 0L206.521008 27.220168c-28.396639 0-51.630252 23.233613-51.630252 51.630252L154.890756 596.87395c0 28.396639 23.233613 51.630252 51.630252 51.630252l860.504202 0c28.396639 0 51.630252-23.233613 51.630252-51.630252L1118.655462 80.571429z"  horiz-adv-x="1154" />

    
    <glyph glyph-name="arrow-top" unicode="&#58936;" d="M152.794 119.013l29.132-29.132 337.955 337.955 337.552-337.55 29.131 29.13-366.682 366.704z"  horiz-adv-x="1024" />

    
    <glyph glyph-name="arrow-right" unicode="&#58937;" d="M343.013 668.539l-29.132-29.132 337.955-337.955-337.55-337.552 29.13-29.131 366.704 366.682z"  horiz-adv-x="1024" />

    
    <glyph glyph-name="arrow-bottom" unicode="&#58938;" d="M892.539 456.987l-29.132 29.132-337.955-337.955-337.552 337.55-29.131-29.13 366.682-366.704z"  horiz-adv-x="1024" />

    
    <glyph glyph-name="iconnologin" unicode="&#58939;" d="M427.057826 308.67304c120.118872 0 217.848804 98.009296 217.848804 218.478138 0 120.473959-97.729933 218.479162-217.848804 218.479162-120.121941 0-217.846758-98.004179-217.846758-218.479162C209.210045 406.682336 306.935884 308.67304 427.057826 308.67304zM427.057826 726.205923c109.442707 0 198.482715-89.290718 198.482715-199.054744 0-109.759933-89.041031-199.054744-198.482715-199.054744s-198.482715 89.295835-198.482715 199.054744C228.574087 636.915204 317.615119 726.205923 427.057826 726.205923zM705.867088 215.124341c-98.766543 0-179.121743-80.586467-179.121743-179.641583s80.3552-179.632373 179.121743-179.632373 179.116626 80.577257 179.116626 179.632373S804.633631 215.124341 705.867088 215.124341zM705.867088-124.731337c-88.089356 0-159.75463 71.874029-159.75463 160.214095 0 88.345182 71.665275 160.218188 159.75463 160.218188 88.089356 0 159.755653-71.873006 159.755653-160.218188C865.622741-52.857308 793.957467-124.731337 705.867088-124.731337zM692.030951 241.964666c3.850705-3.263327 9.531083-3.037176 13.084006 0.548493l0.005117 0.005117c3.964292 3.997038 3.755538 10.59123-0.534166 14.23318-22.668302 19.234083-50.894185 29.715818-80.526092 29.715818l-358.904542 0c-69.553169 0-126.138988-57.501679-126.138988-128.192765l0-294.193663c0-5.363153 4.332683-9.711186 9.680486-9.711186s9.682533 4.348032 9.682533 9.711186L158.379305 158.274508c0 59.981153 47.899988 108.775511 106.774945 108.775511l358.904542 0C649.045908 267.050019 672.863383 258.200458 692.030951 241.964666zM817.197797 43.197471l-222.810821 0c-5.331431 0-9.687649-4.336776-9.687649-9.635461s4.356219-9.631368 9.687649-9.631368l222.810821 0c5.326314 0 9.687649 4.332683 9.687649 9.631368S822.524111 43.197471 817.197797 43.197471z"  horiz-adv-x="1024" />

    
    <glyph glyph-name="hasmessage" unicode="&#58940;" d="M512.000512 526.664084c31.428835 0 60.846871-5.944392 88.247968-17.832152 27.402121-11.885713 51.376162-28.105133 71.929288-48.656212 20.549032-20.551079 36.768452-44.629498 48.656212-72.231164 11.885713-27.602689 17.829082-57.118962 17.829082-88.549844 0-31.024628-5.941322-60.242096-17.829082-87.643194-11.88776-27.399051-28.107179-51.375139-48.656212-71.927241-20.553126-20.551079-44.527167-36.768452-71.929288-48.659282-27.399051-11.88469-56.819133-17.829082-88.247968-17.829082-31.430881 0-60.845847 5.944392-88.247968 17.829082-27.401097 11.89083-51.378209 28.108203-71.929288 48.659282-20.551079 20.552102-36.770498 44.526144-48.656212 71.927241-11.88776 27.401097-17.832152 56.615495-17.832152 87.643194 0 31.430881 5.944392 60.948178 17.832152 88.549844 11.885713 27.602689 28.105133 51.680085 48.656212 72.231164 20.551079 20.551079 44.52819 36.770498 71.929288 48.656212C451.154664 520.719693 480.570654 526.664084 512.000512 526.664084L512.000512 526.664084 512.000512 526.664084zM512.000512 526.664084"  horiz-adv-x="1024" />

    
    <glyph glyph-name="home" unicode="&#58892;" d="M989.867 322.133l-388.267 445.867c-21.333 21.333-49.067 32-78.933 32-29.867 0-59.733-12.8-78.933-34.133l-409.6-441.6c-25.6-27.733-34.133-64-19.2-96 17.067-40.533 64-68.267 117.333-68.267h4.267v-277.333c0-59.733 49.067-106.667 106.667-106.667h194.133v277.333c0 12.8 10.667 21.333 21.333 21.333h128c12.8 0 21.333-8.533 21.333-21.333v-277.333h172.8c59.733 0 106.667 46.933 106.667 106.667l0 277.333h4.267c53.333 0 100.267 25.6 117.333 68.267 14.933 32 6.4 68.267-19.2 93.867zM970.667 245.333c-8.533-21.333-36.267-42.667-78.933-42.667h-46.933v-320c0-36.267-29.867-64-64-64h-128l-0 234.667c0 36.267-29.867 64-64 64h-128c-36.267 0-64-27.733-64-64v-234.667h-149.333c-36.267 0-64 27.733-64 64l0 320h-51.2c-42.667 0-68.267 21.333-78.933 42.667-6.4 17.067-4.267 34.133 10.667 49.067l409.6 443.733c12.8 12.8 29.867 19.2 49.067 19.2s36.267-6.4 46.933-19.2l388.267-443.733c14.933-14.933 19.2-32 12.8-49.067z"  horiz-adv-x="1024" />

    
    <glyph glyph-name="home-fill" unicode="&#58893;" d="M1002.999 309.333l-411.733 462.933c-36.267 36.267-98.133 36.267-134.4 0l-435.2-462.933c-53.333-55.467-2.133-132.267 87.467-132.267h27.733v-311.467c0-49.067 40.533-89.6 91.733-89.6h181.333v266.667c0 23.467 21.333 44.8 44.8 44.8h136.533c25.6 0 44.8-19.2 44.8-44.8l0-266.667h160c49.067 0 91.733 40.533 91.733 89.6v311.467h27.733c89.6 0 140.8 78.933 87.467 132.267z"  horiz-adv-x="1025" />

    
    <glyph glyph-name="sjx" unicode="&#58951;" d="M1194.667 800l-1194.667-1024h2389.333z"  horiz-adv-x="2390" />

    
    <glyph glyph-name="box" unicode="&#58944;" d="M1184.492 800h-849.723l-334.769-364.308v-659.692h1516.308v659.692l-331.815 364.308zM354.462 740.923h807.385l275.692-305.231-472.615 0v-39.385c0-6.892-0.985-12.8-1.969-19.692-14.769-83.692-100.431-147.692-204.8-147.692-104.369 0-190.031 64-204.8 147.692-0.985 6.892-1.969 12.8-1.969 19.692v0 39.385l-472.615-0 275.692 305.231zM1457.231-164.923h-1398.154v541.538h434.215c11.815-116.185 126.031-206.769 264.862-206.769s253.046 90.585 264.862 206.769l434.215 0v-541.538z"  horiz-adv-x="1517" />

    
    <glyph glyph-name="search" unicode="&#58941;" d="M480.1 736.199c229.682 0 414.704-185.022 414.704-414.704s-185.022-414.704-414.704-414.704-414.704 185.022-414.704 414.704 185.022 414.704 414.704 414.704M480.1 800c-264.773 0-478.505-213.732-478.505-478.505s213.732-478.505 478.505-478.505 478.505 213.732 478.505 478.505-213.732 478.505-478.505 478.505v0zM837.383 2.492c-12.76-15.95-28.71-28.71-44.66-44.66l185.022-181.832 44.66 44.66-185.022 181.832z"  horiz-adv-x="1024" />

    
    <glyph glyph-name="pack" unicode="&#58942;" d="M629.459 185.6c15.059 0 30.118 12.047 30.118 30.118 0 15.059-12.047 30.118-30.118 30.118h-57.224l30.118 30.118c12.047 12.047 12.047 30.118 0 42.165-12.047 12.047-30.118 12.047-42.165 0l-51.2-54.212-51.2 51.2c-12.047 12.047-30.118 12.047-42.165 0-12.047-12.047-12.047-30.118 0-42.165l30.118-30.118h-57.224c-15.059 0-30.118-12.047-30.118-30.118 0-15.059 12.047-30.118 30.118-30.118h90.353v-57.224h-90.353c-15.059 0-30.118-12.047-30.118-27.106 0-15.059 12.047-27.106 30.118-27.106h90.353v-84.329c0-18.071 12.047-30.118 30.118-30.118 15.059 0 30.118 15.059 30.118 30.118v84.329h90.353c15.059 0 30.118 12.047 30.118 27.106 0 15.059-12.047 27.106-30.118 27.106h-90.353v57.224l90.353 0zM870.4 396.424c-51.2 63.247-111.435 102.4-150.588 129.506-12.047 9.035-30.118 21.082-36.141 27.106 6.024 6.024 18.071 15.059 24.094 24.094 33.129 27.106 75.294 63.247 75.294 123.482 0 30.118-18.071 69.271-102.4 90.353-48.188 9.035-105.412 9.035-144.565 9.035-9.035 0-18.071 0-24.094 0-3.012 0-3.012 0-3.012 0 0 0 0 0 0 0-6.024 0-15.059 0-24.094 0-39.153 0-96.376 0-144.565-12.047-84.329-18.071-102.4-60.235-102.4-90.353 0-60.235 42.165-96.376 75.294-123.482 6.024-6.024 18.071-15.059 24.094-21.082-9.035-9.035-24.094-18.071-36.141-27.106-39.153-27.106-102.4-66.259-150.588-129.506-63.247-78.306-93.365-168.659-93.365-271.059 0-108.424 45.176-198.776 129.506-259.012 78.306-57.224 189.741-87.341 322.259-90.353v0c0 0 0 0 3.012 0 0 0 0 0 3.012 0v0c132.518 3.012 243.953 33.129 322.259 90.353 84.329 60.235 129.506 150.588 129.506 259.012-6.024 102.4-36.141 192.753-96.376 271.059zM798.118-91.482c-69.271-51.2-168.659-78.306-289.129-78.306-120.471 3.012-219.859 27.106-289.129 78.306-69.271 51.2-105.412 126.494-105.412 216.847 0 210.824 135.529 301.176 219.859 355.388 39.153 27.106 63.247 42.165 63.247 66.259 0 27.106-21.082 45.176-45.176 66.259-33.129 24.094-60.235 48.188-60.235 84.329 0 21.082 33.129 30.118 60.235 36.141 33.129 6.024 75.294 12.047 132.518 12.047 9.035 0 18.071 0 24.094 0 0 0 0 0 0 0v0c0 0 0 0 0 0s3.012 0 3.012 0v0c0 0 0 0 0 0 6.024 0 15.059 0 24.094 0 57.224 0 99.388-3.012 132.518-12.047 27.106-6.024 60.235-18.071 60.235-36.141 0-36.141-27.106-60.235-57.224-84.329-24.094-21.082-45.176-39.153-45.176-66.259 0-24.094 24.094-42.165 63.247-66.259 81.318-54.212 219.859-144.565 219.859-355.388-3.012-93.365-39.153-165.647-111.435-216.847z"  horiz-adv-x="1024" />

    
    <glyph glyph-name="no-wifi" unicode="&#58943;" d="M1356.037 487.382c-170.152 170.142-405.206 275.382-664.837 275.382-259.631 0-494.685-105.239-664.837-275.382 0 0-26.326 26.326-26.326 26.326 176.882 176.882 421.246 286.292 691.163 286.292 269.917 0 514.281-109.41 691.163-286.292 0 0-26.326-26.326-26.326-26.326zM691.2 483.491c182.514 0 347.75-73.979 467.363-193.583 0 0-29.733-29.733-29.733-29.733-112.379 114.772-268.968 186.079-442.284 186.079-170.943 0-325.706-69.288-437.741-181.313 0 0-24.967 24.967-24.967 24.967 119.613 119.603 284.849 193.583 467.363 193.583zM691.2 185.6c63.767 0 123.662-16.496 175.746-45.363 0 0-18.032-32.582-18.032-32.582-46.732 25.907-100.492 40.709-157.715 40.709-89.972 0-171.427-36.464-230.391-95.427 0 0-26.326 26.326-26.326 26.326 65.694 65.704 156.458 106.338 256.717 106.338zM691.2-140.218c20.564 0 37.236-16.673 37.236-37.236 0-20.564-16.673-37.236-37.236-37.236-20.564 0-37.236 16.673-37.236 37.236 0 20.564 16.673 37.236 37.236 37.236zM1044.945 166.982c107.967 0 195.491-87.524 195.491-195.491 0-107.967-87.524-195.491-195.491-195.491-107.967 0-195.491 87.524-195.491 195.491 0 107.967 87.524 195.491 195.491 195.491zM961.164-99.398c0 0 12.893-12.893 12.893-12.893s70.889 70.889 70.889 70.889c0 0 70.889-70.889 70.889-70.889 0 0 12.893 12.893 12.893 12.893 0 0-70.889 70.889-70.889 70.889 0 0 70.889 70.889 70.889 70.889 0 0-12.893 12.893-12.893 12.893 0 0-70.889-70.889-70.889-70.889 0 0-70.889 70.889-70.889 70.889 0 0-12.893-12.893-12.893-12.893 0 0 70.889-70.889 70.889-70.889 0 0-70.889-70.889-70.889-70.889z"  horiz-adv-x="1388" />

    
    <glyph glyph-name="tv-fill" unicode="&#58895;" d="M926.522-17.33c0 0-352.54-180.262-352.54-180.262-40.374-20.653-83.864-20.653-124.261 0 0 0-352.54 180.262-352.54 180.262-46.902 23.974-74.334 68.807-74.334 121.509 0 0 0 378.561 0 378.561 0 52.702 27.432 97.535 74.334 121.509 0 0 352.54 180.262 352.54 180.262 40.397 20.653 83.887 20.653 124.261 0 0 0 352.54-180.262 352.54-180.262 46.925-23.974 74.357-68.807 74.357-121.509 0 0 0-378.561 0-378.561 0-52.702-27.432-97.535-74.357-121.509zM500.741 66.011c0-12.556 10.19-22.746 22.746-22.746 12.556 0 22.746 10.19 22.746 22.746 0 0 0 204.714 0 204.714 0 12.556-10.19 22.746-22.746 22.746-12.556 0-22.746-10.19-22.746-22.746 0 0 0-204.714 0-204.714zM296.027 66.011c0-12.556 10.19-22.746 22.746-22.746 12.556 0 22.746 10.19 22.746 22.746 0 0 0 181.968 0 181.968 0 12.556-10.19 22.746-22.746 22.746-12.556 0-22.746-10.19-22.746-22.746 0 0 0-181.968 0-181.968zM750.946 497.524c0 6.392-2.684 12.124-6.915 16.241-4.14 4.253-9.872 6.938-16.263 6.938 0 0-113.73 0-113.73 0-12.556 0-22.746-10.19-22.746-22.746 0-12.579 10.19-22.746 22.746-22.746 0 0 55.477 0 55.477 0-92.576-78.565-222.66-118.461-372.783-113.025 0 0-3.912 0.136-3.912 0.136-11.396 0.182-22.587-9.462-22.973-21.995-0.364-12.533 9.326-22.996 21.631-23.383 0 0 3.685-0.114 3.685-0.114 9.508-0.341 18.902-0.523 28.25-0.523 153.33 0 286.349 45.947 382.041 130.88 0 0 0-63.416 0-63.416 0-12.556 10.19-22.723 22.746-22.723 12.556 0 22.746 10.167 22.746 22.723 0 0 0 113.753 0 113.753zM750.946 316.216c0 12.556-10.19 22.746-22.746 22.746-12.556 0-22.746-10.19-22.746-22.746 0 0 0-250.205 0-250.205 0-12.556 10.19-22.746 22.746-22.746 12.556 0 22.746 10.19 22.746 22.746 0 0 0 250.205 0 250.205z"  horiz-adv-x="1024" />

    
    <glyph glyph-name="people-2-fill" unicode="&#58897;" d="M512-201.739c-270.47 0-489.739 219.27-489.739 489.739s219.27 489.739 489.739 489.739c270.47 0 489.739-219.27 489.739-489.739 0-270.47-219.27-489.739-489.739-489.739zM512 532.87c-86.061 0-155.826-69.766-155.826-155.826 0-86.061 69.766-155.826 155.826-155.826 86.061 0 155.826 69.766 155.826 155.826 0 86.061-69.766 155.826-155.826 155.826zM779.13 43.13c0 73.773-59.793 133.565-133.565 133.565 0 0-267.13 0-267.13 0-73.773 0-133.565-59.793-133.565-133.565 0 0 0-121.032 0-121.032 0 0 107.364-79.939 267.13-79.315 162.682 0.646 267.13 79.315 267.13 79.315 0 0 0 121.032 0 121.032z"  horiz-adv-x="1024" />

    
    <glyph glyph-name="people-2" unicode="&#58945;" d="M791.273-140.8c0 0 0 0 0 0s0 0-0.023-0.023c-80.337-52.433-176.151-83.177-279.249-83.177-103.121 0-198.912 30.743-279.273 83.2 0 0 0 0 0 0 0 0 0 0 0 0-140.009 91.369-232.727 249.135-232.727 428.8 0 282.764 229.236 512 512 512 282.764 0 512-229.236 512-512 0-179.665-92.719-337.431-232.727-428.8zM744.727-114.665c0 0 0 123.392 0 123.392 0 77.126-39.238 116.364-116.364 116.364 0 0-232.727 0-232.727 0-77.126 0-116.364-39.238-116.364-116.364 0 0 0-123.392 0-123.392 68.515-39.703 147.852-62.79 232.727-62.79 84.876 0 164.212 23.087 232.727 62.79zM512 753.455c-257.071 0-465.455-208.384-465.455-465.455 0-152.134 73.309-286.79 186.182-371.735 0 0 0 115.735 0 115.735 0 77.126 62.511 139.636 139.636 139.636 0 0 279.273 0 279.273 0 77.126 0 139.636-62.511 139.636-139.636 0 0 0-115.735 0-115.735 112.873 84.945 186.182 219.601 186.182 371.735 0 257.071-208.384 465.455-465.455 465.455zM512 218.182c-89.972 0-162.909 72.937-162.909 162.909 0 89.972 72.937 162.909 162.909 162.909 89.972 0 162.909-72.937 162.909-162.909 0-89.972-72.937-162.909-162.909-162.909zM512 497.455c-64.256 0-116.364-52.108-116.364-116.364 0-64.256 52.108-116.364 116.364-116.364 64.256 0 116.364 52.108 116.364 116.364 0 64.256-52.108 116.364-116.364 116.364z"  horiz-adv-x="1024" />

    
    <glyph glyph-name="tv" unicode="&#58946;" d="M926.522-17.33c0 0-352.54-180.262-352.54-180.262-40.374-20.653-83.864-20.653-124.261 0 0 0-352.54 180.262-352.54 180.262-46.902 23.997-74.334 68.807-74.334 121.509 0 0 0 378.561 0 378.561 0 52.702 27.432 97.535 74.334 121.509 0 0 352.54 180.262 352.54 180.262 40.397 20.653 83.887 20.653 124.261 0 0 0 352.54-180.262 352.54-180.262 46.925-23.974 74.357-68.807 74.357-121.509 0 0 0-378.561 0-378.561 0-52.702-27.432-97.512-74.357-121.509zM955.41 463.815c0 47.312-24.884 87.595-67.442 109.135 0 0-319.74 161.928-319.74 161.928-36.621 18.538-76.062 18.538-112.706 0 0 0-319.74-161.928-319.74-161.928-42.558-21.54-67.419-61.823-67.419-109.135 0 0 0-340.052 0-340.052 0-47.334 24.861-87.595 67.419-109.158 0 0 319.74-161.906 319.74-161.906 36.644-18.561 76.085-18.561 112.706 0 0 0 319.74 161.906 319.74 161.906 42.558 21.563 67.442 61.823 67.442 109.158 0 0 0 340.052 0 340.052zM728.2 43.265c-12.556 0-22.746 10.19-22.746 22.746 0 0 0 250.205 0 250.205 0 12.556 10.19 22.746 22.746 22.746 12.556 0 22.746-10.19 22.746-22.746 0 0 0-250.205 0-250.205 0-12.556-10.19-22.746-22.746-22.746zM728.2 361.049c-12.556 0-22.746 10.167-22.746 22.723 0 0 0 63.416 0 63.416-95.692-84.933-228.711-130.88-382.041-130.88-9.349 0-18.743 0.182-28.25 0.523 0 0-3.685 0.114-3.685 0.114-12.306 0.387-21.995 10.85-21.631 23.383 0.387 12.533 11.578 22.177 22.973 21.995 0 0 3.912-0.136 3.912-0.136 150.123-5.436 280.207 34.46 372.783 113.025 0 0-55.477 0-55.477 0-12.556 0-22.746 10.167-22.746 22.746 0 12.556 10.19 22.746 22.746 22.746 0 0 113.73 0 113.73 0 6.392 0 12.124-2.684 16.263-6.938 4.231-4.117 6.915-9.849 6.915-16.241 0 0 0-113.753 0-113.753 0-12.556-10.19-22.723-22.746-22.723zM318.773 270.724c12.556 0 22.746-10.19 22.746-22.746 0 0 0-181.968 0-181.968 0-12.556-10.19-22.746-22.746-22.746-12.556 0-22.746 10.19-22.746 22.746 0 0 0 181.968 0 181.968 0 12.556 10.19 22.746 22.746 22.746zM523.487 293.47c12.556 0 22.746-10.19 22.746-22.746 0 0 0-204.714 0-204.714 0-12.556-10.19-22.746-22.746-22.746-12.556 0-22.746 10.19-22.746 22.746 0 0 0 204.714 0 204.714 0 12.556 10.19 22.746 22.746 22.746z"  horiz-adv-x="1024" />

    
    <glyph glyph-name="wate" unicode="&#58952;" d="M853.333-224c0 0-341.333 0-341.333 0-282.752 0-512 229.248-512 512 0 282.752 229.248 512 512 512 0 0 341.333 0 341.333 0 282.752 0 512-229.248 512-512 0-282.752-229.248-512-512-512zM426.667 458.667c-94.251 0-170.667-76.416-170.667-170.667s76.416-170.667 170.667-170.667c94.251 0 170.667 76.416 170.667 170.667 0 94.251-76.416 170.667-170.667 170.667zM938.667 458.667c-94.251 0-170.667-76.416-170.667-170.667s76.416-170.667 170.667-170.667c94.251 0 170.667 76.416 170.667 170.667 0 94.251-76.416 170.667-170.667 170.667z"  horiz-adv-x="1366" />

    
    <glyph glyph-name="asseti" unicode="&#58894;" d="M1042.838 297.66c0 0-39.685 0-39.685 0s-442.851 0-442.851 0c0 0-38.642 0-38.642 0 0 0 0 38.642 0 38.642 0 0 0 422.545 0 422.545 0 0 0 39.685 0 39.685 0 0 0 1.468 0 1.468 0 0 38.642 0 38.642 0 0 0 0-0.483 0-0.483 257.855-5.004 466.654-207.891 481.55-463.215 0 0 1.468 0 1.468 0 0 0 0-38.642 0-38.642 0 0-0.483 0-0.483 0zM560.302 759.832c0 0 0-423.53 0-423.53s441.866 0 441.866 0c-14.819 233.395-205.921 418.546-441.866 423.53zM966.038 259.019c0 0 0 0 0 0s0 0 0 0 0-38.642 0-38.642c0 0-1.951 0-1.951 0-1.179-14.877-3.111-29.503-5.622-43.974-0.155-0.889-0.251-1.778-0.406-2.666-2.454-13.756-5.564-27.262-9.177-40.574-0.406-1.565-0.754-3.149-1.198-4.695-3.555-12.694-7.69-25.098-12.249-37.347-0.773-2.106-1.507-4.251-2.318-6.337-4.502-11.631-9.486-22.972-14.838-34.14-1.237-2.589-2.454-5.178-3.729-7.748-5.294-10.549-10.974-20.808-17.002-30.894-1.797-2.995-3.574-5.97-5.429-8.926-5.931-9.467-12.153-18.683-18.722-27.667-2.415-3.342-4.869-6.608-7.361-9.873-6.434-8.366-13.061-16.519-20.016-24.441-3.111-3.574-6.318-7.052-9.544-10.53-6.782-7.284-13.698-14.413-20.905-21.272-3.903-3.71-7.922-7.265-11.94-10.839-7.013-6.241-14.085-12.365-21.446-18.2-4.714-3.729-9.583-7.245-14.433-10.8-7.149-5.217-14.278-10.395-21.697-15.225-5.564-3.632-11.322-6.955-17.041-10.356-7.149-4.251-14.278-8.54-21.659-12.423-6.434-3.381-13.099-6.376-19.707-9.486-7.071-3.323-14.085-6.743-21.349-9.738-7.361-3.033-14.954-5.564-22.489-8.231-6.898-2.434-13.679-5.062-20.693-7.187-8.424-2.55-17.099-4.521-25.697-6.608-6.492-1.584-12.848-3.439-19.417-4.753-10.008-1.99-20.267-3.285-30.488-4.656-5.448-0.715-10.781-1.816-16.287-2.357-15.862-1.565-31.937-2.434-48.205-2.434-266.762 0-483.019 216.257-483.019 483.019 0 16.287 0.85 32.343 2.434 48.205 0.541 5.506 1.642 10.839 2.357 16.287 1.372 10.221 2.666 20.48 4.656 30.488 1.314 6.588 3.169 12.945 4.753 19.417 2.087 8.617 4.057 17.273 6.608 25.697 2.125 7.033 4.753 13.814 7.187 20.693 2.666 7.535 5.197 15.128 8.231 22.509 2.975 7.265 6.414 14.259 9.738 21.33 3.111 6.608 6.105 13.273 9.486 19.707 3.883 7.4 8.173 14.51 12.423 21.659 3.4 5.719 6.724 11.477 10.337 17.041 4.85 7.419 10.027 14.568 15.244 21.697 3.555 4.85 7.071 9.718 10.8 14.433 5.816 7.361 11.96 14.452 18.2 21.465 3.574 3.999 7.129 8.018 10.839 11.921 6.859 7.207 13.988 14.123 21.272 20.905 3.478 3.227 6.955 6.434 10.51 9.564 7.941 6.936 16.094 13.582 24.46 19.997 3.265 2.492 6.53 4.965 9.854 7.381 9.003 6.55 18.219 12.771 27.687 18.702 2.937 1.855 5.931 3.652 8.926 5.429 10.085 6.028 20.345 11.708 30.894 17.002 2.57 1.275 5.159 2.492 7.748 3.729 11.167 5.352 22.509 10.337 34.14 14.838 2.087 0.811 4.231 1.546 6.337 2.338 12.249 4.54 24.653 8.675 37.347 12.23 1.546 0.444 3.13 0.792 4.676 1.217 13.331 3.594 26.837 6.704 40.593 9.158 0.889 0.174 1.778 0.27 2.666 0.425 14.471 2.492 29.097 4.424 43.974 5.603 0 0 0 1.951 0 1.951 0 0 0 0 0 0 0 0 38.642 0 38.642 0 0 0 0 0 0 0 0 0 0 0 0 0 0 0 0-483.019 0-483.019 0 0 444.377 0 444.377 0 0 0 38.642 0 38.642 0z"  horiz-adv-x="1044" />

    
    <glyph glyph-name="firend" unicode="&#58896;" d="M512 800c-282.776 0-512-199.642-512-445.933s229.205-445.933 512-445.933c0 0 0-132.134 0-132.134 0 0 311.58 217.771 365.966 266.202 90.302 80.365 146.034 190.521 146.034 311.865 0 246.291-229.224 445.933-512 445.933 0 0 0 0 0 0zM765.080 285.497c-37.736 0-68.305 29.582-68.305 66.086 0 36.409 30.568 65.991 68.305 65.991 37.698 0 68.229-29.582 68.229-65.991 0-36.504-30.53-66.086-68.229-66.086 0 0 0 0 0 0zM509.99 285.497c-37.717 0-68.286 29.582-68.286 66.086 0 36.409 30.568 65.991 68.286 65.991 37.717 0 68.286-29.582 68.286-65.991 0-36.504-30.568-66.086-68.286-66.086 0 0 0 0 0 0zM252.928 285.497c-37.66 0-68.229 29.582-68.229 66.086 0 36.409 30.568 65.991 68.229 65.991 37.698 0 68.286-29.582 68.286-65.991 0-36.504-30.587-66.086-68.286-66.086 0 0 0 0 0 0z"  horiz-adv-x="1024" />

    
    <glyph glyph-name="mpack" unicode="&#58947;" d="M950.821 209.993c0-239.305-196.846-433.957-438.839-433.957-241.975 0-438.821 194.651-438.821 433.957 0 157.257 87.973 303.433 226.011 379.447-41.911 40.576-65.097 87.918-65.097 120.923 0 56.978 33.81 89.637 92.745 89.637 33.737 0 76.453-22.144 117.797-43.557 23.515-12.178 52.626-27.246 64.695-28.215 12.069 0.969 41.161 16.037 64.695 28.215 41.326 21.413 84.059 43.557 117.778 43.557 58.953 0 92.745-32.658 92.745-89.637 0-32.494-22.473-78.848-63.122-118.985 140.251-75.502 229.413-222.117 229.413-381.385zM402.286 141.714c-10.094 0-18.286-8.192-18.286-18.286 0-10.094 8.192-18.286 18.286-18.286 0 0 90.935 0 90.935 0 0 0 0-109.605 0-109.605 0 0 37.065-0.11 37.065-0.11 0 0 0 109.714 0 109.714 0 0 91.429 0 91.429 0 10.094 0 18.286 8.192 18.286 18.286 0 10.094-8.192 18.286-18.286 18.286 0 0-91.429 0-91.429 0 0 0 0 36.571 0 36.571 0 0 91.429 0 91.429 0 10.094 0 18.286 8.192 18.286 18.286 0 10.094-8.192 18.286-18.286 18.286 0 0-79.25 0-79.25 0 0 0 94.062 141.111 94.062 141.111 0 0-29.403 20.133-29.403 20.133 0 0-95.616-139.575-95.616-139.575 0 0-95.616 139.575-95.616 139.575 0 0-29.403-20.133-29.403-20.133 0 0 96.677-141.111 96.677-141.111 0 0-80.878 0-80.878 0-10.094 0-18.286-8.192-18.286-18.286 0-10.094 8.192-18.286 18.286-18.286 0 0 90.935 0 90.935 0 0 0 0-36.571 0-36.571 0 0-90.935 0-90.935 0zM505.509 508.489c0 0-5.138 0-5.138 0s2.67-0.987 2.67-0.987c0 0 2.469 0.987 2.469 0.987zM748.928 710.363c0 37.376-17.627 54.034-57.143 54.034-25.033 0-67.365-21.943-101.394-39.57-37.065-19.218-61.257-31.269-79.945-32.201 0 0 0-0.055 0-0.055-0.75 0-1.536 0-2.286 0 0 0 0 0.055 0 0.055-18.67 0.933-42.862 12.983-79.945 32.201-34.011 17.627-76.343 39.57-101.394 39.57-39.497 0-57.125-16.658-57.125-54.034 0-46.683 80.768-166.272 230.455-166.272 0 0 18.304 0 18.304 0 149.705 0 230.473 119.589 230.473 166.272z"  horiz-adv-x="1024" />

    
    <glyph glyph-name="jiaoyi" unicode="&#58948;" d="M801.569-224c0 0-560.519 0-560.519 0-71.438 0-129.341 58.722-129.341 131.146 0 0 0 743.107 0 743.107 0 72.425 57.903 131.128 129.341 131.128 0 0 214.090 0 373.35 0 0 0 0-204.8 0-204.8 0-61.701 50.008-111.709 111.709-111.709 0 0 204.8 0 204.8 0 0-213.979 0-557.726 0-557.726 0-72.425-57.903-131.146-129.341-131.146zM595.782 390.4c0 0-335.127 0-335.127 0s0-37.236 0-37.236c0 0 335.127 0 335.127 0 0 0 0 37.236 0 37.236zM707.491 204.218c0 0-446.836 0-446.836 0s0-37.236 0-37.236c0 0 446.836 0 446.836 0 0 0 0 37.236 0 37.236zM707.491 18.036c0 0-446.836 0-446.836 0s0-37.236 0-37.236c0 0 446.836 0 446.836 0 0 0 0 37.236 0 37.236zM651.636 585.481c0 0 0 194.914 0 194.914s274.488-278.286 274.488-278.286c0 0-190.222 0-190.222 0-56.823 0-84.266 27.052-84.266 83.372z"  horiz-adv-x="1024" />

    
    <glyph glyph-name="about" unicode="&#58949;" d="M512-224c-282.329 0-512 229.671-512 512 0 282.309 229.671 512 512 512 282.329 0 512-229.691 512-512 0-282.329-229.671-512-512-512zM472.615 33.063c0-11.422 17.605-20.716 39.385-20.716 21.721 0 39.385 9.295 39.385 20.716 0 0 0 352.433 0 352.433 0 11.441-17.664 20.697-39.385 20.697-21.78 0-39.385-9.255-39.385-20.697 0 0 0-352.433 0-352.433zM551.385 544c0 0-78.769 0-78.769 0s0-78.769 0-78.769c0 0 78.769 0 78.769 0 0 0 0 78.769 0 78.769z"  horiz-adv-x="1024" />

    
    <glyph glyph-name="safecenter" unicode="&#58950;" d="M516.58-222.771c0 0 0-1.21 0-1.21-1.303 0-2.96 0.223-4.58 0.428-1.62-0.205-3.277-0.428-4.58-0.428 0 0 0 1.21 0 1.21-80.97 16.328-442.256 214.463-442.256 371.395 0 0 0 504.534 0 504.534 0 8.397 5.604 15.751 13.684 17.967 0 0 432.798 128.875 432.798 128.875 0 0 0.354-71.81 0.354-71.81 0 0 0.335 71.81 0.335 71.81 0 0 432.817-128.875 432.817-128.875 8.080-2.216 13.684-9.57 13.684-17.967 0 0 0-504.534 0-504.534 0-156.933-361.286-355.067-442.256-371.395zM754.036 371.782c0 0-204.8 0.149-204.8 0.149s0 204.651 0 204.651c0 0-74.473 0-74.473 0 0 0 0-204.595 0-204.595 0 0-204.577 0.149-204.577 0.149 0 0 0-74.51 0-74.51 0 0 204.577-0.13 204.577-0.13 0 0 0-204.986 0-204.986 0 0 74.473 0 74.473 0 0 0 0 204.93 0 204.93 0 0 204.8-0.13 204.8-0.13 0 0 0 74.473 0 74.473z"  horiz-adv-x="1024" />

    
    <glyph glyph-name="fire" unicode="&#58953;" d="M886.272 184.307c0 0 0-48.559 0-48.559-0.728-2.371-1.617-4.716-2.102-7.141-5.039-25.681-7.869-52.035-15.468-76.935-22.528-73.539-64.728-134.818-123.85-184.832-45.649-38.616-96.984-66.452-155.675-80.141-19.294-4.5-39.074-7.168-58.664-10.698 0 0-49.206 0-49.206 0-2.398 0.728-4.851 1.832-7.303 1.994-51.955 3.18-101.214 16.546-147.402 39.828-87.336 43.87-150.312 109.218-179.092 203.21-6.117 20.076-8.677 41.122-12.935 61.763 0 0 0 46.349 0 46.349 1.859 11.372 3.476 22.878 5.632 34.25 9.324 49.745 31.717 93.777 61.386 134.44 27.998 38.265 57.721 75.318 84.264 114.526 28.699 42.577 42.577 89.816 34.439 141.635-1.59 10.213-3.099 20.453-4.689 30.639 1.078 0.269 2.129 0.458 3.18 0.755 64.054-66.21 74.483-147.483 65.347-235.331 2.344 2.479 4.285 4.204 5.794 6.171 54.353 72.542 77.716 152.657 59.985 242.419-11.237 57.101-35.624 108.409-75.938 151.067-17.489 18.486-38.696 33.603-58.206 50.284 0 0 20.157 0 20.157 0 1.644-0.674 3.207-1.805 4.877-1.994 35.463-2.991 68.743-13.797 100.46-28.968 72.542-34.654 131.341-85.854 180.52-148.318 72.327-91.917 119.35-193.886 128.647-311.269 3.584-44.84-1.078-88.387-13.177-131.368-4.554-16.276-11.021-32.040-16.95-48.936 23.471 9.863 41.31 24.899 55.107 44.436 41.041 58.341 52.547 123.419 43.224 195.368 3.045-3.476 4.581-4.851 5.659-6.548 24.711-38.589 43.251-79.71 52.898-124.416 3.827-17.704 6.063-35.813 9.081-53.679M499.281 269.864c-0.916-0.62-1.913-1.32-2.856-1.94-1.293-17.731-2.237-35.463-3.988-53.194-2.56-27.055-9.108-53.113-21.935-77.393-15.683-29.669-41.903-48.155-70.952-62.868-31.34-15.953-51.038-38.696-53.625-74.644-2.641-36.999 8.596-68.096 38.831-90.759 28.295-21.288 61.386-28.214 96.445-27.055 55.97 1.779 97.684 28.052 114.392 83.267 11.992 39.667 10.024 79.629 2.021 119.539-10.968 54.73-31.097 105.768-65.455 150.474-9.647 12.477-21.854 23.067-32.876 34.573z"  horiz-adv-x="1024" />

    
    <glyph glyph-name="people2" unicode="&#58977;" d="M1154.989-122.603c-4.843-3.404-11.402-5.314-18.321-5.314 0 0-555.368 0.332-555.368 0.332 0 0-555.423-0.332-555.423-0.332-6.864 0-13.423 1.91-18.321 5.314-4.843 3.432-7.555 8.081-7.555 12.925 0 343.787 293.805 390.531 581.245 390.891 287.467-0.36 581.328-47.104 581.328-390.891 0-4.843-2.712-9.493-7.583-12.925zM578.698 323.335c-157.059 0-284.838 128.415-284.838 286.277 0 157.89 127.779 286.36 284.838 286.36 157.032 0 284.81-128.47 284.81-286.36 0-157.862-127.779-286.277-284.81-286.277z"  horiz-adv-x="1163" />

    
    <glyph glyph-name="yaoqing" unicode="&#58954;" d="M512 800c-282.77 0-512-229.23-512-512 0-282.763 229.23-512 512-512 282.763 0 512 229.237 512 512 0 282.77-229.222 512-512 512 0 0 0 0 0 0zM166.4 245.336c0 57.395 37.712 144.165 117.701 170.555-23.406 21.65-38.071 56.554-38.071 90.821 0 55.369 40.251 100.264 89.9 100.264 28.687 0 54.221-15.009 70.685-38.349-42.825-21.189-72.704-68.981-72.704-124.592 0-46.563 19.917-94.018 51.705-123.443-76.478-25.242-124.518-91.114-146.278-155.114-44.054 12.749-72.938 37.53-72.938 79.857 0 0 0 0 0 0zM505.285-44.785c-126.303 0-228.696 30.713-228.696 123.641 0 77.385 50.469 194.099 157.447 230.934-32.329 29.36-52.626 77.283-52.626 124.292 0 75.257 54.704 136.251 122.163 136.251 67.489 0 122.185-60.994 122.185-136.251 0-46.57-19.931-94.011-51.741-123.443 108.705-35.877 159.963-153.783 159.963-231.782 0-92.928-102.378-123.641-228.696-123.641 0 0 0 0 0 0zM782.768 160.497c-21.76 64-69.793 129.872-146.286 155.121 31.803 29.425 51.705 76.88 51.705 123.436 0 55.611-29.879 103.409-72.697 124.592 16.457 23.347 41.991 38.349 70.678 38.349 49.649 0 89.893-44.88 89.893-100.257 0-34.26-14.658-69.179-38.064-90.829 79.982-26.39 117.687-113.159 117.687-170.547 0.022-42.335-28.862-67.116-72.916-79.865 0 0 0 0 0 0z"  horiz-adv-x="1024" />

    
    <glyph glyph-name="check-square" unicode="&#58998;" d="M229.294266 704.292793L229.294266 704.292793c-20.812001 0-37.586037-16.753569-37.586037-37.586037l0-565.41249c0-20.812001 16.753569-37.581943 37.586037-37.581943l565.411467 0c20.810978 0 37.581943 16.753569 37.581943 37.581943L832.287677 666.706757c0 20.809955-16.752546 37.586037-37.581943 37.586037L229.294266 704.292793 229.294266 704.292793zM222.670405 750.359992L222.670405 750.359992l578.659189 0c42.672892 0 77.030397-34.485419 77.030397-77.029374l0-578.660212c0-42.672892-34.489512-77.030397-77.030397-77.030397l-578.659189 0c-42.672892 0-77.030397 34.490535-77.030397 77.030397L145.640008 673.330618C145.640008 716.002486 180.125427 750.359992 222.670405 750.359992L222.670405 750.359992 222.670405 750.359992zM222.670405 750.359992"  horiz-adv-x="1024" />

    
    <glyph glyph-name="check-square-o" unicode="&#58999;" d="M794.038538 750.6516340000001L229.960439 750.6516340000001c-46.651506 0-84.613096-37.96159-84.613096-84.613096l0-564.078099c0-46.64639 37.96159-84.613096 84.613096-84.613096L794.038538 17.347343000000023c46.64639 0 84.613096 37.966707 84.613096 84.613096L878.651634 666.038538C878.651634 712.690044 840.684928 750.6516340000001 794.038538 750.6516340000001L794.038538 750.6516340000001zM701.69641 448.842821L475.871151 220.55958099999998c-0.056282-0.056282-0.171915-0.085958-0.228197-0.168846-0.081864-0.055259-0.081864-0.171915-0.168846-0.228197-1.807159-1.747807-4.031826-2.818185-6.119371-4.002151-1.045819-0.593518-1.889023-1.497097-2.991124-1.918699-3.382027-1.350764-6.967692-2.056845-10.54824-2.056845-3.611248 0-7.247054 0.706081-10.659781 2.113127-1.127683 0.483001-2.031263 1.437745-3.103688 2.031263-2.086521 1.182942-4.260024 2.228761-6.063089 4.007267-0.056282 0.055259-0.086981 0.167822-0.14224 0.224104-0.056282 0.085958-0.168846 0.085958-0.224104 0.167822L324.55691 334.870046c-10.861372 11.168364-10.608615 29.018917 0.563842 39.882336 11.167341 10.827603 28.992311 10.629081 39.876196-0.563842l91.015923-93.526093L661.621692 488.495936c10.940167 11.085476 28.821419 11.171434 39.877219 0.228197C712.528106 477.749174 712.64067 459.898621 701.69641 448.842821L701.69641 448.842821zM701.69641 448.842821"  horiz-adv-x="1024" />

    
    <glyph glyph-name="huodong2" unicode="&#58955;" d="M896.782 50.809c-25.813-151.117-161.135-274.809-391.854-274.809-238.206 0-363.877 149.446-388.028 281.175-27.175 148.094 45.017 271.679 134.125 348.942 77.621 67.14 126.232 139.196 126.232 139.196 0 0 253.43 0 253.43 0 0 0 46.534-68.84 133.091-141.341 73.631-61.691 164.565-168.612 133.004-353.164zM713.641 708.168c-27.89-17.775-40.477-36.729-55.228-56.61-14.974-19.91-39.521-45.066-39.521-45.066 0 0-232.554 0-232.554 0 0 0-28.527 28.971-43.984 51.355-15.389 22.412-35.386 39.55-53.721 52.62-18.326 13.322-30.198 40.506-9.883 57.006 20.403 16.606 57.305-11.728 80.654-6.917 20.557 4.289 25.977 16.21 50.688 31.918 19.446 12.162 49.094 7.516 60.406-5.294 11.477-12.752 32.198-24.875 32.198-24.875 0 0 6.695 0.792 24.064 17.601 17.534 16.693 33.309 26.431 62.638 15.35 29.329-10.936 33.473-35.821 63.121-35.338 30.053 0.551 40.641 21.659 66.628 11.438 29.88-11.795 17.852-48.524-5.506-63.189z"  horiz-adv-x="1024" />

    
    <glyph glyph-name="huodong1" unicode="&#58956;" d="M1232.98-36.535c0-47.355-34.283-85.671-91.011-84.637-28.463 0.136-26.248-0.554-52.297 0-45.422 0.961-42.454 28.494-57.271 84.637-36.425 138.334-190.474 319.404-225.583 340.323-92.672 55.16 24.931 18.516 24.931 195.992 0 45.558-10.386 102.787-29.080 141.302-14.555 30.166-26.603 57.992 29.080 56.268 110.749-3.521 200.579-88.513 200.579-197.569 0-68.42-35.255-128.679-88.931-164.164 10.459-2.414 21.128-4.901 32.967-8.004 147.257-42.663 256.616-217.6 256.616-364.147 0 0 0 0 0 0 0 0 0 0 0 0 0 0 0 0 0 0 0 0 0 0 0 0zM939.384-133.397c-0.345-45.275-19.947-90.425-97.102-90.363-173.714 0.209-660.888-0.616-744.97 0-94.26 0.7-97.311 46.947-97.311 90.363 0 209.241 143.224 396.664 335.423 450.644-84.553 45.025-126.945 128.888-126.945 225.959 0 141.573 117.112 256.794 261.172 256.794 143.924 0 261.047-115.21 261.047-256.794 0-97.071-46.477-180.935-131.041-225.959 192.408-53.979 341.797-243.325 339.728-450.644 0 0 0 0 0 0 0 0 0 0 0 0 0 0 0 0 0 0 0 0 0 0 0 0z"  horiz-adv-x="1233" />

    
    <glyph glyph-name="huodong21" unicode="&#58957;" d="M896.782 50.809c-25.813-151.117-161.135-274.809-391.854-274.809-238.206 0-363.877 149.446-388.028 281.175-27.175 148.094 45.017 271.679 134.125 348.942 77.621 67.14 126.232 139.196 126.232 139.196 0 0 253.43 0 253.43 0 0 0 46.534-68.84 133.091-141.341 73.631-61.691 164.565-168.612 133.004-353.164zM507.17 316.981c-106.709 0-193.208-86.499-193.208-193.208 0-106.709 86.499-193.208 193.208-193.208 106.709 0 193.208 86.499 193.208 193.208 0 106.709-86.499 193.208-193.208 193.208zM587.824 71.781c-0.821-40.999-19.736-64-63.169-69.023 0 0 0-23.842 0-23.842 0 0-29.793 0-29.793 0 0 0 0 23.842 0 23.842-39.347 3.362-59.904 28.025-68.086 74.037 0 0 38.11 11.293 38.11 11.293 5.729-30.111 13.563-47.268 29.976-51.442 0 0 0 75.283 0 75.283-43.452 13.37-61.537 36.391-60.715 69.014 1.633 39.308 19.717 61.479 60.715 66.502 0 0 0 21.33 0 21.33 0 0 29.793 0 29.793 0 0 0 0-21.33 0-21.33 35.231-5.023 53.335-27.194 60.715-66.502 0 0-36.883-12.549-36.883-12.549-4.917 24.257-10.723 38.052-23.832 41.404 0 0 0-63.99 0-63.99 45.066-13.389 63.981-38.072 63.169-74.027zM524.655 36.647c18.847 4.173 25.059 15.466 25.059 33.869 0 15.061-6.212 26.354-25.059 33.889 0 0 0-67.758 0-67.758zM494.862 211.055c-16.413-2.502-21.369-12.133-21.369-28.856-0.831-12.549 4.154-22.18 21.369-28.865 0 0 0 57.721 0 57.721zM713.641 708.168c-27.89-17.775-40.477-36.729-55.228-56.61-14.974-19.91-39.521-45.066-39.521-45.066 0 0-232.554 0-232.554 0 0 0-28.527 28.971-43.984 51.355-15.389 22.412-35.386 39.55-53.721 52.62-18.326 13.322-30.198 40.506-9.883 57.006 20.403 16.606 57.305-11.728 80.654-6.917 20.557 4.289 25.977 16.21 50.688 31.918 19.446 12.162 49.094 7.516 60.406-5.294 11.477-12.752 32.198-24.875 32.198-24.875 0 0 6.695 0.792 24.064 17.601 17.534 16.693 33.309 26.431 62.638 15.35 29.329-10.936 33.473-35.821 63.121-35.338 30.053 0.551 40.641 21.659 66.628 11.438 29.88-11.795 17.852-48.524-5.506-63.189z"  horiz-adv-x="1024" />

    
    <glyph glyph-name="nav-user" unicode="&#58960;" d="M933.856 5.703c0 0-54.99 2.754-54.99 2.754 0.354 7.092 0.546 14.266 0.546 21.495 0 9.082-0.273 18.138-0.847 27.085-8.592 135.755-82.43 255.879-193.089 317.469-41.869-39.495-98.059-63.881-159.95-63.881-61.808 0-117.943 24.33-159.786 63.744-111.015-61.617-184.744-180.924-193.281-317.661-0.546-8.839-0.818-17.756-0.818-26.757 0-12.219 0.518-24.277 1.526-36.17 0 0-54.825-4.664-54.825-4.664-1.146 13.42-1.719 27.059-1.719 40.833 0 10.175 0.3 20.239 0.928 30.223 9.465 151.711 90.12 284.903 212.238 356.993-24.030 36.823-38.106 80.711-38.106 127.899 0 129.263 104.905 234.441 233.841 234.441 128.935 0 233.841-105.178 233.841-234.441 0-47.188-14.101-91.076-38.133-127.899 121.761-72.092 202.691-205.937 212.238-356.611 0.626-10.092 0.955-20.321 0.955-30.605 0-8.155-0.19-16.23-0.574-24.249zM525.529 724.355c-98.604 0-178.825-80.438-178.825-179.288s80.22-179.288 178.825-179.288c98.604 0 178.825 80.438 178.825 179.288 0 98.85-80.22 179.288-178.825 179.288z"  horiz-adv-x="1060" />

    
    <glyph glyph-name="nav-logo" unicode="&#58961;" d="M717.363 572.401c0 0 46.167-46.196 46.167-46.196s-46.167-46.255-46.167-46.255c0 0-46.167 46.255-46.167 46.255 0 0 46.167 46.196 46.167 46.196zM454.318 408.038c0 0 0 58.923 0 58.923s119.103 0 119.103 0c-0.848 21.357-1.287 30.076-1.287 53.305 0 0 0 33.762 0 33.762 0 0 57.928 0 57.928 0 0 0 0-33.762 0-33.762 0-23.61 0.41-31.86 1.287-53.305 0 0 175.1 0 175.1 0 0 0 0-58.923 0-58.923 0 0-176.534 0-176.534 0 2.604-25.512 5.383-68.899 8.777-88.091 0 0 166.499 0 166.499 0 0 0 0-59.303 0-59.303 0 0-157.107 0-157.107 0 5.529-21.679 15.506-56.172 23.873-78.086 44.207 27.004 93.123 73.785 93.123 73.785 0 0 45.231-41.691 45.231-41.691 0 0-55.792-52.72-115.826-89.7 50.614-78.32 115.826-122.38 115.826-122.38 0 0-60.824-11.673-60.824-11.673 0 0-54.388 38.706-101.666 110.385-52.866-32.27-87.769-58.542-155.908-80.572 0 0-10.445-3.364-10.445-3.364 0 0-18.198 58.25-18.198 58.25 0 0 10.181 3.364 10.181 3.364 66.5 22.030 102.164 48.771 151.022 79.548-13.048 32.358-23.756 65.944-32.562 102.134 0 0-137.067 0-137.067 0 0 0 0 59.303 0 59.303 0 0 126.417 0 126.417 0-3.803 23.786-6.524 67.553-8.338 88.091 0 0-118.606 0-118.606 0zM426.553 408.038c0 0-199.734 0-199.734 0s44.792 136.657 44.792 136.657c0 0 33.411-19.134 33.411-19.134 0 0-19.222-59.42-19.222-59.42 0 0 140.753 0 140.753 0 0 0 0-58.103 0-58.103zM1008.377 425.972c-4.388-11.176-15.126-18.549-27.121-18.549 0 0-57.548 0-57.548 0 0 0 0-467.577 0-467.577 0-16.12-13.019-29.169-29.11-29.169 0 0-581.824 0-581.824 0-16.091 0-31.158 13.048-31.158 29.169 0 0.117 0.059 0.234 0.059 0.351 0 0-2.341 0-2.341 0 0 0 0 263.016 0 263.016 0 0-58.806 0-58.806 0 0 0 0 57.665 0 57.665 0 0 58.835 0 58.835 0 0 0-0.995 58.893-0.995 58.893 0 0-57.84 0-57.84 0 0 0 0 60.239 0 60.239 0 0 205.030 0 205.030 0 0 0 0-60.239 0-60.239 0 0-87.974 0-87.974 0 0 0 0.995-58.893 0.995-58.893 0 0 86.98 0 86.98 0 0 0 0-57.665 0-57.665 0 0-86.863 0-86.863 0 0 0 0-234.198 0-234.198 0 0 526.763 0 526.763 0 0 0-3.16 467.577-3.16 467.577 0 16.12 13.048 29.169 29.139 29.169 0 0 15.389 0 15.389 0 0 0-391.715 362.605-391.715 362.605 0 0-397.771-362.605-397.771-362.605 0 0 15.389 0 15.389 0 16.091 0 29.139-13.048 29.139-29.169 0 0 0-503.153 0-503.153 0-16.091-13.048-29.169-29.139-29.169-16.091 0-29.11 13.078-29.11 29.169 0 0 0 473.985 0 473.985 0 0-60.707 0-60.707 0-11.995 0-22.762 7.373-27.121 18.549-4.359 11.176-1.434 23.903 7.373 32.036 0 0 471.088 430.246 471.088 430.246 5.91 5.471 13.517 8.016 20.977 7.724 7.49 0.293 15.067-2.253 21.006-7.724 0 0 464.769-430.246 464.769-430.246 8.806-8.133 11.732-20.86 7.373-32.036z"  horiz-adv-x="1024" />

    
    <glyph glyph-name="dowload" unicode="&#58962;" d="M511.943-128c-282.709 0-511.943 229.177-511.943 511.972 0 282.709 229.234 512.028 511.943 512.028 282.823 0 512.057-229.319 512.057-512.028 0-282.795-229.234-511.972-512.057-511.972zM511.943 842.012c-253.013 0-458.098-205.056-458.098-458.041 0-252.956 205.084-458.012 458.098-458.012 252.985 0 458.212 205.056 458.212 458.012 0 252.985-205.227 458.041-458.212 458.041zM538.425 107.577c-7.481-7.452-18.005-9.444-27.506-6.798-9.216-2.105-19.2-0.085-26.368 7.111 0 0-201.131 201.131-201.131 201.131-11.122 11.122-11.122 29.127 0 40.22 11.093 11.122 29.127 11.122 40.22 0 0 0 159.915-159.915 159.915-159.915 0 0 0 422.229 0 422.229 0 15.701 12.743 28.444 28.444 28.444 15.701 0 28.444-12.743 28.444-28.444 0 0 0-422.059 0-422.059 0 0 157.781 157.781 157.781 157.781 11.036 11.036 28.9 11.036 39.936 0 11.036-11.036 11.036-28.9 0-39.936 0 0-199.737-199.765-199.737-199.765z"  horiz-adv-x="1024" />

    
    <glyph glyph-name="eczr" unicode="&#58963;" d="M511.943-128c-282.709 0-511.943 229.177-511.943 511.972 0 282.709 229.234 512.028 511.943 512.028 282.823 0 512.057-229.319 512.057-512.028 0-282.795-229.234-511.972-512.057-511.972zM511.943 842.012c-253.013 0-458.098-205.056-458.098-458.041 0-252.956 205.084-458.012 458.098-458.012 252.985 0 458.212 205.056 458.212 458.012 0 252.985-205.227 458.041-458.212 458.041zM766.805 270.308c0 0-444.359 0-444.359 0s110.507-114.574 110.507-114.574c10.724-11.093 10.468-28.9-0.54-39.68-5.404-5.319-12.402-7.936-19.399-7.936-7.253 0-14.478 2.844-19.94 8.476 0 0-156.444 162.219-156.444 162.219-7.794 8.078-10.012 20.082-5.689 30.492 4.352 10.382 14.421 17.124 25.628 17.124 0 0 510.236 0 510.236 0 15.36 0 27.79-12.572 27.79-28.046 0-15.502-12.43-28.075-27.79-28.075zM766.805 412.53c0 0-510.236 0-510.236 0-15.388 0-27.819 12.572-27.819 28.046 0 15.502 12.43 28.075 27.819 28.075 0 0 444.359 0 444.359 0 0 0-110.535 114.574-110.535 114.574-10.695 11.093-10.439 28.871 0.54 39.68 11.036 10.809 28.644 10.553 39.339-0.54 0 0 156.444-162.219 156.444-162.219 7.822-8.078 10.041-20.082 5.689-30.492-4.352-10.382-14.421-17.124-25.6-17.124z"  horiz-adv-x="1024" />

    
    <glyph glyph-name="tzjl" unicode="&#58964;" d="M1353.604-72.878c11.4-15.12 8.294-36.588-6.894-47.954-6.144-4.608-13.345-6.86-20.547-6.86-10.444 0-20.752 4.71-27.476 13.721 0 0-234.173 311.685-234.173 311.685-2.184 2.935-3.379 6.178-4.505 9.454-53.449-30.035-114.612-47.954-180.349-47.954-203.831 0-369.093 164.99-369.093 368.411 0 203.421 165.263 368.377 369.093 368.377 203.865 0 369.093-164.955 369.093-368.377 0-114.476-52.732-216.357-134.818-283.936 1.877-1.604 3.959-2.833 5.495-4.881 0 0 234.173-311.685 234.173-311.685zM1180.115 527.623c0 165.331-134.784 299.841-300.456 299.841-165.638 0-300.422-134.51-300.422-299.841 0-165.365 134.784-299.875 300.422-299.875 62.084 0 121.609 18.704 172.157 54.098 80.31 56.248 128.299 148.095 128.299 245.778zM376.056 761.592c0 0-339.502 0-339.502 0-18.977 0-34.302 15.325-34.302 34.268 0 18.943 15.325 34.268 34.302 34.268 0 0 339.502 0 339.502 0 18.977 0 34.336-15.325 34.336-34.268 0-18.943-15.359-34.268-34.336-34.268zM34.472 418.882c0 0 250.727 0 250.727 0 18.977 0 34.336-15.291 34.336-34.233 0-18.943-15.359-34.268-34.336-34.268 0 0-250.727 0-250.727 0-18.977 0-34.336 15.325-34.336 34.268 0 18.943 15.359 34.233 34.336 34.233zM34.472 76.274c0 0 596.167 0 596.167 0 18.977 0 34.302-15.325 34.302-34.268 0-18.943-15.325-34.233-34.302-34.233 0 0-596.167 0-596.167 0-18.977 0-34.336 15.291-34.336 34.233 0 18.943 15.359 34.268 34.336 34.268z"  horiz-adv-x="1366" />

    
    <glyph glyph-name="light" unicode="&#58965;" d="M745.638 285.874c-53.375-54.872-73.276-140.592-90.814-216.205-22.5-97.089-45.814-197.459-143.323-197.459-97.535 0-120.796 100.371-143.349 197.433-17.512 75.639-37.413 161.359-90.105 215.496-74.667 82.806-120.534 155.163-120.534 262.045 0 192.34 158.813 348.816 353.988 348.816 195.175 0 353.962-156.476 353.962-348.816 0-106.882-45.866-179.239-119.825-261.31zM511.501-75.15c47.022 0 65.058 48.413 84.592 128.725 0 0-160.257-34.446-160.257-34.446 16.777-59.492 35.811-94.28 75.665-94.28zM420.267 81.379c0.893-3.912 1.759-7.351 2.652-11.132 0 0 186.826 40.143 186.826 40.143 6.012 24.837 12.445 50.041 20.61 75.009 0 0-237.707 0-237.707 0 11.342-34.682 19.77-70.257 27.62-104.020zM511.501 843.334c-165.718 0-300.56-132.847-300.56-296.15 0-90.604 39.014-151.619 106.383-226.339 23.498-24.128 41.167-52.456 55.134-82.806 0 0 278.165 0 278.165 0 14.099 30.508 31.952 59.072 55.764 83.541 66.66 73.985 105.648 135 105.648 225.604 0 163.302-134.816 296.15-300.534 296.15zM497.849 740.732c-102.445 0-185.802-82.124-185.802-183.072 0-14.545-11.946-26.333-26.701-26.333-14.781 0-26.727 11.788-26.727 26.333 0 129.959 107.328 235.712 239.23 235.712 14.781 0 26.727-11.788 26.727-26.333 0-14.545-11.946-26.307-26.727-26.307z"  horiz-adv-x="1024" />

    
    <glyph glyph-name="rmb" unicode="&#58966;" d="M805.364 303.638c0 0 0-73.342 0-73.342s-256.692 0-256.692 0c0 0 0-256.692 0-256.692 0 0-73.342 0-73.342 0 0 0 0 256.692 0 256.692 0 0-256.692 0-256.692 0 0 0 0 73.342 0 73.342 0 0 256.692 0 256.692 0 0 0 0 101.173 0 101.173 0 0-5.097 8.838-5.097 8.838 0 0-251.596 0-251.596 0 0 0 0 73.342 0 73.342 0 0 209.243 0 209.243 0 0 0-162.743 281.886-162.743 281.886 0 0 63.513 36.669 63.513 36.669 0 0 183.242-317.419 183.242-317.419 0 0 183.462 317.75 183.462 317.75 0 0 63.513-36.67 63.513-36.67 0 0-162.927-282.215-162.927-282.215 0 0 209.425 0 209.425 0 0 0 0-73.342 0-73.342 0 0-251.78 0-251.78 0 0 0-4.914-8.508-4.914-8.508 0 0 0-101.504 0-101.504 0 0 256.692 0 256.692 0z"  horiz-adv-x="1024" />

    
    <glyph glyph-name="pas" unicode="&#58967;" d="M853.333-128c0 0-682.667 0-682.667 0-62.834 0-113.778 50.944-113.778 113.778 0 0 0 398.222 0 398.222 0 52.964 36.352 97.052 85.333 109.767 0 0 0 32.455 0 32.455 0 204.231 165.547 369.778 369.778 369.778 204.231 0 369.778-165.547 369.778-369.778 0 0 0-32.455 0-32.455 48.981-12.715 85.333-56.804 85.333-109.767 0 0 0-398.222 0-398.222 0-62.834-50.944-113.778-113.778-113.778zM824.889 526.222c0 172.8-140.089 312.889-312.889 312.889-172.8 0-312.889-140.089-312.889-312.889 0 0 0-28.444 0-28.444 0 0 625.778 0 625.778 0 0 0 0 28.444 0 28.444zM910.222 384c0 31.431-25.458 56.889-56.889 56.889 0 0-28.444 0-28.444 0 0 0-625.778 0-625.778 0 0 0-28.444 0-28.444 0-31.431 0-56.889-25.458-56.889-56.889 0 0 0-398.222 0-398.222 0-31.431 25.458-56.889 56.889-56.889 0 0 682.667 0 682.667 0 31.431 0 56.889 25.458 56.889 56.889 0 0 0 398.222 0 398.222zM540.444 133.234c0 0 0-119.012 0-119.012s-56.889 0-56.889 0c0 0 0 119.012 0 119.012-33.081 11.748-56.889 43.008-56.889 80.1 0 47.132 38.201 85.333 85.333 85.333 47.132 0 85.333-38.201 85.333-85.333 0-37.092-23.808-68.352-56.889-80.1z"  horiz-adv-x="1024" />

    
    <glyph glyph-name="phone" unicode="&#58968;" d="M682.667-128c0 0-341.333 0-341.333 0-62.834 0-113.778 50.944-113.778 113.778 0 0 0 796.444 0 796.444 0 62.834 50.944 113.778 113.778 113.778 0 0 341.333 0 341.333 0 62.834 0 113.778-50.944 113.778-113.778 0 0 0-796.444 0-796.444 0-62.834-50.944-113.778-113.778-113.778zM512-71.111c31.431 0 56.889 25.458 56.889 56.889s-25.458 56.889-56.889 56.889c-31.431 0-56.889-25.458-56.889-56.889 0-31.431 25.458-56.889 56.889-56.889zM597.333 839.111c0 0-170.667 0-170.667 0s0-28.444 0-28.444c0 0 170.667 0 170.667 0 0 0 0 28.444 0 28.444zM739.556 756.395c-4.466-1.593-9.216-2.617-14.222-2.617 0 0-426.667 0-426.667 0-5.006 0-9.756 1.024-14.222 2.617 0 0 0-664.718 0-664.718 8.391 4.864 18.034 7.879 28.444 7.879 0 0 398.222 0 398.222 0 10.411 0 20.053-3.015 28.444-7.879 0 0 0 664.718 0 664.718z"  horiz-adv-x="1024" />

    
    <glyph glyph-name="l" unicode="&#58969;" d="M853.333-128c0 0-682.667 0-682.667 0-35.328 0-64 28.672-64 64 0 0 0 42.667 0 42.667 0 7.552 1.877 14.592 4.309 21.333-2.432 6.741-4.309 13.781-4.309 21.333 0 0 0 810.667 0 810.667 0 35.328 28.672 64 64 64 0 0 42.667 0 42.667 0 35.328 0 64-28.672 64-64 0 0 0-789.333 0-789.333 0 0 576 0 576 0 35.328 0 64-28.672 64-64 0 0 0-42.667 0-42.667 0-35.328-28.672-64-64-64z"  horiz-adv-x="1024" />

    
    <glyph glyph-name="hkcz" unicode="&#58970;" d="M526.51-112.128c-3.305 0-6.656 0.628-9.844 1.908-10.077 4.026-16.687 13.777-16.687 24.623 0 0 0 352.396 0 352.396-55.133 6.447-302.871-45.708-458.892-148.34-8.541-5.655-19.526-5.841-28.276-0.582-8.727 5.26-13.684 15.104-12.684 25.274 32.093 333.475 394.193 481.559 526.383 481.559 14.662 0 26.531-11.869 26.531-26.508 0-14.685-11.869-26.531-26.531-26.531-97.652 0-403.177-114.828-464.733-379.299 163.561 88.367 409.181 148.154 468.457 120.739 12.847-5.958 21.085-16.617 22.621-29.254 0.14-1.047 0.186-2.118 0.186-3.188 0 0 0-299.962 0-299.962 0 0 391.82 411.183 391.82 411.183 0 0-391.82 411.252-391.82 411.252 0 0 0-49.245 0-49.245 0-14.662-11.869-26.531-26.531-26.531-14.662 0-26.531 11.869-26.531 26.531 0 0 0 115.526 0 115.526 0 10.868 6.609 20.596 16.687 24.646 10.054 3.98 21.597 1.513 29.044-6.353 0 0 454.982-477.533 454.982-477.533 9.775-10.24 9.775-26.345 0-36.585 0 0-454.982-477.487-454.982-477.487-5.097-5.353-12.079-8.239-19.2-8.239z"  horiz-adv-x="1025" />

    
    </font>
</defs>
</svg>
