<?xml version="1.0" standalone="no"?>
<!DOCTYPE svg PUBLIC "-//W3C//DTD SVG 1.1//EN" "http://www.w3.org/Graphics/SVG/1.1/DTD/svg11.dtd" >
<svg xmlns="http://www.w3.org/2000/svg">
<metadata>
Created by FontForge 20120731 at Fri Jan 13 15:47:03 2017
 By admin
</metadata>
<defs>
<font id="iconfont" horiz-adv-x="1024" >
  <font-face 
    font-family="iconfont"
    font-weight="500"
    font-stretch="normal"
    units-per-em="1024"
    panose-1="2 0 6 3 0 0 0 0 0 0"
    ascent="896"
    descent="-128"
    x-height="792"
    bbox="-0.242424 -224 2389 896.45"
    underline-thickness="0"
    underline-position="0"
    unicode-range="U+0078-E673"
  />
<missing-glyph 
 />
    <glyph glyph-name=".notdef" 
 />
    <glyph glyph-name=".notdef" 
 />
    <glyph glyph-name=".null" horiz-adv-x="0" 
 />
    <glyph glyph-name="nonmarkingreturn" horiz-adv-x="341" 
 />
    <glyph glyph-name="x" unicode="x" horiz-adv-x="1001" 
d="M281 543q-27 -1 -53 -1h-83q-18 0 -36.5 -6t-32.5 -18.5t-23 -32t-9 -45.5v-76h912v41q0 16 -0.5 30t-0.5 18q0 13 -5 29t-17 29.5t-31.5 22.5t-49.5 9h-133v-97h-438v97zM955 310v-52q0 -23 0.5 -52t0.5 -58t-10.5 -47.5t-26 -30t-33 -16t-31.5 -4.5q-14 -1 -29.5 -0.5
t-29.5 0.5h-32l-45 128h-439l-44 -128h-29h-34q-20 0 -45 1q-25 0 -41 9.5t-25.5 23t-13.5 29.5t-4 30v167h911zM163 247q-12 0 -21 -8.5t-9 -21.5t9 -21.5t21 -8.5q13 0 22 8.5t9 21.5t-9 21.5t-22 8.5zM316 123q-8 -26 -14 -48q-5 -19 -10.5 -37t-7.5 -25t-3 -15t1 -14.5
t9.5 -10.5t21.5 -4h37h67h81h80h64h36q23 0 34 12t2 38q-5 13 -9.5 30.5t-9.5 34.5q-5 19 -11 39h-368zM336 498v228q0 11 2.5 23t10 21.5t20.5 15.5t34 6h188q31 0 51.5 -14.5t20.5 -52.5v-227h-327z" />
    <glyph glyph-name="icon" unicode="&#xe600;" 
d="M757 166q0 -77 -51.5 -133t-145.5 -72v-114h-110v106q-53 2 -104 15.5t-85 31.5l34 131q89 -49 184 -49q49 0 78.5 18t29.5 50t-28 54t-91 43q-97 33 -148.5 80.5t-51.5 123.5q0 75 49.5 128t138.5 70v105h109v-97q88 -3 162 -37l-33 -126q-81 39 -160 39q-50 0 -73 -18
t-23 -45q0 -26 30.5 -47t104.5 -48q98 -35 141 -84t43 -125z" />
    <glyph glyph-name="loading" unicode="&#xe601;" 
d="M865 58q0 -6 5.5 -6t5.5 6v0q0 6 -5.5 6t-5.5 -6v0zM736 -75v0q0 -5 3.5 -8t8 -3t8 3t3.5 8v0v0q0 5 -3.5 8.5t-8 3.5t-8 -3.5t-3.5 -8.5v0zM563 -143q0 -7 5 -12.5t12 -5.5t12.5 5.5t5.5 12.5t-5.5 12t-12.5 5t-12 -5t-5 -12zM376 -134v0q0 -10 7 -16.5t16.5 -6.5
t16.5 6.5t7 16.5v0v0q0 10 -7 16.5t-16.5 6.5t-16.5 -6.5t-7 -16.5v0zM211 -49q0 -12 8.5 -20.5t20.5 -8.5t20.5 8.5t8.5 20.5v0q0 12 -8.5 20.5t-20.5 8.5t-20.5 -8.5t-8.5 -20.5v0zM96 95.5q0 -14.5 10 -25t24.5 -10.5t25 10.5t10.5 25t-10.5 24.5t-25 10t-24.5 -10
t-10 -24.5zM53 272.5q0 -16.5 12 -28.5t28.5 -12t28.5 12t12 28.5t-12 28.5t-28.5 12t-28.5 -12t-12 -28.5zM88 448.5q0 -19.5 14 -33t33 -13.5t32.5 13.5t13.5 33t-13.5 33t-32.5 13.5t-33 -13.5t-14 -33zM195 591q0 -22 15 -37.5t36.5 -15.5t37 15.5t15.5 37.5v0
q0 21 -15.5 36.5t-37 15.5t-36.5 -15.5t-15 -36.5v0zM351 672q0 -24 16.5 -41t41 -17t41 17t16.5 41t-16.5 41t-41 17t-41 -17t-16.5 -41zM526 677q0 -26 18.5 -45t45 -19t45 19t18.5 45v0q0 27 -18.5 45.5t-45 18.5t-45 -18.5t-18.5 -45.5v0zM686 605q0 -29 20.5 -49.5
t49 -20.5t49 20.5t20.5 49.5t-20.5 49.5t-49 20.5t-49 -20.5t-20.5 -49.5zM800 469.5q0 -31.5 22 -53.5t53 -22t53.5 22t22.5 53.5t-22.5 53.5t-53.5 22t-53 -22t-22 -53.5zM845 294q0 -34 24 -57.5t57.5 -23.5t57.5 23.5t24 57.5t-24 57.5t-57.5 23.5t-57.5 -23.5
t-24 -57.5z" />
    <glyph glyph-name="screening" unicode="&#xe602;" horiz-adv-x="1030" 
d="M435 -162v405l-373 495h904l-372 -495v-287zM151 695l326 -437v-335l74 55v280l326 437h-726z" />
    <glyph glyph-name="close" unicode="&#xe603;" 
d="M949 -90l-379 378l378 377l-56 59l-380 -378l-375 375l-59 -56l376 -377l-379 -377l57 -59l380 379l378 -377z" />
    <glyph glyph-name="right" unicode="&#xe604;" 
d="M931 538q-15 15 -33 17.5t-29 -8.5l-466 -419l-251 250q-6 6 -21.5 0.5t-30 -20.5t-20.5 -30t1 -22l296 -297q10 -8 27 -7q14 2 25 13l511 460q11 11 8.5 29.5t-17.5 33.5z" />
    <glyph glyph-name="arrow" unicode="&#xe605;" 
d="M681 -79l29 29l-338 338l338 338l-29 29l-367 -367z" />
    <glyph glyph-name="sina" unicode="&#xe606;" 
d="M732 310q-16 3 -20.5 9.5t-1.5 11.5l4 5l3 6t6 16t4.5 23.5t-4.5 26t-16 25.5q-14 15 -37.5 19.5t-46.5 0.5t-44 -9.5t-34 -11.5l-13 -5q-10 -3 -16.5 -4.5t-10.5 0t-6 3.5t-1.5 7.5t1 9.5t2.5 13t3 14q0 15 -2 28t-11 28t-23.5 22.5t-41 7t-62.5 -12.5q-35 -13 -72 -37
t-65 -50.5t-50.5 -51t-34.5 -40.5l-12 -16q-33 -44 -49.5 -88.5t-15.5 -66.5v-22q5 -50 29.5 -89t58 -63t79 -41t87 -25t88.5 -12q76 -6 157.5 12t152.5 62.5t100 106.5q17 37 17.5 68.5t-11 51.5t-29.5 35.5t-34 22.5t-28 10zM418 -10q-111 -6 -189 42.5t-78 122.5
t77.5 127t189.5 58t189.5 -37.5t77.5 -115.5q0 -74 -79 -133t-188 -64zM388 275q-41 -5 -70 -23t-40.5 -40t-17 -43.5t-4.5 -35.5l1 -15v-4.5t2 -12t6 -16.5t12 -17.5t20 -15.5q67 -33 126 -20t95 60q14 17 18.5 42.5t-2 52t-23 48.5t-48.5 33.5t-75 6.5zM350.5 79.5
q-20.5 -2.5 -35 8t-14.5 28.5t13.5 33t33.5 17q24 2 38.5 -9.5t14.5 -29.5q0 -17 -15 -31t-35.5 -16.5zM438 154.5q-7 -5.5 -14.5 -5t-11.5 7.5q-4 6 -2 14.5t9 13.5q8 6 15.5 5t11.5 -7.5t1.5 -14.5t-9.5 -13.5zM804 370q9 0 16 6t8 15v2q4 33 -1.5 58.5t-17 40t-26.5 23.5
t-30.5 11.5t-28.5 3.5t-21 -0.5l-8 -1.5q-10 0 -17.5 -7t-7.5 -17t7.5 -17.5t17.5 -7.5q80 18 86 -51q2 -18 -2 -34q0 -10 7.5 -17t17.5 -7zM786 655q-51 12 -121 -1q-1 0 -2 -1l-1 -1h-1q-12 -3 -19 -12.5t-7 -22.5q0 -14 10.5 -24.5t24.5 -10.5q19 3 32 8q6 0 18.5 1.5
t33.5 -4t42 -13.5t43.5 -27t38.5 -44q27 -62 10 -118q-7 -17 -7 -34q0 -14 10.5 -23t25.5 -9t23 5.5t11 24.5v0q19 57 14.5 104t-20.5 81t-44 59.5t-56 40t-59 21.5z" />
    <glyph glyph-name="weixin" unicode="&#xe607;" 
d="M673 424q14 0 31 -2q-21 95 -112 158t-207 63q-86 0 -158.5 -35.5t-115.5 -97t-43 -135.5q0 -124 127 -212l-32 -95l111 55q80 -16 111 -16q13 0 29 2q-10 33 -10 66q1 103 79 176t190 73zM503 509q18 0 29 -10.5t11 -28.5t-11 -29t-29 -11t-32.5 11.5t-14.5 28.5
t14.5 28t32.5 11zM282 430q-19 0 -33.5 11.5t-14.5 28.5t14.5 28t33.5 11q18 0 28.5 -10.5t10.5 -28.5t-10.5 -29t-28.5 -11zM962 178q0 94 -80.5 161.5t-188.5 67.5q-112 0 -190.5 -67t-78.5 -161.5t78.5 -161.5t190.5 -67q32 0 95 16l87 -48l-24 79q111 83 111 181z
M606 218q-12 0 -21.5 9.5t-9.5 21.5t9.5 22t21.5 10q17 0 28.5 -9.5t11.5 -22t-11.5 -22t-28.5 -9.5zM780 218q-12 0 -21.5 9.5t-9.5 21.5t9.5 22t21.5 10q17 0 28.5 -9.5t11.5 -22t-11.5 -22t-28.5 -9.5z" />
    <glyph glyph-name="qq" unicode="&#xe608;" 
d="M917 137q-5 31 -17 61t-25.5 50.5t-26 37t-20.5 24.5l-8 8q3 30 1 51t-7 34t-10.5 20t-9.5 10l-4 3q-2 62 -18.5 113t-39.5 81.5t-54 53t-56.5 32.5t-53.5 15.5t-38.5 6t-17.5 0.5t-17.5 -0.5t-38.5 -6t-53.5 -15.5t-56.5 -32.5t-54 -53t-39.5 -81.5t-18.5 -113
q-1 -1 -3.5 -3t-9.5 -10t-10.5 -20.5t-7 -34t0.5 -50.5l-8.5 -8.5t-20 -23.5t-26.5 -38t-24.5 -50t-17.5 -61q0 -4 -0.5 -10.5t0.5 -22.5t3.5 -28t9 -21t16 -8t25.5 17.5t36 49.5q23 -62 64 -117q-3 -1 -8 -3t-17.5 -10t-21.5 -17.5t-16 -25.5t-5 -35q0 -3 1 -7.5t9 -17
t23 -21.5t47.5 -16t77.5 -6q12 1 32 4t59.5 17.5t54.5 35.5h30q15 -21 51.5 -35.5t65.5 -17.5l29 -4q45 -1 77.5 6t47.5 16t23 21.5t9 17t1 7.5q2 19 -5 35t-16 25.5t-21.5 17.5t-17.5 10t-8 3v0q19 25 35 54.5t22.5 45.5t6.5 17q20 -33 36 -49.5t25.5 -17.5t16 8t9 21
t3.5 28t0.5 22.5t-0.5 10.5v0z" />
    <glyph glyph-name="people" unicode="&#xe609;" 
d="M511 736q-91 0 -174 -35.5t-143 -95.5t-95 -142.5t-35 -173.5t35 -174t95 -143t143 -95.5t174 -35.5t174 35.5t142.5 95.5t95 143t35.5 174t-35.5 173.5t-95 142.5t-142.5 95.5t-174 35.5v0v0zM511 694q110 0 203.5 -54t147.5 -147.5t54 -203.5q0 -149 -96 -262
q-37 90 -121.5 140.5t-189.5 50.5q-106 0 -187.5 -50.5t-119.5 -140.5q-96 113 -96 262q0 110 54 203.5t147.5 147.5t203.5 54v0v0zM234 -7q29 85 104 132.5t173 47.5t173 -47.5t104 -132.5q-55 -52 -126.5 -81t-150.5 -29t-150.5 29t-126.5 81v0v0zM511 242q68 0 116.5 48
t48.5 116.5t-48.5 116.5t-116.5 48t-116.5 -48t-48.5 -116.5t48.5 -116.5t116.5 -48v0v0zM511 524q49 0 83.5 -34.5t34.5 -83t-34.5 -83t-83.5 -34.5t-83.5 34.5t-34.5 83t34.5 83t83.5 34.5v0v0zM511 524z" />
    <glyph glyph-name="money" unicode="&#xe60a;" 
d="M512 735q-91 0 -174 -35.5t-142.5 -95t-95 -142.5t-35.5 -174t35.5 -174t95 -142.5t142.5 -95t174 -35.5t174 35.5t142.5 95t95 142.5t35.5 174t-35.5 174t-95 142.5t-142.5 95t-174 35.5v0zM512 -112q-109 0 -201 53.5t-145.5 145.5t-53.5 201t53.5 201t145.5 145.5
t201 53.5t201 -53.5t145.5 -145.5t53.5 -201t-53.5 -201t-145.5 -145.5t-201 -53.5v0zM623 290q-25 19 -86 35v160q29 -6 46 -22q20 -19 26 -58l47 9q-6 27 -13.5 43t-22.5 31q-29 30 -83 37l-1 46h-48l-1 -46q-42 -6 -67 -23q-48 -33 -48 -96q0 -59 43 -88q26 -17 72 -28
v-177q-36 5 -55 27q-21 22 -25 69l-47 -8q9 -61 37 -90q30 -30 90 -38l1 -68h48l1 67q50 6 77 24q50 33 50 104q0 59 -41 90v0zM487 335q-19 4 -31 10q-40 21 -40 63q0 38 26 59q17 13 45 18v-150zM589 132q-19 -15 -52 -20v167q42 -11 55 -21q27 -21 27 -59q0 -45 -30 -67
v0zM589 132z" />
    <glyph glyph-name="help" unicode="&#xe60b;" 
d="M547 186q-15 -15 -28 -25q6 32 29 111q21 68 21 79q0 14 -11 23q-24 20 -75 -8q-26 -15 -58 -50l-12 -13l38 -28l9 9q5 5 15 14l20 18t11 10q-34 -113 -34 -176q0 -18 10 -29q11 -11 28 -11q16 0 39 12q5 3 6.5 4.5t3 3.5t7 8t14.5 14l12 12l-34 32zM924 462
q-34 80 -96 142q-61 62 -142 96q-83 35 -174 35t-174 -35q-80 -34 -142 -96t-96 -142q-35 -83 -35 -174t35 -174q33 -80 96 -142q62 -62 142 -96q83 -35 174 -35t174 35q80 34 142 96t96 142q35 83 35 174t-35 174v0zM912 288q0 -108 -53.5 -200.5t-146 -146t-201 -53.5
t-200.5 53.5t-146 146t-54 201t54 200.5t146 145.5t200.5 53.5t201 -53.5t146 -145.5t53.5 -201v0zM536 496q-13 -14 -13 -34q0 -16 10 -27q11 -11 26 -11q19 0 32 15q14 14 14 34q0 16 -11 26q-11 12 -28.5 11t-29.5 -14v0zM536 496z" />
    <glyph glyph-name="more" unicode="&#xe612;" 
d="M512 735q-91 0 -174 -35.5t-142.5 -95t-95 -142.5t-35.5 -174t35.5 -174t95 -142.5t142.5 -95t174 -35.5t174 35.5t142.5 95t95 142.5t35.5 174t-35.5 174t-95 142.5t-142.5 95t-174 35.5v0zM512 -112q-109 0 -201 53.5t-145.5 145.5t-53.5 201t53.5 201t145.5 145.5
t201 53.5t201 -53.5t145.5 -145.5t53.5 -201t-53.5 -201t-145.5 -145.5t-201 -53.5v0zM323.5 359q-29.5 0 -50 -21t-20.5 -50t20.5 -50t50 -21t50 21t20.5 50t-20.5 50t-50 21zM323.5 264q-9.5 0 -16.5 7t-7 17t7 17t16.5 7t16.5 -7t7 -17t-7 -17t-16.5 -7zM512 359
q-29 0 -50 -21t-21 -50t21 -50t50 -21t50 21t21 50t-21 50t-50 21zM512 264q-10 0 -17 7t-7 17t7 17t17 7t17 -7t7 -17t-7 -17t-17 -7zM700.5 359q-29.5 0 -50 -21t-20.5 -50t20.5 -50t50 -21t50 21t20.5 50t-20.5 50t-50 21zM700.5 264q-9.5 0 -16.5 7t-7 17t7 17t16.5 7
t16.5 -7t7 -17t-7 -17t-16.5 -7z" />
    <glyph glyph-name="clock" unicode="&#xe613;" 
d="M512 735q-91 0 -174 -35.5t-142.5 -95t-95 -142.5t-35.5 -174t35.5 -174t95 -142.5t142.5 -95t174 -35.5t174 35.5t142.5 95t95 142.5t35.5 174t-35.5 174t-95 142.5t-142.5 95t-174 35.5zM512 -112q-109 0 -201 53.5t-145.5 145.5t-53.5 201t53.5 201t145.5 145.5
t201 53.5t201 -53.5t145.5 -145.5t53.5 -201t-53.5 -201t-145.5 -145.5t-201 -53.5zM691 96l-179 133v270q0 10 -7 16.5t-16.5 6.5t-16.5 -6.5t-7 -16.5v-277q0 -18 15 -28l183 -136q7 -6 17 -4.5t15.5 9.5t4.5 17.5t-9 15.5z" />
    <glyph glyph-name="lock-open" unicode="&#xe614;" 
d="M818 308h-481v135q0 73 51.5 124.5t123.5 51.5q30 0 67 -16.5t69 -51.5t36 -79q3 -24 23 -38t44 -10q23 4 36.5 23t11.5 44q-3 62 -46.5 119t-109 91.5t-131.5 33.5q-121 0 -206 -85.5t-85 -206.5v-135h-15q-42 0 -72 -29.5t-30 -71.5v-265q0 -42 30 -71.5t72 -29.5h612
q42 0 72 29.5t30 71.5v265q0 42 -30 71.5t-72 29.5z" />
    <glyph glyph-name="warning" unicode="&#xe615;" 
d="M496 13h30v-38h-30v38zM522 50l14 371h-49l12 -371h23zM513 696l-448 -794l894 -1zM513 619l381 -680l-764 1z" />
    <glyph glyph-name="message" unicode="&#xe616;" 
d="M512 -88q-26 0 -40 22l-79 118h-267q-26 0 -43.5 18t-17.5 44v489q0 25 17.5 43t43.5 18h772q26 0 43.5 -18t17.5 -43v-489q0 -26 -17.5 -44t-43.5 -18h-267l-79 -118q-14 -22 -40 -22zM126 623q-9 0 -15 -6t-6 -14v-489q0 -9 6 -15t15 -6h288l91 -137q3 -3 7 -3t7 3
l91 137h288q9 0 15 6t6 15v489q0 8 -6 14t-15 6h-772zM288.5 420q25.5 0 43 -18t17.5 -43t-17.5 -43t-43 -18t-43.5 18t-18 43t18 43t43.5 18zM512 420q25 0 43 -18t18 -43t-18 -43t-43 -18t-43 18t-18 43t18 43t43 18zM735.5 420q25.5 0 43.5 -18t18 -43t-18 -43t-43.5 -18
t-43 18t-17.5 43t17.5 43t43 18z" />
    <glyph glyph-name="hert" unicode="&#xe617;" 
d="M729 687q-67 0 -123.5 -39t-82.5 -101q-33 59 -96.5 99.5t-134.5 40.5q-26 0 -50 -6q-82 -20 -132 -92t-45 -163q6 -111 80 -200l319 -317q20 -20 48.5 -20t48.5 20l315 315q43 39 63 102.5t20 126.5q0 97 -67.5 165.5t-162.5 68.5zM841 261l-316 -316q-5 -5 -12.5 -5
t-12.5 5l-317 315q-62 74 -67 169q-4 72 35 129.5t103 72.5q18 4 36 4q51 0 106 -34t90 -81.5t35 -84.5v0v0v0q0 42 28.5 89t77 79.5t97.5 32.5q73 0 128.5 -54.5t55.5 -128.5q0 -52 -16.5 -106t-50.5 -86z" />
    <glyph glyph-name="medal" unicode="&#xe618;" 
d="M512 565q-70 0 -120 -49t-50 -119.5t50 -120.5t120 -50t120 50t50 120.5t-50 119.5t-120 49zM512 269q-52 0 -89.5 37.5t-37.5 90t37 89.5t90 37t90 -37t37 -89.5t-37.5 -90t-89.5 -37.5zM850 397q0 91 -45 169t-123 123.5t-170 45.5t-170 -45.5t-123 -123.5t-45 -169
q0 -94 46.5 -172t125.5 -122v-262h42l129 79l124 -79h43v265q76 45 121 122t45 169zM641 -103l-129 71l-124 -74v188q59 -23 124 -23q68 0 129 26v-188zM512 101q-65 0 -124 28l-4 1q-76 37 -122 108.5t-46 158.5q0 122 87 209t209 87t209 -87t87 -209.5t-86.5 -209
t-209.5 -86.5z" />
    <glyph glyph-name="tel" unicode="&#xe619;" 
d="M789 -157q-37 -6 -83 6q-244 57 -405 215t-219 397l-1 1v7q-8 34 -9 92q-1 67 42.5 114t116.5 58q13 2 27.5 2t25.5 -1l12 -1l129 -213q19 -32 1 -63q-26 -46 -73 -72q-11 -6 -6 -16q81 -151 239 -246q4 -2 9.5 -0.5t7.5 4.5q17 31 56 56q32 21 66 2l224 -122
q3 -25 3 -32q1 -70 -45.5 -124t-117.5 -64zM760 -109h5q8 0 17 2q51 7 85.5 46.5t33.5 90.5v2l-201 109q-7 4 -13 0q-25 -16 -41 -41t-45 -29v0q-22 -3 -40 8q-168 97 -259 266q-12 22 -4.5 46.5t30.5 37.5q35 19 54 53q3 5 -1 12l-116 191h-5q-12 0 -22 -2
q-53 -7 -84.5 -40t-30.5 -81q1 -55 8 -83v-2l1 -6q55 -224 206.5 -372t381.5 -201q15 -4 40 -7z" />
    <glyph glyph-name="add" unicode="&#xe61a;" 
d="M959 325h-410v410h-74v-410h-410v-74h410v-410h74v410h410v74z" />
    <glyph glyph-name="del" unicode="&#xe61b;" 
d="M65 325h894v-74h-894v74z" />
    <glyph glyph-name="arrow-2" unicode="&#xe61c;" 
d="M942 441l-430 -276l-430 276q-13 -3 -17 -4l1 -17l446 -285l446 285l1 17z" />
    <glyph glyph-name="card" unicode="&#xe61d;" 
d="M952.5 473q-10.5 20 -31.5 26l-562 170q-7 2 -15 2q-18 0 -32.5 -10.5t-19.5 -27.5l-50 -167h-123q-23 0 -38.5 -15.5t-15.5 -38.5v-453q0 -23 15.5 -38.5t38.5 -15.5h712q22 0 38 15.5t16 38.5v234l72 239q6 21 -4.5 41zM119 445h712q13 0 22.5 -9.5t9.5 -23.5v-86h-777
v86q0 14 9.5 23.5t23.5 9.5zM831 -74h-712q-14 0 -23.5 9.5t-9.5 23.5v324h777v-324q0 -14 -9.5 -23.5t-22.5 -9.5zM936 438l-51 -171v145q0 23 -16 38.5t-38 15.5h-567l49 161q3 10 11.5 16.5t19.5 6.5q4 0 9 -2l562 -169q12 -4 18.5 -16t2.5 -25zM566 196h-410
q-4 0 -7.5 -3.5t-3.5 -7.5t3.5 -7.5t7.5 -3.5h410q4 0 7 3.5t3 7.5t-3 7.5t-7 3.5zM458 89h-302q-4 0 -7.5 -3.5t-3.5 -8t3.5 -7.5t7.5 -3h302q4 0 7.5 3t3.5 7.5t-3.5 8t-7.5 3.5zM770 196h-97q-14 0 -23.5 -9.5t-9.5 -23t9.5 -23t23.5 -9.5h97q13 0 22.5 9.5t9.5 23
t-9.5 23t-22.5 9.5z" />
    <glyph glyph-name="clock-2" unicode="&#xe61e;" 
d="M512 735q-91 0 -174 -35.5t-142.5 -95t-95 -142.5t-35.5 -174t35.5 -174t95 -142.5t142.5 -95t174 -35.5t174 35.5t142.5 95t95 142.5t35.5 174t-35.5 174t-95 142.5t-142.5 95t-174 35.5zM187 247h-82v82h82v-82zM471 695h82v-82h-82v82zM553 -119h-82v82h82v-82z
M692 37l-221 210v244h82v-223l180 -181zM837 247v82h82v-82h-82z" />
    <glyph glyph-name="more-2" unicode="&#xe61f;" 
d="M162 385q40 0 68.5 -28.5t28.5 -68.5t-28.5 -68.5t-68.5 -28.5t-68.5 28.5t-28.5 68.5t28.5 68.5t68.5 28.5zM513.5 385q40.5 0 69 -28.5t28.5 -68.5t-28.5 -68.5t-69 -28.5t-69 28.5t-28.5 68.5t28.5 68.5t69 28.5zM862 385q40 0 68.5 -28.5t28.5 -68.5t-28.5 -68.5
t-68.5 -28.5t-68.5 28.5t-28.5 68.5t28.5 68.5t68.5 28.5z" />
    <glyph glyph-name="record" unicode="&#xe620;" 
d="M540 594l405 -152q14 -5 14.5 -12.5t-13.5 -12.5l-395 -152q-14 -6 -33.5 -6t-33.5 6l-405 152q-14 5 -14.5 12.5t13.5 12.5l395 152q14 5 33.5 5t33.5 -5zM945 159l-27 10l-353 -140q-16 -6 -40 -6t-41 6l-370 144l-36 -14q-14 -5 -13.5 -12.5t14.5 -12.5l405 -152
q14 -5 33.5 -5t33.5 5l395 152q14 5 13.5 12.5t-14.5 12.5zM945 301l-27 10l-353 -140q-16 -7 -40 -7t-41 7l-370 143l-36 -13q-14 -6 -13.5 -13t14.5 -13l405 -152q14 -5 33.5 -5t33.5 5l395 152q14 6 13.5 13t-14.5 13z" />
    <glyph glyph-name="rise" unicode="&#xe621;" 
d="M512 735q-91 0 -174 -35.5t-142.5 -95t-95 -142.5t-35.5 -174t35.5 -174t95 -142.5t142.5 -95t174 -35.5t174 35.5t142.5 95t95 142.5t35.5 174t-35.5 174t-95 142.5t-142.5 95t-174 35.5zM824 407l-22 -231q-4 -17 -21.5 -19t-31.5 14l-75 80l-155 -135
q-13 -12 -31.5 -11t-30.5 14l-85 94l-98 -70q-14 -13 -32.5 -11.5t-31 15t-11.5 32t15 30.5l132 99q22 20 49 7q9 -4 15 -11l83 -92l121 105l-70 75q-14 16 -10 33.5t21 19.5l236 -1q15 2 26 -9.5t7 -27.5z" />
    <glyph glyph-name="calendar" unicode="&#xe622;" 
d="M294.5 173q22.5 0 38.5 16t16 38.5t-16 38.5t-38.5 16t-38.5 -16t-16 -38.5t16 -38.5t38.5 -16zM294.5 258q12.5 0 21.5 -9t9 -21.5t-9 -21.5t-21.5 -9t-21.5 9t-9 21.5t9 21.5t21.5 9zM512 173q23 0 38.5 16t15.5 38.5t-15.5 38.5t-38.5 16t-38.5 -16t-15.5 -38.5
t15.5 -38.5t38.5 -16zM512 258q13 0 21.5 -9t8.5 -21.5t-8.5 -21.5t-21.5 -9t-21.5 9t-8.5 21.5t8.5 21.5t21.5 9zM729.5 173q22.5 0 38.5 16t16 38.5t-16 38.5t-38.5 16t-38.5 -16t-16 -38.5t16 -38.5t38.5 -16zM729.5 258q12.5 0 21.5 -9t9 -21.5t-9 -21.5t-21.5 -9
t-21.5 9t-9 21.5t9 21.5t21.5 9zM294.5 -8q22.5 0 38.5 16t16 38.5t-16 38.5t-38.5 16t-38.5 -16t-16 -38.5t16 -38.5t38.5 -16zM294.5 76q12.5 0 21.5 -8.5t9 -21t-9 -21.5t-21.5 -9t-21.5 9t-9 21.5t9 21t21.5 8.5zM512 -8q23 0 38.5 16t15.5 38.5t-15.5 38.5t-38.5 16
t-38.5 -16t-15.5 -38.5t15.5 -38.5t38.5 -16zM512 76q13 0 21.5 -8.5t8.5 -21t-8.5 -21.5t-21.5 -9t-21.5 9t-8.5 21.5t8.5 21t21.5 8.5zM729.5 -8q22.5 0 38.5 16t16 38.5t-16 38.5t-38.5 16t-38.5 -16t-16 -38.5t16 -38.5t38.5 -16zM729.5 76q12.5 0 21.5 -8.5t9 -21
t-9 -21.5t-21.5 -9t-21.5 9t-9 21.5t9 21t21.5 8.5zM911 632h-121v37q0 20 -14 34t-34 14t-34.5 -14t-14.5 -34v-37h-362v37q0 20 -14.5 34t-34.5 14t-34 -14t-14 -34v-37h-121q-20 0 -34 -14t-14 -34v-677q0 -20 14 -34t34 -14h798q20 0 34 14t14 34v677q0 20 -14 34
t-34 14zM718 669q0 10 7 17t17 7t17 -7t7 -17v-97q0 -10 -7 -17t-17 -7t-17 7t-7 17v97zM258 669q0 10 7 17t17 7t17 -7t7 -17v-97q0 -10 -7 -17t-17 -7t-17 7t-7 17v97zM935 -93q0 -10 -7 -17t-17 -7h-798q-10 0 -17 7t-7 17v484h846v-484zM935 415h-846v169q0 10 7 17
t17 7h121v-36q0 -20 14 -34t34 -14t34.5 14t14.5 34v36h362v-36q0 -20 14.5 -34t34.5 -14t34 14t14 34v36h121q10 0 17 -7t7 -17v-169z" />
    <glyph glyph-name="email" unicode="&#xe623;" 
d="M847 623h-670q-47 0 -79.5 -32.5t-32.5 -78.5v-448q0 -46 32.5 -78.5t79.5 -32.5h670q47 0 79.5 32.5t32.5 78.5v448q0 46 -32.5 78.5t-79.5 32.5zM847 568q15 0 27 -7l-362 -324l-362 324q12 7 27 7h670zM903 64q0 -23 -16 -39.5t-40 -16.5h-670q-24 0 -40 16.5
t-16 39.5v448v0l391 -349l391 349v0v-448z" />
    <glyph glyph-name="mail-open" unicode="&#xe624;" 
d="M959 427l-447 281l-447 -281v-447q0 -46 32.5 -79t79.5 -33h670q47 0 79.5 33t32.5 79v444h-1zM512 155l-352 265l352 222l352 -221zM903 -20q0 -23 -16 -39.5t-40 -16.5h-670q-24 0 -40 16.5t-16 39.5v400l391 -295l391 295v-400v0z" />
    <glyph glyph-name="info" unicode="&#xe625;" 
d="M957 378q-16 136 -135.5 224.5t-286.5 88.5q-32 0 -64 -4q-123 -13 -220 -73t-146.5 -149.5t-37.5 -187.5q9 -78 53.5 -142.5t118.5 -106.5q9 -19 9.5 -34.5t-12.5 -35.5t-43 -46q-14 -10 9 -20q16 -7 41 -7q91 0 181 84q12 -2 35 1.5t33 3.5q32 0 63 4q123 14 219.5 71
t145.5 144.5t37 184.5zM848 179q-50 -64 -128.5 -105t-170.5 -51q-29 -3 -57 -3q-46 0 -61 1l-28 4l-20 -17q-22 -23 -52 -43t-52 -30l3 6q7 16 10.5 26t8 27t3.5 32.5t-8 29.5l-13 13l-16 9q-128 73 -144 206q-13 108 55 193q50 63 128 103.5t171 50.5q29 3 58 3
q145 0 249 -75t117 -187q13 -110 -53 -193zM304.5 354q-17.5 0 -30 -12.5t-12.5 -30t12.5 -30t30 -12.5t30 12.5t12.5 30t-12.5 30t-30 12.5zM521.5 354q-17.5 0 -30 -12.5t-12.5 -30t12.5 -30t30 -12.5t30 12.5t12.5 30t-12.5 30t-30 12.5zM738.5 354q-17.5 0 -30 -12.5
t-12.5 -30t12.5 -30t30 -12.5t30 12.5t12.5 30t-12.5 30t-30 12.5z" />
    <glyph glyph-name="horn" unicode="&#xe626;" 
d="M548 649q-3 2 -18.5 1.5t-23.5 -7.5l-223 -185h-179q-16 0 -27.5 -11.5t-11.5 -27.5v-260q0 -17 11 -28t27 -11h181l222 -186q11 -9 25 -9q9 0 17 4q22 11 22 35v649q0 25 -22 36zM514 1l-194 165l-16 10h-183v226h182l211 175v-576zM819 588v-78q84 -95 84 -221
t-84 -221v-79q66 55 103 133t37 166.5t-37 166.5t-103 133zM675 482v-68q56 -51 56 -125.5t-56 -124.5v-69q51 30 81.5 81.5t30.5 112.5t-30.5 112.5t-81.5 80.5z" />
    <glyph glyph-name="arrow-3" unicode="&#xe627;" 
d="M855 427l-320 319q-7 10 -23 10q-7 0 -12.5 -2.5t-7.5 -4.5l-3 -2l-320 -320q-9 -10 -9 -23t9.5 -22.5t22.5 -9.5t23 9l266 266v-819q0 -13 9 -22.5t22 -9.5t22.5 9.5t9.5 22.5v819l265 -266q10 -9 23 -9t22.5 9.5t9.5 22.5t-9 23z" />
    <glyph glyph-name="safe" unicode="&#xe628;" 
d="M863 608q-1 0 -12.5 2.5t-25.5 5.5t-31 7t-27 7l-235 101q-33 11 -68 -5l-174 -78q-8 -4 -29.5 -10.5t-23.5 -7.5l-80 -22q-36 -15 -49.5 -33.5t-13.5 -51.5v-334q0 -34 38 -81.5t89 -89t108 -81t89.5 -60t39.5 -23.5q25 -13 54 -13t54 13q7 3 39.5 23.5t89.5 60
t108 81.5t89 89t38 81v334q0 36 -14 57t-53 28zM884 189q0 -31 -56 -88.5t-134.5 -115t-150.5 -95.5q-31 -16 -62 0q-72 38 -150.5 95.5t-134.5 115t-56 88.5v334q0 20 6 28.5t31 18.5l79 21q4 2 27 9.5t32 11.5l170 76q12 6 20 6q12 0 27 -9l168 -74q4 -2 27 -10.5t24 -9.5
q7 -3 29.5 -8t41 -8.5t20.5 -4.5q26 -1 34 -12t8 -35v-334zM682 402l-243 -181l-96 99q-6 6 -16 6.5t-17 -5.5t-7.5 -14.5t6.5 -15.5l111 -113v0q6 -7 15.5 -7t17.5 6l261 194q7 6 7.5 15t-6 15t-16.5 6.5t-17 -5.5z" />
    <glyph glyph-name="note" unicode="&#xe629;" 
d="M842 714h-660q-49 0 -83 -32t-34 -78v-632q0 -46 34 -78t83 -32h660q49 0 83 32t34 78v632q0 46 -34 78t-83 32zM913 -28q0 -27 -21 -46.5t-50 -19.5h-660q-29 0 -50 19.5t-21 46.5v632q0 27 21 46.5t50 19.5h660q29 0 50 -19.5t21 -46.5v-632zM227 517h567v-45h-567v45z
M227 386h567v-45h-567v45zM227 255h331v-45h-331v45zM629 255h165v-45h-165v45z" />
    <glyph glyph-name="right-2" unicode="&#xe62a;" 
d="M942 735q-63 -33 -125 -87.5t-110.5 -113.5t-93 -124.5t-75.5 -122t-55 -104.5t-35 -73.5t-12 -27.5l-120 241l-250 -156q81 -29 186 -117.5t200 -208.5q34 65 98 154t137 174t147.5 149t123.5 75q-19 44 -26 92.5t-5.5 79t8 88t7.5 82.5z" />
    <glyph glyph-name="question" unicode="&#xe62b;" 
d="M423 388q0 52 22 74t69 22q41 0 62 -23t21 -52.5t-9 -44.5t-41.5 -48.5t-44.5 -50.5q-14 -19 -15 -52v-13v-16.5v-19.5h50q0 33 5.5 52.5t17 33.5t46 47t45 55.5t10.5 49.5q0 61 -41 98q-38 33 -104 36t-110.5 -41t-42.5 -107h60zM488 114h49v-74h-49v74zM512 735
q-91 0 -174 -35.5t-142.5 -95t-95 -142.5t-35.5 -174t35.5 -174t95 -142.5t142.5 -95t174 -35.5t174 35.5t142.5 95t95 142.5t35.5 174t-35.5 174t-95 142.5t-142.5 95t-174 35.5zM512 -110q-108 0 -199.5 53.5t-145 145t-53.5 199.5t53.5 199.5t145 145t199.5 53.5
t199.5 -53.5t145 -145t53.5 -199.5t-53.5 -199.5t-145 -145t-199.5 -53.5z" />
    <glyph glyph-name="list" unicode="&#xe62c;" 
d="M300 453h424v-48h-424v48zM300 312h306v-48h-306v48zM300 171h212v-48h-212v48zM512 735q-91 0 -174 -35.5t-142.5 -95t-95 -142.5t-35.5 -174t35.5 -174t95 -142.5t142.5 -95t174 -35.5t174 35.5t142.5 95t95 142.5t35.5 174t-35.5 174t-95 142.5t-142.5 95t-174 35.5z
M512 -112q-109 0 -201 53.5t-145.5 145.5t-53.5 201t53.5 201t145.5 145.5t201 53.5t201 -53.5t145.5 -145.5t53.5 -201t-53.5 -201t-145.5 -145.5t-201 -53.5z" />
    <glyph glyph-name="chard" unicode="&#xe62d;" 
d="M895 735h-124q-4 0 -4 -16t4 -16h70l-219 -230l-197 167q-12 11 -23 -1l-268 -236q-11 -12 0 -23t23 0l257 228l194 -165q15 -12 29 0l226 237v-68q0 -4 16 -4t16 4v12.5v30.5v36v31v13zM177.5 96q-6.5 0 -11.5 -4t-5 -10v-227q0 -6 5 -10t11.5 -4t11 4t4.5 10v227
q0 6 -4.5 10t-11 4zM512 192q-7 0 -11.5 -4t-4.5 -10v-323q0 -6 4.5 -10t11.5 -4t11.5 4t4.5 10v323q0 6 -4.5 10t-11.5 4zM846.5 336q-6.5 0 -11 -5.5t-4.5 -12.5v-459q0 -8 4.5 -13t11 -5t11.5 5t5 13v459q0 7 -5 12.5t-11.5 5.5z" />
    <glyph glyph-name="pan" unicode="&#xe62e;" 
d="M959 432l-207 247l-552 -463l-135 -319l342 72zM118 -59l109 233l143 -171l-252 -62v0zM408 22l-156 185l371 311l156 -185zM654 544l93 78l155 -185l-93 -78zM389 138l279 234l-26 30l-279 -233z" />
    <glyph glyph-name="USD" unicode="&#xe62f;" 
d="M736.5 471q-92.5 0 -157.5 -65.5t-65 -158t65 -158t157.5 -65.5t157.5 65.5t65 158t-65 158t-157.5 65.5zM736.5 64q-75.5 0 -129 54t-53.5 129.5t53.5 129t129 53.5t129 -53.5t53.5 -129t-53.5 -129.5t-129 -54zM713 -16v-21q0 -25 -18 -43t-43 -18h-486q-25 0 -43 18
t-18 43v650q0 25 18 43t43 18h486q25 0 43 -18t18 -43v-102q13 1 21 1q6 0 20 -1v102q0 42 -30 72t-72 30h-486q-42 0 -71.5 -30t-29.5 -72v-650q0 -42 29.5 -72t71.5 -30h486q42 0 72 30t30 72v21q-14 -1 -20 -1q-7 0 -21 1v0zM187 532h366v-41h-366v41zM187 410h285v-41
h-285v41zM187 288h203v-41h-203v41zM762 267q-41 10 -51 14.5t-10 15.5q0 12 9.5 17.5t21.5 5.5q38 0 40 -30h43q0 28 -17 44t-44 20v32h-41v-33q-24 -5 -39.5 -20.5t-15.5 -38.5q0 -26 16 -38.5t45 -19.5l12 -3t12.5 -3.5t11 -3.5t10 -4t7.5 -5t5.5 -6.5t1.5 -8.5
q0 -25 -40 -25q-19 0 -31.5 9t-12.5 28h-44q0 -29 17 -46.5t45 -22.5v-33h41v31q32 4 50 21t18 43q0 16 -6.5 28t-19 18.5t-18 8.5t-16.5 5z" />
    <glyph glyph-name="arrow-4" unicode="&#xe630;" 
d="M951 399l-878 336l324 -894l195 343l241 -227l36 30l-241 229zM405 -53l-243 695l676 -242l-268 -161l-165 -292v0z" />
    <glyph glyph-name="card-2" unicode="&#xe631;" 
d="M905 564h-786q-22 0 -38 -15t-16 -37v-448q0 -22 16 -37t38 -15h786q22 0 38 15t16 37v448q0 22 -16 37t-38 15zM101 426h822v-35h-822v35zM119 530h786q7 0 12.5 -5t5.5 -13v-52h-822v52q0 8 5.5 13t12.5 5zM905 46h-786q-7 0 -12.5 5t-5.5 13v293h822v-293
q0 -8 -5.5 -13t-12.5 -5zM722 288q-30 0 -55 -18q-24 18 -55 18q-37 0 -64 -25.5t-27 -61t27 -61t64 -25.5q31 0 55 18q25 -18 55 -18q38 0 64.5 25.5t26.5 61t-26.5 61t-64.5 25.5zM612 150q-22 0 -38 15t-16 36.5t16 36.5t38 15q17 0 31 -9q-15 -23 -12 -50t12 -35
q-14 -9 -31 -9zM722 150q-25 0 -41 18q-14 15 -14 34t14 34v0q17 17 41 17q22 0 38.5 -15t16.5 -36.5t-16.5 -36.5t-38.5 -15z" />
    <glyph glyph-name="stars" unicode="&#xe632;" 
d="M512 706q25 0 36 -22l115 -235l266 -38q23 -4 31 -25q5 -15 -9 -29l-194 -190l3 -15l42 -239q4 -22 -16 -35q-10 -8 -23 -8q-10 0 -19 5l-232 123l-232 -123q-9 -5 -19 -5q-13 0 -23 7q-20 14 -16 35l45 255l-11 11l-183 179q-14 14 -9 29q8 21 31 25l266 38l115 235
q11 22 36 22zM512 735q-20 0 -37 -10t-26 -28l-108 -221l-250 -36q-19 -3 -34 -15t-21 -29q-12 -33 16 -60l183 -179l-43 -239q-3 -19 5 -36.5t24 -28.5q18 -12 40 -12q17 0 33 8l218 115l218 -115q16 -8 33 -8q22 0 40 12q16 11 24 28.5t5 36.5l-43 239l183 179
q28 27 16 60q-6 17 -21 29t-34 15l-250 36l-108 221q-9 18 -26 28t-37 10v0z" />
    <glyph glyph-name="honor" unicode="&#xe633;" 
d="M846 735h-668q-47 0 -80.5 -34t-33.5 -82v-662q0 -48 33.5 -82t80.5 -34h668q47 0 80.5 34t33.5 82v662q0 48 -33.5 82t-80.5 34zM914 -43q0 -29 -20 -49.5t-48 -20.5h-668q-28 0 -48 20.5t-20 49.5v662q0 29 20 49.5t48 20.5h668q28 0 48 -20.5t20 -49.5v-662zM420 299
v-182l92 50l92 -50v182q32 23 50.5 57.5t18.5 74.5q0 67 -47 114t-114 47t-114 -47t-47 -114q0 -40 18.5 -74.5t50.5 -57.5zM560 188l-48 38l-46 -36v87q22 -6 46 -6t46 6zM512 552q50 0 85.5 -35.5t35.5 -85.5t-35.5 -85t-85.5 -35t-85.5 35t-35.5 85t35.5 85.5t85.5 35.5z
M305 46h414v-46h-414v46z" />
    <glyph glyph-name="money-1" unicode="&#xe634;" 
d="M512 288q56 0 95 39.5t39 95t-39 94.5t-95 39t-95 -39t-39 -94.5t39 -95t95 -39.5zM512 512q37 0 63 -26.5t26 -63.5t-26 -63t-63 -26t-63 26t-26 63t26 63.5t63 26.5zM959 568q0 51 -32.5 87t-78.5 36h-672q-46 0 -78.5 -36t-32.5 -87v-570q0 -47 32.5 -80t78.5 -33h672
q46 0 78.5 33t32.5 80v570zM196 200h-20q-26 0 -45.5 19.5t-21.5 47.5v53q34 -19 56.5 -50.5t30.5 -69.5zM109 178q30 -24 67 -24h672q37 0 67 25v-47q0 -28 -19.5 -47.5t-47.5 -19.5h-672q-28 0 -47.5 19.5t-19.5 47.5v46zM823 200q24 71 92 104v-30q0 -31 -19.5 -52.5
t-47.5 -21.5h-25zM848 644q28 0 47.5 -21.5t19.5 -51.5v-30q-67 33 -91 103h24zM109 571q0 30 19.5 51.5t47.5 21.5h19q-7 -38 -30 -69t-56 -51v47zM109 474q52 23 87.5 68t44.5 102h536q14 -52 50.5 -92.5t87.5 -59.5v-140q-51 -19 -88 -59t-51 -93h-535q-9 57 -44.5 102.5
t-87.5 67.5v104zM848 -70h-672q-28 0 -47.5 20t-19.5 48v44q30 -23 67 -23h672q37 0 67 23v-44q0 -28 -19.5 -48t-47.5 -20z" />
    <glyph glyph-name="star-1" unicode="&#xe635;" 
d="M236 -159l276 212l277 -212l-107 342l277 206l-342 -1l-105 347l-105 -347l-342 1l277 -206z" />
    <glyph glyph-name="wifi" unicode="&#xe636;" horiz-adv-x="1457" 
d="M1163 245q-86 93 -198.5 142.5t-236 49.5t-235.5 -49.5t-199 -142.5q-11 -12 -28 -32l-10 -13l144 -150l12 17q12 16 26 31q57 62 132.5 95.5t158 33.5t157.5 -33.5t133 -95.5q14 -15 25 -31l13 -17l144 150l-10 13q-17 20 -28 32zM1059 104q-10 12 -16 18
q-62 68 -143.5 104t-172 36t-172 -36t-144.5 -104q-5 -6 -16 -18l-92 98q2 3 8 9t9 10q81 87 186.5 134t221.5 47t222 -46.5t186 -134.5q6 -6 17 -18zM1446 479q-13 16 -29 32q-137 146 -315 223.5t-374 77.5t-373.5 -77.5t-314.5 -223.5l-29 -32l-11 -12l147 -154l13 15
q9 12 27 31q108 115 247.5 176.5t292.5 61.5q154 0 293.5 -61.5t247.5 -176.5q19 -21 27 -31l12 -15l150 154zM1310 365q-3 3 -8 9t-8 9q-113 120 -259 184t-307 64t-307 -64t-259 -184q-5 -5 -15 -18l-99 103q2 3 8 9t8 9q134 141 305 216t359 75t359.5 -75t303.5 -216
q6 -6 17 -18zM732.5 70q-58.5 0 -100 -41t-41.5 -99.5t41.5 -100t100 -41.5t100 41.5t41.5 100t-41.5 99.5t-100 41zM732.5 -177q-43.5 0 -74.5 31.5t-31 75t31 74.5t74.5 31t75 -31t31.5 -74.5t-31.5 -75t-75 -31.5z" />
    <glyph glyph-name="weibiaoti2" unicode="&#xe637;" horiz-adv-x="1154" 
d="M275 433h267q7 0 12 5t5 12.5t-5 12.5t-12 5h-267q-7 0 -12 -5t-5 -12.5t5 -12.5t12 -5zM34 261v465q0 21 15.5 36.5t36.5 15.5h809q21 0 36.5 -15.5t15.5 -36.5v-3h34v3q0 35 -25.5 60.5t-60.5 25.5h-809q-35 0 -60.5 -25.5t-25.5 -60.5v-465q0 -35 25.5 -60.5
t60.5 -25.5h3v35h-3q-21 0 -36.5 15t-15.5 36zM998 313h-723q-7 0 -12 -5t-5 -12t5 -12.5t12 -5.5h723q7 0 12 5.5t5 12.5t-5 12t-12 5zM1067 683h-860q-36 0 -61.5 -25.5t-25.5 -60.5v-516q0 -36 25.5 -61t61.5 -25h180q1 -3 2 -9t2 -9q4 -28 4 -53q0 -50 -14 -92
q-6 -22 9 -35q1 0 3 -2t4 -3l6 -2q7 -2 10 -2q16 0 27 12l198 195h429q36 0 61 25t25 61v516q0 35 -25 60.5t-61 25.5zM1119 81q0 -22 -15.5 -37t-36.5 -15h-435v-1l-3 2h-1l-212 -208h-1q14 49 14 101q0 45 -10 85q1 6 -3 12q-2 5 -3 7h-86v0h-120q-22 0 -37 15.5t-15 36.5
v518q0 21 15 36.5t37 15.5h860q21 0 36.5 -15.5t15.5 -36.5v-516z" />
    <glyph glyph-name="arrow-top" unicode="&#xe638;" 
d="M153 119l29 -29l338 338l337 -338l30 29l-367 367z" />
    <glyph glyph-name="arrow-right" unicode="&#xe639;" 
d="M343 669l-29 -30l338 -338l-338 -337l29 -29l367 366z" />
    <glyph glyph-name="arrow-bottom" unicode="&#xe63a;" 
d="M893 457l-30 29l-338 -338l-337 338l-29 -29l366 -367z" />
    <glyph glyph-name="iconnologin" unicode="&#xe63b;" 
d="M427 309q90 0 154 64t64 154.5t-64 154.5t-154 64t-154 -64t-64 -154.5t64 -154.5t154 -64zM427 726q82 0 140.5 -58.5t58.5 -140.5t-58.5 -140.5t-140.5 -58.5t-140 58.5t-58 140.5t58 140.5t140 58.5zM706 215q-74 0 -126.5 -52.5t-52.5 -127t52.5 -127t126.5 -52.5
t126.5 52.5t52.5 127t-52.5 127t-126.5 52.5zM706 -125q-66 0 -113 47t-47 113.5t47 113.5t113 47t113 -47t47 -113.5t-47 -113.5t-113 -47zM692 242q7 -6 13 1v0q8 7 0 14q-35 29 -81 29h-359q-52 0 -89 -37.5t-37 -90.5v-294q0 -10 9.5 -10t9.5 10v294q0 45 31.5 77
t75.5 32h359q38 0 68 -25zM817 43h-223q-9 0 -9 -9.5t9 -9.5h223q10 0 10 9.5t-10 9.5z" />
    <glyph glyph-name="hasmessage" unicode="&#xe63c;" 
d="M512 527q47 0 88 -18t72 -49t49 -72t18 -89q0 -46 -18 -87t-49 -72t-72 -49t-88 -18t-88 18t-72 49t-49 72t-18 87q0 48 18 89t49 72t72 49t88 18v0v0zM512 527z" />
    <glyph glyph-name="home" unicode="&#xe60c;" 
d="M990 322l-388 446q-32 32 -79 32q-49 0 -79 -34l-410 -442q-19 -21 -24.5 -46t5.5 -50q13 -30 45 -49t72 -19h5v-277q0 -45 31.5 -76t74.5 -31h194v277q0 10 6.5 16t15.5 6h128q9 0 15 -6t6 -16v-277h173q45 0 75.5 31t30.5 76v277h5q40 0 72 18.5t45 49.5q11 25 5.5 50
t-24.5 44zM971 245q-7 -17 -28 -29.5t-51 -12.5h-47v-320q0 -27 -19 -45.5t-45 -18.5h-128v234q0 27 -19 45.5t-45 18.5h-128q-27 0 -45.5 -18t-18.5 -46v-234h-150q-27 0 -45.5 18t-18.5 46v320h-51q-29 0 -49.5 12t-29.5 30q-10 28 11 49l410 444q19 19 49 19q31 0 47 -19
l388 -444q23 -22 13 -49z" />
    <glyph glyph-name="home-fill" unicode="&#xe60d;" horiz-adv-x="1025" 
d="M1003 309l-412 463q-27 27 -67 27t-67 -27l-435 -463q-20 -20 -21.5 -43.5t11 -43t39 -32.5t58.5 -13h28v-311q0 -37 26.5 -63.5t65.5 -26.5h181v267q0 17 13.5 30.5t31.5 13.5h136q19 0 32 -12.5t13 -31.5v-267h160q37 0 64.5 26.5t27.5 63.5v311h28q32 0 58 13.5t39 33
t11 43t-21 42.5z" />
    <glyph glyph-name="sjx" unicode="&#xe647;" horiz-adv-x="2390" 
d="M1195 800l-1195 -1024h2389z" />
    <glyph glyph-name="box" unicode="&#xe640;" horiz-adv-x="1517" 
d="M1184 800h-849l-335 -364v-660h1516v660zM354 741h808l276 -305h-473v-40q0 -6 -2 -19q-11 -64 -69 -106t-136 -42t-135.5 42t-69.5 106q-2 13 -2 19v0v40h-472zM1457 -165h-1398v542h434q9 -88 85 -147.5t180 -59.5t180 59.5t85 147.5h434v-542z" />
    <glyph glyph-name="search" unicode="&#xe63d;" 
d="M480 736q113 0 208.5 -55.5t151 -151t55.5 -208t-55.5 -208t-151 -151t-208.5 -55.5t-208.5 55.5t-151 151t-55.5 208t55.5 208t151 151t208.5 55.5zM480 800q-97 0 -186 -38t-153 -102t-101.5 -152.5t-37.5 -186t37.5 -186t101.5 -152.5t153 -102t186.5 -38t186 38
t152.5 102t102 152.5t38 186t-38 186t-102 152.5t-152.5 102t-186.5 38v0zM837 2q-5 -7 -12.5 -14t-17 -16t-14.5 -14l185 -182l44 45z" />
    <glyph glyph-name="pack" unicode="&#xe63e;" 
d="M629 186q12 0 21.5 8.5t9.5 21.5q0 12 -8.5 21t-22.5 9h-57l30 30q9 9 9 21t-9 21t-21 9t-21 -9l-51 -54l-51 51q-9 9 -21 9t-21 -9t-9 -21t9 -21l30 -30h-57q-12 0 -21.5 -8.5t-9.5 -21.5q0 -12 8.5 -21t22.5 -9h90v-58h-90q-12 0 -21.5 -8t-9.5 -19t8.5 -19t22.5 -8h90
v-84q0 -14 8 -22t22 -8q11 0 20.5 9.5t9.5 20.5v84h90q12 0 21.5 8t9.5 19q0 12 -8.5 19.5t-22.5 7.5h-90v58h90v3zM870 396q-8 11 -16.5 20.5t-18.5 19t-17.5 16.5t-18.5 16l-16.5 13.5t-18 13.5t-15.5 11t-16 11l-13 9l-36 27q1 2 6.5 6.5t10 9t7.5 8.5q22 18 35 31.5
t26.5 39t13.5 53.5q0 64 -102 90q-49 9 -145 9h-24h-3v0h-24q-96 0 -145 -12q-57 -12 -79.5 -37t-22.5 -53t13.5 -53.5t26.5 -39t35 -31.5q3 -3 12 -10.5t12 -10.5q-4 -4 -10 -8.5t-14 -10t-12 -8.5q-1 -1 -20.5 -14.5l-26 -18t-24.5 -18.5t-28.5 -23.5t-25 -24.5t-25.5 -31
q-94 -115 -94 -271q0 -166 130 -259q117 -85 322 -90v0h3h3v0q205 5 322 90q130 93 130 259q-10 158 -97 271zM798 -91q-106 -79 -289 -79q-190 5 -289 79q-106 77 -106 216q0 44 8.5 84t20.5 69.5t32 58.5t37 47.5t42.5 39t40.5 31t39 26.5q3 1 7 5q22 15 31.5 22
t17.5 17.5t8 21.5q0 13 -7.5 25.5t-15 19.5t-23.5 21q-29 22 -44.5 41t-15.5 44q0 22 60 36q67 12 133 12h24v0v0v0h3v0v0h24q88 0 133 -12q60 -14 60 -36q0 -25 -14.5 -43.5t-42.5 -41.5q-16 -14 -23.5 -21t-15 -19.5t-7.5 -25.5q0 -17 15.5 -31.5t48.5 -34.5
q25 -17 38 -26t40 -31t43 -40t37 -47t32.5 -58.5t20.5 -69.5t9 -84q-5 -141 -112 -216z" />
    <glyph glyph-name="no-wifi" unicode="&#xe63f;" horiz-adv-x="1388" 
d="M1356 487q-130 131 -302 203.5t-363 72.5t-363 -72.5t-302 -203.5l-26 27q135 135 313.5 210.5t377.5 75.5t377.5 -75.5t313.5 -210.5zM691.5 483q134.5 0 255 -51t212.5 -142l-30 -30q-86 88 -200.5 137t-241.5 49q-126 0 -239.5 -47.5t-198.5 -133.5l-25 25
q91 91 212 142t255.5 51zM691 186q94 0 176 -46l-18 -32q-74 40 -158 40q-66 0 -125.5 -25t-104.5 -70l-27 26q51 51 117 79t140 28zM691.5 -140q15.5 0 26 -11t10.5 -26.5t-10.5 -26.5t-26 -11t-26.5 11t-11 26.5t11 26.5t26.5 11zM1045 167q81 0 138 -57.5t57 -138
t-57 -138t-138 -57.5t-138.5 57.5t-57.5 138t57.5 138t138.5 57.5zM961 -99l13 -13l71 71l71 -71l13 13l-71 70l71 71l-13 13l-71 -71l-71 71l-13 -13l71 -71z" />
    <glyph glyph-name="tv-fill" unicode="&#xe60f;" 
d="M927 -17l-353 -181q-62 -31 -124 0l-353 181q-35 18 -54.5 50t-19.5 71v379q0 39 19.5 71t54.5 50l353 181q62 31 124 0l353 -181q35 -18 54.5 -50t19.5 -71v-379q0 -39 -19.5 -71t-54.5 -50zM501 66q0 -9 6.5 -16t16 -7t16 7t6.5 16v205q0 9 -6.5 15.5t-16 6.5t-16 -6.5
t-6.5 -15.5v-205zM296 66q0 -9 6.5 -16t16 -7t16.5 7t7 16v182q0 9 -7 16t-16.5 7t-16 -7t-6.5 -16v-182zM751 498q0 9 -7 16t-16 7h-114q-9 0 -16 -7t-7 -16t7 -16t16 -7h56q-143 -121 -373 -113h-4q-9 0 -16 -6t-7 -15.5t6 -16.5t15 -7h4q15 -1 28 -1q235 0 382 131v-63
q0 -10 7 -16.5t16.5 -6.5t16 6.5t6.5 16.5v114zM751 316q0 10 -6.5 16.5t-16 6.5t-16.5 -6.5t-7 -16.5v-250q0 -9 7 -16t16.5 -7t16 7t6.5 16v250z" />
    <glyph glyph-name="people-2-fill" unicode="&#xe611;" 
d="M512 -202q-100 0 -190.5 39t-156 104.5t-104.5 156t-39 190.5t39 190.5t104.5 156t156 104.5t190.5 39t190.5 -39t156 -104.5t104.5 -156t39 -190.5t-39 -190.5t-104.5 -156t-156 -104.5t-190.5 -39zM512 533q-65 0 -110.5 -45.5t-45.5 -110.5t45.5 -110.5t110.5 -45.5
t110.5 45.5t45.5 110.5t-45.5 110.5t-110.5 45.5zM779 43q0 55 -39 94.5t-94 39.5h-268q-55 0 -94 -39.5t-39 -94.5v-121q4 -3 12.5 -8.5t35.5 -19t56 -24t73.5 -19t89.5 -8.5q46 0 90 8t74.5 20t55 23.5t35.5 19.5l12 8v121z" />
    <glyph glyph-name="people-2" unicode="&#xe641;" 
d="M791 -141v0v0q-127 -83 -279 -83t-279 83v0v0q-107 70 -170 183.5t-63 245.5q0 104 40.5 199t109 163.5t163.5 109t199 40.5t199 -40.5t163.5 -109t109 -163.5t40.5 -199q0 -132 -63 -245.5t-170 -183.5zM745 -115v124q0 116 -117 116h-232q-117 0 -117 -116v-124
q109 -62 233 -62t233 62zM512 753q-95 0 -181 -36.5t-148.5 -99t-99 -148.5t-36.5 -181q0 -112 49.5 -209.5t136.5 -162.5v116q0 58 41 99t98 41h280q57 0 98 -41t41 -99v-116q87 65 136.5 162.5t49.5 209.5q0 95 -36.5 181t-99 148.5t-148.5 99t-181 36.5zM512 218
q-67 0 -115 48t-48 115.5t48 115t115 47.5t115 -47.5t48 -115t-48 -115.5t-115 -48zM512 497q-48 0 -82 -34t-34 -82t34 -82t82 -34t82 34t34 82t-34 82t-82 34z" />
    <glyph glyph-name="tv" unicode="&#xe642;" 
d="M927 -17l-353 -181q-62 -31 -124 0l-353 181q-35 18 -54.5 50t-19.5 71v379q0 39 19.5 71t54.5 50l353 181q62 31 124 0l353 -181q35 -18 54.5 -50t19.5 -71v-379q0 -39 -19.5 -71t-54.5 -50zM955 464q0 35 -17.5 64t-49.5 45l-320 162q-56 28 -112 0l-320 -162
q-32 -16 -50 -45t-18 -64v-340q0 -36 18 -64.5t50 -44.5l320 -162q56 -29 112 0l320 162q32 16 49.5 44.5t17.5 64.5v340zM728.5 43q-9.5 0 -16.5 7t-7 16v250q0 10 7 16.5t16.5 6.5t16 -6.5t6.5 -16.5v-250q0 -9 -6.5 -16t-16 -7zM728.5 361q-9.5 0 -16.5 6.5t-7 16.5v63
q-147 -131 -382 -131q-13 0 -28 1h-4q-9 0 -15 7t-6 16.5t7 15.5t16 6h4q230 -8 373 113h-56q-9 0 -16 7t-7 16t7 16t16 7h114q9 0 16 -7t7 -16v-114q0 -10 -6.5 -16.5t-16 -6.5zM318.5 271q9.5 0 16.5 -7t7 -16v-182q0 -9 -7 -16t-16.5 -7t-16 7t-6.5 16v182q0 9 6.5 16
t16 7zM523.5 293q9.5 0 16 -6.5t6.5 -15.5v-205q0 -9 -6.5 -16t-16 -7t-16 7t-6.5 16v205q0 9 6.5 15.5t16 6.5z" />
    <glyph glyph-name="wate" unicode="&#xe648;" horiz-adv-x="1366" 
d="M853 -224h-341q-139 0 -257 68.5t-186.5 186.5t-68.5 257t68.5 257t186.5 186.5t257 68.5h341q104 0 199 -40.5t163.5 -109t109 -163.5t40.5 -199t-40.5 -199t-109 -163.5t-163.5 -109t-199 -40.5zM426.5 459q-70.5 0 -120.5 -50t-50 -121t50 -121t120.5 -50t120.5 50
t50 121t-50 121t-120.5 50zM938.5 459q-70.5 0 -120.5 -50t-50 -121t50 -121t120.5 -50t120.5 50t50 121t-50 121t-120.5 50z" />
    <glyph glyph-name="asseti" unicode="&#xe60e;" horiz-adv-x="1044" 
d="M1043 298h-40h-443h-38v38v423v40v1h38v0q127 -3 235 -65t174 -167.5t73 -231.5h1v-38v0zM560 760v-424h442q-7 115 -67.5 211.5t-159.5 153t-215 59.5zM966 259v0v0v-39h-2q-2 -21 -6 -44v-1v-1q-3 -20 -9 -41l-0.5 -2t-0.5 -3q-5 -17 -13 -37l-0.5 -2.5t-1.5 -3.5
q-6 -17 -15 -34q-3 -7 -3 -8q-8 -15 -17 -31l-6 -9q-9 -14 -19 -28q-3 -4 -7 -9q-10 -14 -20 -25q-3 -4 -10 -10q-11 -13 -20 -22q-4 -3 -12 -11q-13 -11 -22 -18q-4 -3 -14 -11q-14 -10 -22 -15q-4 -2 -17 -10q-15 -9 -22 -13q-3 -2 -19 -9q-17 -8 -22 -10q-4 -2 -22 -8
q-19 -6 -21 -7q-6 -2 -26 -7l-7.5 -2t-11.5 -3q-9 -1 -30 -4q-2 0 -8 -1t-9 -2q-24 -2 -48 -2q-98 0 -187.5 38.5t-154 103t-103 154t-38.5 187.5q0 24 2 48q1 3 2 9t1 8q3 21 4 30l2 6t2 7t1 6q5 20 7 26l7 21t8 22.5t10 21.5q7 16 9 19q4 7 13 22q8 13 10 17q6 8 15 22
q8 10 11 14q7 9 18 22q8 8 11 12q9 9 22 20q6 7 10 10q12 10 25 20q6 5 9 7q14 10 28 19q4 2 9 6q16 9 31 17q1 0 8 3q17 9 34 15q1 1 3 1.5t3 0.5q20 8 37 13q1 0 2.5 0.5t2.5 0.5q21 6 41 9h1h1q23 4 44 6v2v0h39v0v0v-483h444h39z" />
    <glyph glyph-name="firend" unicode="&#xe610;" 
d="M512 800q-104 0 -199 -35.5t-163.5 -95t-109 -142t-40.5 -173.5t40.5 -173.5t109 -142t163.5 -95t199 -35.5v-132q312 218 366 266q69 62 107.5 142.5t38.5 169.5q0 91 -40.5 173.5t-109 142t-163.5 95t-199 35.5v0zM765 285q-28 0 -48 19.5t-20 47t20 47t48 19.5
t48 -19.5t20 -47t-20 -47t-48 -19.5v0zM510 285q-28 0 -48 19.5t-20 47t20 47t48 19.5t48 -19.5t20 -47t-20 -47t-48 -19.5v0zM253 285q-28 0 -48 19.5t-20 47t20 47t48 19.5t48 -19.5t20 -47t-20 -47t-48 -19.5v0z" />
    <glyph glyph-name="mpack" unicode="&#xe643;" 
d="M951 210q0 -88 -35 -168.5t-93.5 -138.5t-140 -92.5t-170.5 -34.5t-170.5 34.5t-140 92.5t-93.5 138.5t-35 168.5q0 118 61 220t165 159q-30 30 -47.5 63t-17.5 58q0 43 24.5 66.5t68.5 23.5q34 0 118 -44q52 -27 64 -28q12 1 65 28q84 44 118 44q44 0 68.5 -23.5
t24.5 -66.5q0 -25 -17 -57t-47 -62q106 -56 168 -159t62 -222zM402 142q-7 0 -12.5 -5.5t-5.5 -13t5.5 -13t12.5 -5.5h91v-109l37 -1v110h92q7 0 12.5 5.5t5.5 13t-5.5 13t-12.5 5.5h-92v36h92q7 0 12.5 5.5t5.5 13t-5.5 13t-12.5 5.5h-80l95 141l-30 20l-95 -139l-96 139
l-30 -20l97 -141h-81q-7 0 -12.5 -5.5t-5.5 -13t5.5 -13t12.5 -5.5h91v-36h-91zM506 508h-6h3h3zM749 710q0 28 -14 41t-43 13q-25 0 -102 -39q-60 -31 -80 -32v0h-2v0q-20 1 -80 32q-76 39 -101 39q-30 0 -43.5 -13t-13.5 -41q0 -18 15.5 -45.5t43 -55t73.5 -46.5t98 -19
h18q53 0 99 19t73.5 46.5t43 55t15.5 45.5z" />
    <glyph glyph-name="jiaoyi" unicode="&#xe644;" 
d="M802 -224h-561q-54 0 -91.5 38.5t-37.5 92.5v743q0 55 37.5 93t91.5 38h373v-204q0 -47 33 -79.5t79 -32.5h205v-558q0 -54 -38 -92.5t-91 -38.5zM596 390h-335v-37h335v37zM707 204h-446v-37h446v37zM707 18h-446v-37h446v37zM652 585v195l274 -278h-190q-84 0 -84 83z
" />
    <glyph glyph-name="about" unicode="&#xe645;" 
d="M512 -224q-104 0 -199 40.5t-163.5 109t-109 163.5t-40.5 199t40.5 199t109 163.5t163.5 109t199 40.5t199 -40.5t163.5 -109t109 -163.5t40.5 -199t-40.5 -199t-109 -163.5t-163.5 -109t-199 -40.5zM473 33q0 -9 11.5 -15t27.5 -6t27.5 6t11.5 15v352q0 9 -11.5 15
t-27.5 6t-27.5 -6t-11.5 -15v-352zM551 544h-78v-79h78v79z" />
    <glyph glyph-name="safecenter" unicode="&#xe646;" 
d="M517 -223v-1h-5h-5v1q-25 5 -76.5 29.5t-114 64t-119 84t-94.5 97t-38 97.5v504q0 14 14 18l433 129v-72v72l433 -129q14 -4 14 -18v-504q0 -45 -38 -97.5t-94.5 -97t-119 -84t-114 -64t-76.5 -29.5zM754 372h-205v205h-74v-205h-205v-74l205 -1v-204h74v204h205v75z" />
    <glyph glyph-name="fire" unicode="&#xe649;" 
d="M886 184v-48l-2 -7q-1 -8 -4 -24.5t-5.5 -29t-5.5 -23.5q-33 -108 -124 -185q-72 -61 -156 -80q-2 -1 -58 -11h-50q-6 2 -7 2q-78 5 -147 40q-139 69 -179 203q-1 2 -13 62v46q5 33 5 34q13 68 62 135q4 6 36 48.5t48 65.5q46 69 34 142q0 5 -2 15t-2 16h1h2
q81 -83 65 -235l6 6q85 114 60 243q-18 89 -76 151q-8 8 -17.5 16.5t-22 18.5t-18.5 15h20l5 -2q48 -4 100 -29q102 -49 181 -148q115 -147 128 -312q6 -65 -13 -131q-1 -3 -17 -49q34 14 55 45q58 82 44 195q5 -6 5 -7q40 -61 53 -124zM499 270l-1 -1t-2 -1q-3 -49 -4 -53
q-4 -44 -21 -78q-20 -36 -71 -63q-51 -25 -54 -74q-4 -59 39 -91q38 -29 96 -27q90 3 115 83q15 52 2 120q-18 88 -66 150q-1 2 -33 35z" />
    <glyph glyph-name="people2" unicode="&#xe661;" horiz-adv-x="1163" 
d="M1155 -122.5q-8 -5.5 -18 -5.5h-556h-555q-11 0 -18.5 5.5t-7.5 12.5q0 72 17.5 130t47 98t74.5 70t92.5 47.5t109.5 28t117.5 14t123 3.5t123 -3.5t117.5 -14t109.5 -28t92.5 -47.5t74 -70t47 -98t18 -130q0 -7 -8 -12.5zM578.5 323q-117.5 0 -201 84t-83.5 202.5
t83.5 202.5t201 84t201.5 -84t84 -202.5t-84 -202.5t-201.5 -84z" />
    <glyph glyph-name="yaoqing" unicode="&#xe64a;" 
d="M512 800q-139 0 -257 -68.5t-186.5 -186.5t-68.5 -257t68.5 -257t186.5 -186.5t257 -68.5t257 68.5t186.5 186.5t68.5 257t-68.5 257t-186.5 186.5t-257 68.5v0zM166 245q0 49 31.5 101t86.5 70q-38 35 -38 91q0 41 26.5 70.5t63.5 29.5q44 0 71 -38q-33 -17 -53 -50.5
t-20 -74.5q0 -35 14 -68t38 -55q-54 -18 -91.5 -60.5t-55.5 -95.5q-73 22 -73 80v0zM505 -45q-67 0 -116 11t-80.5 39.5t-31.5 73.5q0 41 16 85.5t53.5 86t87.5 59.5q-24 22 -38.5 55.5t-14.5 68.5q0 57 36 96.5t86.5 39.5t86.5 -39.5t36 -96.5q0 -35 -14 -68t-38 -55
q51 -17 89 -59t54.5 -87t16.5 -86q0 -45 -32 -73.5t-81 -39.5t-116 -11v0v0zM783 160q-18 53 -55.5 95.5t-91.5 60.5q24 22 38 55t14 68q0 41 -20 75t-53 50q28 38 71 38q37 0 63.5 -29.5t26.5 -70.5q0 -56 -38 -91q55 -18 86.5 -70t31.5 -101q0 -58 -73 -80v0z" />
    <glyph glyph-name="huodong2" unicode="&#xe64b;" 
d="M897 51q-21 -120 -123.5 -197.5t-268.5 -77.5q-86 0 -157.5 25t-118 66.5t-75 90t-37.5 99.5q-19 104 20.5 194.5t113.5 154.5q35 30 66.5 65t45.5 54l14 20h254q5 -7 15 -20.5t44.5 -51t73.5 -69.5q169 -142 133 -353v0zM714 708q-13 -8 -24.5 -19.5t-15 -16
t-16.5 -20.5q-6 -9 -16 -20.5t-17 -18.5l-6 -7h-233q-28 30 -44 52q-19 28 -53 52q-16 12 -20 28t10 29q13 8 24.5 5t29 -8t27 -3.5t16 6t16 12.5t18.5 13q15 9 33.5 7t26.5 -12q6 -5 14 -11.5t13 -9.5l6 -4q6 1 24 18q15 14 27 18t35 -3q12 -4 29.5 -19.5t34.5 -15.5
q12 0 32 8.5t34 2.5q21 -9 17.5 -30t-22.5 -33z" />
    <glyph glyph-name="huodong1" unicode="&#xe64c;" horiz-adv-x="1233" 
d="M1233 -37q0 -36 -25 -60.5t-66 -23.5q-12 0 -27 -0.5t-25 0.5q-12 0 -19.5 3t-12.5 6.5t-8.5 12.5t-5.5 15.5t-5.5 22t-6.5 24.5q-16 64 -65.5 143.5t-94.5 132.5t-65 65q-23 13 -30.5 21t-4.5 14t12.5 17t20 26t19 46t8.5 72q0 81 -29 141q-6 11 -8.5 17.5t-3.5 15.5
t2.5 13.5t13 7.5t25.5 2q83 -2 141.5 -59t58.5 -138q0 -51 -24 -94t-65 -70q21 -5 33 -8q72 -21 131.5 -80.5t92.5 -135t33 -149.5v0v0v0v0v0zM939 -133q0 -91 -97 -91h-251.5h-301.5h-192q-33 0 -54 7.5t-30 22.5t-11 27.5t-2 33.5q0 156 95 283t240 167q-62 33 -94.5 92.5
t-32.5 133.5q0 106 77 181.5t185 75.5t184.5 -75.5t76.5 -181.5q0 -73 -34 -132.5t-97 -93.5q145 -41 243 -168.5t96 -281.5v0v0v0v0z" />
    <glyph glyph-name="huodong21" unicode="&#xe64d;" 
d="M897 51q-21 -120 -123.5 -197.5t-268.5 -77.5q-86 0 -157.5 25t-118 66.5t-75 90t-37.5 99.5q-19 104 20.5 194.5t113.5 154.5q35 30 66.5 65t45.5 54l14 20h254q5 -7 15 -20.5t44.5 -51t73.5 -69.5q169 -142 133 -353v0zM507 317q-80 0 -136.5 -56.5t-56.5 -136.5
t56.5 -136.5t136.5 -56.5t136.5 56.5t56.5 136.5t-56.5 136.5t-136.5 56.5zM588 72q-1 -62 -63 -69v-24h-30v24q-56 5 -68 74l38 11q9 -46 30 -51v75q-62 19 -61 69q3 59 61 66v22h30v-22q49 -7 60 -66l-37 -13q-7 38 -23 42v-64q64 -19 63 -74zM525 37q25 5 25 34
q0 23 -25 33v-67zM495 211q-22 -3 -22 -29q-1 -20 22 -29v58zM714 708q-13 -8 -24.5 -19.5t-15 -16t-16.5 -20.5q-6 -9 -16 -20.5t-17 -18.5l-6 -7h-233q-28 30 -44 52q-19 28 -53 52q-16 12 -20 28t10 29q13 8 24.5 5t29 -8t27 -3.5t16 6t16 12.5t18.5 13q15 9 33.5 7
t26.5 -12q6 -5 14 -11.5t13 -9.5l6 -4q6 1 24 18q15 14 27 18t35 -3q12 -4 29.5 -19.5t34.5 -15.5q12 0 32 8.5t34 2.5q21 -9 17.5 -30t-22.5 -33z" />
    <glyph glyph-name="nav-user" unicode="&#xe650;" horiz-adv-x="1060" 
d="M934 6l-55 2v22v27q-7 102 -58.5 186.5t-135.5 131.5q-67 -64 -159.5 -64t-159.5 63q-84 -46 -135.5 -130.5t-58.5 -186.5v-27q0 -18 1 -36l-55 -5q-1 20 -1 41q0 15 1 30q7 113 63.5 208t148.5 149q-38 59 -38 128q0 97 68.5 166t165 69t165 -69t68.5 -166
q0 -69 -38 -128q92 -54 148.5 -149t63.5 -207q1 -16 1 -31v-24v0zM525.5 724q-73.5 0 -126 -52.5t-52.5 -126.5t52.5 -126.5t126 -52.5t126 52.5t52.5 126.5t-52.5 126.5t-126 52.5z" />
    <glyph glyph-name="nav-logo" unicode="&#xe651;" 
d="M717 572l47 -46l-47 -46l-46 46zM454 408v59h119q-1 32 -1 53v34h58v-34q0 -22 1 -53h175v-59h-176q1 -8 2.5 -28t3 -36t3.5 -24h166v-59h-157q12 -47 24 -78q20 12 43 30t37 31l13 12l45 -41q-56 -53 -116 -90q15 -22 32 -42.5t31.5 -34.5t26.5 -24.5t19 -16t7 -4.5
l-61 -12q-6 4 -16 12.5t-37 37t-48 60.5q-9 -5 -29 -18t-30 -18.5t-27 -14.5t-33.5 -16t-36.5 -13l-11 -4l-18 59l10 3q20 6 36 13t33.5 16.5t25.5 14.5t29.5 18.5t26.5 17.5q-19 48 -32 102h-137v59h126q-1 8 -8 88h-119zM427 408h-200l45 137l33 -19l-19 -60h141v-58z
M1008.5 426q-7.5 -19 -27.5 -19h-57v-467q0 -12 -8.5 -20.5t-20.5 -8.5h-582q-12 0 -21.5 8.5t-9.5 20.5v0h-3v263h-58v58h58l-1 59h-57v60h205v-60h-88l1 -59h87v-58h-87v-234h526l-3 468q0 12 8.5 20.5t20.5 8.5h16l-392 362l-398 -362h16q12 0 20.5 -8.5t8.5 -20.5v-504
q0 -12 -8.5 -20.5t-20.5 -8.5t-20.5 8.5t-8.5 20.5v474h-61q-20 0 -27 19t7 32l471 430q9 8 21 8t21 -8l465 -430q15 -13 7.5 -32z" />
    <glyph glyph-name="dowload" unicode="&#xe652;" 
d="M512 -128q-104 0 -199 40.5t-163.5 109t-109 163.5t-40.5 199t40.5 199t109 163.5t163.5 109t199 40.5t199 -40.5t163.5 -109t109 -163.5t40.5 -199t-40.5 -199t-109 -163.5t-163.5 -109t-199 -40.5zM512 842q-93 0 -178 -36.5t-146.5 -97.5t-97.5 -146t-36 -178t36 -178
t97.5 -146t146.5 -97.5t178 -36.5t178 36.5t146.5 97.5t97.5 146t36 178t-36 178t-97.5 146t-146.5 97.5t-178 36.5zM538 108q-11 -12 -27 -7q-16 -4 -26 7l-202 201q-8 8 -8 20t8.5 20.5t20 8.5t20.5 -9l160 -160v423q0 11 8 19.5t20 8.5t20 -8.5t8 -19.5v-423l158 158
q9 9 20.5 9t19.5 -8.5t8 -20t-8 -20.5z" />
    <glyph glyph-name="eczr" unicode="&#xe653;" 
d="M512 -128q-104 0 -199 40.5t-163.5 109t-109 163.5t-40.5 199t40.5 199t109 163.5t163.5 109t199 40.5t199 -40.5t163.5 -109t109 -163.5t40.5 -199t-40.5 -199t-109 -163.5t-163.5 -109t-199 -40.5zM512 842q-93 0 -178 -36.5t-146.5 -97.5t-97.5 -146t-36 -178t36 -178
t97.5 -146t146.5 -97.5t178 -36.5t178 36.5t146.5 97.5t97.5 146t36 178t-36 178t-97.5 146t-146.5 97.5t-178 36.5zM767 270h-445l111 -114q8 -9 8 -20.5t-8.5 -19.5t-19.5 -8q-12 0 -20 9l-156 162q-13 13 -6 30t26 17h510q11 0 19.5 -8t8.5 -19.5t-8.5 -20t-19.5 -8.5z
M767 413h-510q-12 0 -20 8t-8 19.5t8 20t20 8.5h444l-111 114q-8 9 -7.5 20.5t8.5 19.5t19.5 8t19.5 -9l157 -162q13 -13 5.5 -30t-25.5 -17z" />
    <glyph glyph-name="tzjl" unicode="&#xe654;" horiz-adv-x="1366" 
d="M1354 -73q8 -11 6 -25t-13 -23q-9 -7 -21 -7q-17 0 -27 14l-234 312q-3 3 -5 9q-85 -48 -180 -48q-101 0 -186 49.5t-134 134.5t-49 185t49 184.5t134 134t185.5 49.5t185.5 -49.5t134.5 -134t49.5 -184.5q0 -85 -36 -159t-99 -125l5 -5zM1180 528q0 124 -88 211.5
t-212.5 87.5t-212.5 -87.5t-88 -211.5t88 -212t213 -88q95 0 172 54q60 42 94 107t34 139zM376 762h-339q-15 0 -25 10t-10 24t10 24t25 10h339q14 0 24 -10t10 -24t-10 -24t-24 -10zM34 419h251q14 0 24.5 -10t10.5 -24.5t-10.5 -24.5t-24.5 -10h-251q-14 0 -24 10
t-10 24.5t10 24.5t24 10zM34 76h597q14 0 24 -10t10 -24t-10 -24t-24 -10h-597q-14 0 -24 10t-10 24t10 24t24 10z" />
    <glyph glyph-name="light" unicode="&#xe655;" 
d="M746 286q-25 -26 -44 -66.5t-27 -69.5t-20 -80q-7 -28 -10.5 -42.5t-11 -39t-14 -38t-17.5 -30.5t-23.5 -26t-29.5 -15.5t-37.5 -6.5t-37.5 6.5t-29.5 15.5t-23.5 26t-17.5 30.5t-14 38t-11 39t-10.5 42.5q-12 51 -20 80t-26.5 69.5t-43.5 65.5q-61 68 -90.5 127.5
t-29.5 134.5q0 95 47 175.5t129 127t177.5 46.5t177.5 -46.5t129 -127t47 -175.5q0 -75 -29 -134t-90 -127zM512 -75q32 0 50 30.5t34 98.5l-160 -35q13 -48 30 -71t46 -23zM420 81q1 -2 2 -6t1 -5l187 40q11 47 20 75h-237q12 -36 27 -104zM511.5 843
q-124.5 0 -212.5 -86.5t-88 -209.5q0 -64 25.5 -114.5t80.5 -111.5q33 -33 55 -83h279q23 50 55 84q55 60 80.5 110.5t25.5 114.5q0 123 -88 209.5t-212.5 86.5zM498 741q-77 0 -131.5 -54t-54.5 -129q0 -11 -8 -19t-19 -8t-18.5 8t-7.5 19q0 97 70 166t169 69q11 0 19 -7.5
t8 -18.5t-8 -18.5t-19 -7.5z" />
    <glyph glyph-name="rmb" unicode="&#xe656;" 
d="M805 304v-74h-256v-256h-74v256h-256v74h256v101l-5 9h-251v73h209l-163 282l64 37l183 -318l183 318l64 -37l-163 -282h209v-73h-251l-5 -9v-101h256z" />
    <glyph glyph-name="pas" unicode="&#xe657;" 
d="M853 -128h-682q-47 0 -80.5 33.5t-33.5 80.5v398q0 39 24 69.5t61 40.5v32q0 101 49.5 186t135 134.5t185.5 49.5t185.5 -49.5t135 -134.5t49.5 -186v-32q37 -10 61 -40.5t24 -69.5v-398q0 -47 -33.5 -80.5t-80.5 -33.5zM825 526q0 130 -91.5 221.5t-221.5 91.5
t-221.5 -91.5t-91.5 -221.5v-28h626v28zM910 384q0 24 -16.5 40.5t-40.5 16.5h-28h-626h-28q-24 0 -40.5 -16.5t-16.5 -40.5v-398q0 -24 16.5 -40.5t40.5 -16.5h682q24 0 40.5 16.5t16.5 40.5v398zM540 133v-119h-56v119q-26 9 -41.5 31t-15.5 49q0 36 25 61t60 25t60 -25
t25 -61q0 -27 -15.5 -49t-41.5 -31z" />
    <glyph glyph-name="phone" unicode="&#xe658;" 
d="M683 -128h-342q-47 0 -80 33.5t-33 80.5v796q0 47 33 80.5t80 33.5h342q47 0 80 -33.5t33 -80.5v-796q0 -47 -33 -80.5t-80 -33.5zM512 -71q24 0 40.5 16.5t16.5 40t-16.5 40.5t-40.5 17t-40.5 -17t-16.5 -40.5t16.5 -40t40.5 -16.5zM597 839h-170v-28h170v28zM740 756
q-8 -2 -15 -2h-426q-7 0 -15 2v-664q14 8 29 8h398q15 0 29 -8v664z" />
    <glyph glyph-name="l" unicode="&#xe659;" 
d="M853 -128h-682q-27 0 -45.5 19t-18.5 45v43q0 9 4 21q-4 12 -4 21v811q0 26 18.5 45t45.5 19h42q27 0 45.5 -19t18.5 -45v-789h576q27 0 45.5 -19t18.5 -45v-43q0 -26 -18.5 -45t-45.5 -19z" />
    <glyph glyph-name="hkcz" unicode="&#xe65a;" horiz-adv-x="1025" 
d="M527 -112q-6 0 -10 2q-17 6 -17 24v353q-53 6 -203.5 -37t-255.5 -112q-14 -9 -28.5 0t-12.5 25q8 80 41 151.5t80.5 122.5t104 92t113 65.5t105 37.5t83.5 13q11 0 18.5 -8t7.5 -19t-7.5 -18.5t-18.5 -7.5q-26 0 -64.5 -10t-86 -29.5t-96 -51.5t-92 -72.5t-78 -96.5
t-48.5 -120q120 66 271.5 104t196.5 17q20 -9 23 -29v-3v-300l392 411l-392 411v-49q0 -11 -7.5 -19t-18.5 -8t-19 8t-8 19v115q0 18 16.5 25t29.5 -6l455 -478q7 -7 7 -18t-7 -18l-455 -478q-8 -8 -19 -8z" />
    <glyph glyph-name="card1" unicode="&#xe65b;" horiz-adv-x="1303" 
d="M1176 -128h-1064q-47 0 -79.5 33t-32.5 80v798q0 47 32.5 80t79.5 33h1064q46 0 79 -33t33 -80v-798q0 -47 -33 -80t-79 -33zM1220 783q0 18 -13 31.5t-31 13.5h-1064q-18 0 -31 -13.5t-13 -31.5v-798q0 -18 13 -31.5t31 -13.5h1064q18 0 31 13.5t13 31.5v798zM948 521
h-740q-14 0 -24 10t-10 24.5t10 24.5t24 10h740q14 0 24 -10t10 -24.5t-10 -24.5t-24 -10zM206 247h170q14 0 24 -10t10 -24t-10 -24t-24 -10h-170q-14 0 -24 10t-10 24t10 24t24 10z" />
    <glyph glyph-name="eczr1" unicode="&#xe65c;" horiz-adv-x="1536" 
d="M1275 229h-953l124 -136q9 -9 9 -23t-9.5 -23.5t-21.5 -9.5q-14 0 -23 10l-175 192q-14 16 -6 36t28 20h1027q13 0 22 -9.5t9 -23.5t-9 -23.5t-22 -9.5v0zM1247 496h-1011q-12 0 -21.5 10t-9.5 23.5t9.5 23.5t21.5 10h937l-124 135q-8 10 -8 23.5t9 23.5t22 9.5t22 -10.5
l175 -191q15 -16 7 -36.5t-29 -20.5z" />
    <glyph glyph-name="question1" unicode="&#xe65d;" 
d="M319 578q16 211 195 211q82 0 131 -45.5t49 -119.5q0 -49 -19.5 -82t-96 -111.5t-99.5 -132.5t-25 -133h92q0 87 18.5 124t101.5 116q76 71 98.5 112t22.5 99q0 113 -75.5 180.5t-193.5 67.5q-56 0 -109 -18t-95.5 -56t-60.5 -84t-21 -128h87zM555 40h-103v-110h103v110z
" />
    <glyph glyph-name="call" unicode="&#xe65e;" 
d="M655 -128q-128 0 -244.5 51.5t-201 138t-134.5 206.5t-50 251q0 109 41 231l1 3q23 64 78 103.5t122 39.5q88 0 150.5 -64t62.5 -154q0 -86 -56.5 -148.5t-138.5 -69.5q18 -118 97.5 -205t193.5 -112q11 80 71 134.5t140 54.5q88 0 150 -64t62 -154q0 -39 -22.5 -80.5
t-64 -78t-109.5 -60t-148 -23.5zM85 743l19 -7q-39 -115 -39 -217q0 -123 47 -235t126 -193t188 -129.5t229 -48.5q61 0 113 14.5t86 37t58.5 49.5t35.5 53t11 47q0 73 -50.5 125t-121.5 52q-70 0 -120.5 -50.5t-52.5 -122.5v-23l-23 3q-140 23 -237.5 129t-111.5 251l-2 23
l27 -1q71 0 121.5 52t50.5 125.5t-50.5 125.5t-121.5 52q-54 0 -98.5 -32t-63.5 -84z" />
    <glyph glyph-name="pig" unicode="&#xe65f;" horiz-adv-x="1581" 
d="M1562 330q-37 -48 -94 -49q26 -14 49 -14l-3 -52q-4 0 -10 0.5t-21.5 4.5t-29.5 10t-30.5 18.5t-28.5 28.5q-9 14 -14 30q-19 11 -40 29q-2 -164 -65 -280q-8 -15 -18.5 -31.5t-33 -45.5t-45.5 -51t-54.5 -38.5t-61.5 -16.5v0q-41 0 -76 28q-14 13 -34.5 13t-70.5 -17
q-68 -23 -107 -23q-62 0 -136 26q-34 12 -54 17q-4 -2 -19 -11q-57 -34 -100 -34q-14 0 -29 3q-24 5 -41.5 14.5t-27 23t-13.5 22t-8 20.5q-2 7 -3 8q-54 30 -102 80t-71 96q-4 1 -20 3q-15 1 -24 2t-26 6.5t-28 14t-25 24.5t-22.5 38.5t-15.5 57t-9 77.5q-1 36 7.5 64.5
t20 45t32 30t32 18.5t31.5 12q21 7 25 10q8 24 22 95q9 41 13.5 63t15 58t21 57.5t27.5 42.5t37 32q12 6 26 6t32.5 -7.5t31.5 -15.5t37 -23q63 -42 82 -42h4q100 22 225 22q153 0 286.5 -54t219 -148t106.5 -209q20 -26 40 -43q3 27 13 58q25 73 79 77q27 3 54 -15t44 -50
q16 -30 15.5 -61.5t-17.5 -54.5zM722 777q-119 0 -215 -20q-6 -1 -14 -1v0q-16 0 -37 8t-34.5 16.5t-39.5 25.5q-57 37 -72 37q-18 -9 -32 -30.5t-25 -57.5t-17 -60t-15 -68q-15 -77 -25 -105q-5 -16 -18.5 -24t-38.5 -16q-22 -8 -33.5 -13.5t-27 -18t-21.5 -34t-5 -52.5
q2 -47 9.5 -79.5t16 -49.5t24.5 -26.5t25 -11t27 -3.5q15 -1 23.5 -2.5t20.5 -8.5t17 -18q19 -37 62.5 -83.5t93.5 -73.5q15 -8 24 -36q4 -13 7.5 -19.5t15 -14.5t29.5 -12q37 -7 92 25q35 22 54 17q24 -5 61 -18q67 -23 120 -23q30 0 91 20q58 19 86 19q39 0 68 -24
q21 -17 43 -17q30 0 65.5 29.5t60 62t42.5 65.5q35 64 47 129t12 141q0 115 -76 213t-206.5 155t-284.5 57zM1518 421q-9 17 -22.5 28t-25.5 10q-20 -2 -34 -43q-14 -42 -11 -73q21 -10 40 -10v0q34 0 56 29q17 23 -3 59zM567 658l-21 48q8 3 22.5 8.5t57 13.5t88 9.5
t112.5 -9t134 -35.5l-18 -49q-61 23 -122.5 32.5t-103 8t-79.5 -8.5t-51.5 -11.5t-18.5 -6.5z" />
    <glyph glyph-name="setting" unicode="&#xe660;" 
d="M501 533q-53 0 -93 -33q-7 -5 -15.5 -4t-14 7.5t-4.5 15t7 14.5q53 42 120 42q79 0 135 -56t56 -135t-56 -135t-135 -56t-135 56t-56 135q0 44 19 84q4 8 12.5 10.5t16 -1t10.5 -12t-1 -16.5q-15 -31 -15 -65q0 -62 43.5 -105.5t105 -43.5t105.5 43.5t44 105.5t-44 105.5
t-105 43.5zM989 530q-6 -25 -28 -38l-103 -62q4 -27 4 -53q0 -19 -2 -40l101 -61q22 -13 28 -38t-7 -47l-84 -140q-13 -22 -38 -28.5t-47 6.5l-97 58q-33 -25 -71 -41v-112q0 -26 -18 -44t-44 -18h-164q-26 0 -44 18t-18 44v112q-38 16 -72 41l-96 -58q-22 -13 -47 -6.5
t-38 28.5l-84 140q-13 22 -7 47t28 38l101 61q-3 21 -3 40q0 26 5 53l-103 62q-22 13 -28 38t7 47l84 140q13 22 38 28.5t47 -6.5l45 -27q7 -4 9 -12.5t-2.5 -16t-13 -9.5t-15.5 2l-45 27q-7 4 -15 2t-12 -9l-84 -141q-4 -7 -2 -15t9 -12l114 -69q13 -8 10 -22
q-5 -31 -5 -60q0 -21 4 -48q2 -14 -10 -21l-113 -68q-7 -4 -9 -12t2 -15l84 -141q4 -7 12 -9t15 2l109 65q13 8 24 -1q38 -31 86 -50q13 -5 13 -19v-126q0 -8 6 -14t14 -6h164q8 0 14 6t6 14v126q0 14 13 19q47 19 86 50q11 9 24 1l108 -65q7 -4 15.5 -2t12.5 9l84 141
q4 7 2 15t-9 12l-113 68q-12 7 -10 21q4 26 4 48q0 29 -5 60q-3 14 9 22l115 69q7 4 9 12t-2 15l-84 141q-4 7 -12.5 9t-15.5 -2l-118 -72q-13 -7 -24 2q-35 26 -76 42q-13 5 -13 19v140q0 8 -6 14t-14 6h-164q-8 0 -14 -6t-6 -14v-140q0 -14 -13 -19q-41 -16 -76 -42
q-7 -6 -15.5 -4.5t-14 8.5t-4 15.5t8.5 13.5q34 26 72 43v125q0 26 18 44t44 18h164q26 0 44 -18t18 -44v-125q32 -14 61 -34l107 64q22 13 47 6.5t38 -28.5l84 -140q13 -22 7 -47z" />
    <glyph glyph-name="safe1" unicode="&#xe662;" 
d="M952 810v-522q0 -47 -22 -94q-23 -46 -59 -89.5t-83 -82.5q-46 -39 -95 -70q-47 -30 -93 -50q-46 -21 -80 -28l-10 -2l-10 2q-35 7 -82 28q-46 20 -96 50q-50 31 -97.5 70t-85.5 82.5t-61 89.5q-24 47 -24 94v522l37 5l413 81l421 -81l27 -5v0v0zM504 820l-5 1l-354 -63
v-329h359v391v0v0zM862 429h-358v-468q35 8 75 25q41 17 80 40q40 24 76 52q37 28 65 61q28 32 45 67t17 72v151v0v0z" />
    <glyph glyph-name="link" unicode="&#xe663;" horiz-adv-x="1473" 
d="M1359 485l-355 -202l-41 69l355 202q51 29 66 85t-14.5 106.5t-86 65.5t-107.5 -14l-475 -271q-50 -29 -65.5 -85t14.5 -106q11 -19 27 -34l-73 -41q-14 16 -25 35q-46 79 -22 167t104 134l474 270q80 46 169.5 22.5t136 -102.5t22.5 -167.5t-104 -133.5zM100.5 23
q29.5 -50 86 -65.5t107.5 13.5l475 271q51 29 66 85t-14 106q-11 19 -28 34l73 41q14 -16 25 -35q47 -79 23 -167t-104 -134l-475 -270q-80 -46 -169.5 -22.5t-135.5 102.5t-22 167.5t104 134.5l354 202l41 -70l-355 -202q-50 -29 -65.5 -85t14 -106z" />
    <glyph glyph-name="wujilu" unicode="&#xe664;" 
d="M757.5 -128q-68.5 0 -117 48.5t-48.5 117.5t48.5 117.5t117 48.5t117 -48.5t48.5 -117.5t-48.5 -117.5t-117 -48.5zM757.5 177q-57.5 0 -98 -41t-40.5 -98.5t40.5 -98t98 -40.5t98 40.5t40.5 98t-40.5 98.5t-98 41zM761.5 -48q-5.5 0 -9.5 3.5t-4 9.5t4 10t9.5 4t9.5 -4
t4 -10t-4 -9.5t-9.5 -3.5zM761.5 -9q-5.5 0 -9.5 4t-4 9v128q0 5 4 9t9.5 4t9.5 -4t4 -9v-128q0 -5 -4 -9t-9.5 -4zM617 175h-352q-5 0 -9 4t-4 9.5t4 9.5t9 4h352q5 0 9 -4t4 -9.5t-4 -9.5t-9 -4zM630 262.5q0 -5.5 -4 -9.5t-10 -4h-350q-6 0 -10 4t-4 9.5t4 9.5t10 4h350
q6 0 10 -4t4 -9.5zM530 465q5 0 9 -4t4 -9.5t-4 -9.5t-9 -4h-79v-69q0 -5 -4 -9t-9.5 -4t-9.5 4t-4 9v69h-78q-5 0 -9 4t-4 9.5t4 9.5t9 4h78v34h-78q-5 0 -9 3.5t-4 9.5t4 10t9 4h57l-47 46q-9 10 0.5 19.5t18.5 -0.5l63 -63l62 63q10 10 19.5 0.5t-0.5 -19.5l-46 -46h57
q5 0 9 -4t4 -10t-4 -9.5t-9 -3.5h-79v-34h79zM761.5 225q-5.5 0 -9.5 3.5t-4 9.5v527q0 1 -1 2t-2 1h-152l17 -64q2 -6 -2 -11.5t-11 -5.5h-156h-2h-156q-7 0 -11 5.5t-2 11.5l17 64h-156q-3 0 -3 -3v-782q0 -3 3 -3h440q5 0 9 -4t4 -9.5t-4 -9.5t-9 -4h-440q-12 0 -21 9
t-9 21v781q0 12 9 21.5t21 9.5h163l10 37q2 10 13 10h43l4 42q1 12 13 12h62h2h61q13 0 14 -12l3 -42h44q10 0 13 -10l10 -37h159q12 0 21 -8.5t9 -21.5v-527q0 -6 -4 -9.5t-9.5 -3.5zM553 815h-46q-12 0 -13 13l-4 41h-49h-2h-49l-4 -41q-1 -13 -13 -13h-46l-10 -37v-3
l-17 -61h139h2h138z" />
    <glyph glyph-name="i" unicode="&#xe665;" 
d="M512 -128q-139 0 -257 68.5t-186.5 186.5t-68.5 257t68.5 257t186.5 186.5t257 68.5t257 -68.5t186.5 -186.5t68.5 -257t-68.5 -257t-186.5 -186.5t-257 -68.5zM512 855q-96 0 -183 -37.5t-150 -100.5t-100.5 -150t-37.5 -183t37.5 -183t100.5 -150t150 -100.5t183 -37.5
t183 37.5t150 100.5t100.5 150t37.5 183t-37.5 183t-100.5 150t-150 100.5t-183 37.5zM512 236q-12 0 -19.5 4t-10.5 14t-3.5 17.5t-0.5 23.5v9l-34 262q0 28 20 48t48 20t48 -20t20 -48l-34 -262v-9q0 -16 -0.5 -23.5t-3.5 -17.5t-10.5 -14t-19.5 -4zM512 191q14 0 24 -10
t10 -24.5t-10 -24.5t-24 -10t-24 10t-10 24.5t10 24.5t24 10z" />
    <glyph glyph-name="show-password" unicode="&#xe666;" horiz-adv-x="1714" 
d="M1272 427h3v-310h-103v264q-151 -58 -310 -58t-311 58v-264h-103v310h3q-120 65 -210 160v167q97 -150 261.5 -238.5t359 -88.5t359 88.5t261.5 238.5v-167q-90 -95 -210 -160zM913 13h-103v310h52h51v-310z" />
    <glyph glyph-name="show-password1" unicode="&#xe667;" horiz-adv-x="1366" 
d="M683 -128q-139 0 -265.5 40.5t-218 109t-145.5 163.5t-54 199t54 199t145.5 163.5t218 109t265.5 40.5t265 -40.5t217.5 -109t145.5 -163.5t54 -199t-54 -199t-145.5 -163.5t-217.5 -109t-265 -40.5zM682.5 782q-154.5 0 -285.5 -53t-207 -145t-76 -200t76 -200t207 -145
t285.5 -53t285.5 53t207.5 145t76.5 200t-76.5 200t-207.5 145t-285.5 53zM682.5 213q-70.5 0 -120.5 50t-50 121t50 121t120.5 50t120.5 -50t50 -121t-50 -121t-120.5 -50z" />
    <glyph glyph-name="assets-fill" unicode="&#xe64e;" 
d="M1024 431v0v0v-24h-1h-441h-47v47v441v1h47v-1q117 -6 216.5 -65.5t159 -159t65.5 -216.5h1v-23zM488.5 -128q-99.5 0 -190 38.5t-156 104t-104 156t-38.5 190t38.5 190t104 156t156 104t190.5 38.5v-488h488q0 -100 -38.5 -190.5t-104 -156t-156 -104t-190 -38.5z" />
    <glyph glyph-name="assets" unicode="&#xe64f;" 
d="M1023 407h-47h-394h-47v47v394v47v1h47v-1q117 -6 216.5 -65.5t159 -159t65.5 -216.5h1v-47h-1zM582 848v-394h394q-9 159 -122 272t-272 122zM931 361h46q0 -100 -38.5 -190.5t-104 -156t-156 -104t-190 -38.5t-190 38.5t-156 104t-104 156t-38.5 190t38.5 190t104 156
t156 104t190.5 38.5v-23v-23v-442h442v0zM489 314h-47v47v439q-110 -11 -200.5 -72t-142.5 -158t-52 -209q0 -90 35 -172t94 -141t141 -94t172 -35q112 0 209 52t158 142.5t72 200.5h-439z" />
    <glyph glyph-name="my-bankcard" unicode="&#xe668;" horiz-adv-x="1336" 
d="M1145 -84h-954q-79 0 -135 54t-56 130v437h1335v-437q0 -76 -55.5 -130t-134.5 -54zM900 275l-128 -230h317l129 230h-318zM0 712q0 76 56 129.5t135 53.5h954q79 0 134.5 -53.5t55.5 -129.5v-44h-1335v44v0z" />
    <glyph glyph-name="my-mail" unicode="&#xe669;" horiz-adv-x="1336" 
d="M1257 729q-5 -41 -34 -70l-465 -454q-35 -35 -86 -35t-87 35l-464 454q-30 29 -35 70q-1 -7 -1 -15v-621q0 -49 36 -84.5t86 -35.5h929q51 0 86.5 35.5t35.5 84.5v621q0 7 -1 15v0v0zM758 292l487 476q-15 30 -44.5 48t-64.5 18h-929q-35 0 -64 -18t-45 -48l487 -476
q36 -35 87 -35t86 35v0v0z" />
    <glyph glyph-name="my-house" unicode="&#xe66a;" horiz-adv-x="1134" 
d="M1039 462l-121 106v10v145q0 25 -18 43t-43.5 18t-43.5 -18t-18 -43v-50l-159 138q-24 23 -57.5 23t-56.5 -23l-415 -339q-24 -23 -24 -53.5t24 -54.5l109 -42v-310q0 -33 23.5 -55.5t55.5 -22.5h549q33 0 56 22.5t23 55.5v299l116 43q24 24 24 54.5t-24 53.5v0zM725 445
q21 0 35.5 -14t14.5 -34t-14.5 -34.5t-35 -14.5t-35.5 14.5t-15 34.5t15 34t35 14v0zM437 445q21 0 35.5 -14t14.5 -34t-14.5 -34.5t-35 -14.5t-35 14.5t-14.5 34.5t14.5 34t34.5 14v0zM821 175q-45 -57 -108.5 -92.5t-131.5 -35.5v0v0q-68 0 -130.5 35t-108.5 91
q-8 11 -6.5 24.5t12.5 21.5q9 7 20 7q17 0 27 -13q34 -42 82.5 -65t103.5 -23t104 23.5t82 66.5q11 13 28 13q11 -1 20 -7q11 -8 13 -21.5t-7 -24.5v0z" />
    <glyph glyph-name="foucs" unicode="&#xe66b;" horiz-adv-x="1161" 
d="M572 -66q-81 0 -158 31.5t-135.5 81t-105.5 110t-74.5 119t-36.5 108.5q9 50 36.5 108.5t74.5 119t105.5 110t135.5 81t158 31.5t158 -31.5t135.5 -81t105.5 -110t74.5 -119t36.5 -108.5q-9 -50 -36.5 -108.5t-74.5 -119t-105.5 -110t-135.5 -81t-158 -31.5v0zM572 774
q-68 0 -134 -26.5t-116.5 -69t-92.5 -95t-68.5 -103.5t-38.5 -96q12 -45 38.5 -96t68.5 -103.5t92.5 -95t116.5 -69t134 -26.5t134 26.5t116.5 69t93 95t68.5 103.5t38 96q-12 45 -38 96t-68.5 103.5t-93 95t-116.5 69t-134 26.5v0zM572 174q-75 0 -127.5 57t-52.5 138
t52.5 138t127.5 57t127.5 -57t52.5 -138t-52.5 -138t-127.5 -57v0zM572 504q-49 0 -84.5 -39.5t-35.5 -95.5t35.5 -95.5t84.5 -39.5t84.5 39.5t35.5 95.5t-35.5 95.5t-84.5 39.5v0z" />
    <glyph glyph-name="ib" unicode="&#xe66c;" 
d="M662.5 726q-17.5 -26 -43.5 -34t-46 7t-22 44t15.5 54.5t43.5 33.5t46 -7t22 -43.5t-15.5 -54.5zM634 567q-18 -68 -49.5 -182.5t-42.5 -157.5q-32 -127 -32 -146q-6 -31 -1.5 -43.5t16 -11t23.5 9t21 15.5l10 8l70 63l28 -30q-54 -53 -101 -92q-35 -29 -66 -49v0
q-5 -3 -12.5 -6t-27.5 -7.5t-35.5 -3t-28.5 14.5t-14 40q0 27 5.5 66.5t21.5 104t24 97t32 119.5t27 97q20 74 -18.5 60t-108.5 -92l-30 27q38 51 101 99q68 52 122 61q24 4 40 -0.5t21 -14.5t6.5 -20t0.5 -18z" />
    <glyph glyph-name="kefu" unicode="&#xe66d;" horiz-adv-x="1161" 
d="M62 199q0 -5 4 -9t9 -4h59q6 0 9.5 4t3.5 9v202q0 5 -3.5 9t-9.5 4h-12q21 105 85 190.5t160.5 135.5t206.5 50t205.5 -50t158 -136t83.5 -192h-12q-5 0 -9 -3.5t-4 -9.5v-199q0 -6 4 -9.5t9 -3.5h60q5 0 9 3.5t4 9.5v199q0 9 -8 12q-22 117 -94 213.5t-180 153
t-229 56.5q-120 0 -227.5 -56t-179.5 -152.5t-94 -213.5q-8 -3 -8 -11v-202v0zM573 725q107 0 198 -53t144.5 -143.5t53.5 -197.5t-53.5 -198.5t-144.5 -145t-198.5 -53.5t-198.5 53.5t-144.5 145t-53.5 198.5t53.5 197.5t144.5 143.5t199 53v0zM573 -10q92 0 170 46
t122.5 124t44.5 170.5t-45 170t-122.5 121.5t-170 44t-170.5 -44t-124 -121.5t-46 -170t45.5 -170.5t124 -124t171.5 -46v0z" />
    <glyph glyph-name="about2" unicode="&#xe66e;" 
d="M511 -66q-5 2 -15 5t-40.5 17t-59.5 32t-68 51t-71.5 72.5t-65 99t-53.5 127t-31 159.5t-4 195q11 1 29 3.5t70 13.5t99.5 25.5t107 41t102.5 58.5q10 -6 26.5 -16.5t66.5 -36t97 -44.5t108 -33.5t110 -11.5q1 -8 2 -22.5t1.5 -58.5t-2 -87.5t-13 -104.5t-28 -115.5
t-49 -114.5t-73.5 -107t-105.5 -87t-140.5 -61zM619 587h-196l-90 -212l179 -17l-125 -177l304 229l-161 18z" />
    <glyph glyph-name="about3" unicode="&#xe66f;" 
d="M877 101q-9 -40 -34 -71t-57.5 -48t-70 -28.5t-73.5 -15t-65 -4t-47 0.5l-18 1q-102 -2 -171 9.5t-117 41t-68 80.5t-15 126q3 62 23.5 115.5t50.5 94t60 72t61.5 63.5t45.5 55h256q69 -82 103 -118l6 -6q170 -180 130 -368zM629 409q-15 0 -23 -13l-87 -132l-87 132
q-8 13 -23 13q-15 -2 -17 -17q2 -8 6 -16q2 -1 2 -3l77 -121h-45q-21 0 -21 -17q2 -13 21 -15h66v-35h-66q-21 0 -21 -17q2 -13 21 -15h66v-77q0 -19 21 -19t21 19v77h66q19 2 21 15q0 17 -21 17h-66v35h66q19 2 21 15q0 17 -21 17h-45l77 121q0 2 2 3q6 12 6 16
q-2 15 -17 17zM709 745q-8 -7 -27.5 -33.5t-34.5 -50.5l-15 -23h-239q-5 18 -33.5 51.5t-34.5 43.5q-10 15 -6 28t15 21t27 14q21 7 33.5 -2.5t21.5 -33.5q10 -24 24.5 -41t26.5 -12q8 6 5.5 15t-9.5 19l-6 9q-1 2 -2.5 4.5t-5 10.5t-5 14t-2.5 14.5t3 11.5q13 25 54 28.5
t70 -13.5q11 -5 15 -14t0.5 -20t-7.5 -19.5t-11 -19.5t-9 -14q-13 -24 14 -27q5 0 17.5 18t27 41.5t20.5 29.5q17 18 53 -6q30 -19 26 -37q-2 -4 -6 -7z" />
    <glyph glyph-name="about1" unicode="&#xe670;" horiz-adv-x="1188" 
d="M1075 399v60h52v31l-522 344l-522 -344v-31h52v-60h59v-329h-59v-63h-52v-73h1044v73h-52v63h-59v329h59zM428 70h-112v329h112v-329zM661 70h-112v329h112v-329zM895 70h-112v329h112v-329z" />
    <glyph glyph-name="about4" unicode="&#xe671;" horiz-adv-x="1205" 
d="M1065 273q-42 -10 -120 0q-47 6 -458 107l-30 -110l16 -72l-402 123l93 101l85 294l-33 118l409 -118l-60 -45l-24 -87l1 -1l-1 -1l-19 -69q509 -77 535 -82q30 -7 47 -25.5t17 -45.5q0 -74 -56 -87zM571 70l64 -136h-573l42 136h467z" />
    <glyph glyph-name="eye-open" unicode="&#xe672;" 
d="M512 647q-60 0 -117.5 -15.5t-100 -39t-82.5 -55.5t-64.5 -58t-46.5 -55t-28 -39t-10 -16v0q4 -5 10.5 -14t29.5 -34.5t48.5 -49t66 -52t83 -49t98.5 -34.5t113 -14t113 13.5t99 35.5t82 48.5t66.5 52.5t48 48t30.5 35.5l10 13.5q-3 6 -9 16t-26 39t-44 55t-63 58
t-82 55.5t-102.5 39t-122.5 15.5zM512 226q-67 0 -114.5 46.5t-47.5 112t47.5 111.5t114.5 46t114.5 -46t47.5 -111.5t-47.5 -112t-114.5 -46.5zM512 449q-29 0 -50 -20.5t-21 -50t21 -50t50 -20.5t50 20.5t21 50t-21 50t-50 20.5z" />
    <glyph glyph-name="eye-close" unicode="&#xe673;" 
d="M960 381.5v-1v-1t-0.5 -1l-0.5 -0.5v0q-1 -12 -9 -20q-10 -12 -30 -33q-90 -93 -190 -146q-75 -40 -142 -53q-83 -15 -164 3q-60 13 -123 46l1 1l112 75q44 -32 98 -32q70 0 119 50t49 121q0 19 -4 37l148 99q15 -11 29 -23q61 -50 97 -95q8 -8 9 -20v0l1 -1v0v-0.5v-0.5
v-1v-2v-1.5zM512 305q-8 0 -16 1l98 66q-6 -29 -29 -48t-53 -19zM880 608l-727 -485q-6 -4 -12 -4q-9 0 -15 6.5t-6 15.5q0 11 10 17v0l727 486q6 3 12 3q9 0 15 -6t6 -15q0 -12 -10 -18v0zM512 476q11 0 23 -4l-106 -72q3 32 27 54t56 22zM614 526q-45 35 -102 35
q-70 0 -119 -50t-49 -121q0 -21 6 -43l-154 -105q-13 11 -25 21q-61 50 -98 95q-19 25 0 50q11 13 30 33q91 94 190 147q75 39 143 52q83 15 163 -2q57 -13 117 -43l-8 -5z" />
  </font>
</defs>
</svg>
